<svg width="102" height="34" viewBox="0 0 102 34" fill="none" xmlns="http://www.w3.org/2000/svg">
<path d="M-0.000444904 31.004L10.9016 20.47L-0.000444904 9.93595H5.84155L15.4556 19.32V21.666L5.84155 31.004H-0.000444904ZM31.4449 33.304C29.1755 33.304 27.2129 32.89 25.5569 32.062C23.9009 31.234 22.5975 30.1146 21.6469 28.704C20.6962 27.2933 20.1135 25.6986 19.8989 23.92H24.4069C24.7135 25.5453 25.4955 26.864 26.7529 27.876C28.0102 28.888 29.5895 29.394 31.4909 29.394C32.8709 29.394 34.0669 29.0566 35.0789 28.382C36.1215 27.7073 36.9189 26.8026 37.4709 25.668C38.0229 24.5026 38.2989 23.23 38.2989 21.85C38.2989 20.3473 38.0075 19.044 37.4249 17.94C36.8729 16.836 36.0909 15.9773 35.0789 15.364C34.0669 14.7506 32.9015 14.444 31.5829 14.444C29.9575 14.444 28.5622 14.8273 27.3969 15.594C26.2315 16.33 25.3882 17.296 24.8669 18.492H20.4509L23.2109 0.551951H40.4149V4.55395H26.7069L24.9589 13.524C25.7255 12.6653 26.7222 11.9753 27.9489 11.454C29.1755 10.902 30.6015 10.626 32.2269 10.626C33.8522 10.626 35.3089 10.9173 36.5969 11.5C37.8849 12.0826 38.9889 12.88 39.9089 13.892C40.8289 14.904 41.5342 16.0846 42.0249 17.434C42.5155 18.7833 42.7609 20.24 42.7609 21.804C42.7609 23.3986 42.5002 24.9013 41.9789 26.312C41.4575 27.692 40.7062 28.9186 39.7249 29.992C38.7435 31.0346 37.5475 31.8473 36.1369 32.43C34.7569 33.0126 33.1929 33.304 31.4449 33.304ZM56.3711 33.304C54.0098 33.304 52.0165 32.8593 50.3911 31.97C48.7658 31.0806 47.4625 29.9 46.4811 28.428C45.4998 26.956 44.7791 25.3 44.3191 23.46C43.8898 21.62 43.6751 19.7493 43.6751 17.848C43.6751 14.2906 44.1658 11.178 45.1471 8.50995C46.1591 5.84195 47.6005 3.75662 49.4711 2.25395C51.3725 0.751285 53.6418 -4.74453e-05 56.2791 -4.74453e-05C58.3645 -4.74453e-05 60.1431 0.413952 61.6151 1.24195C63.1178 2.06995 64.2831 3.15862 65.1111 4.50795C65.9698 5.85728 66.4911 7.35995 66.6751 9.01595H62.3971C62.1211 7.39062 61.4311 6.13329 60.3271 5.24395C59.2538 4.35462 57.8738 3.90995 56.1871 3.90995C54.7151 3.90995 53.3811 4.38529 52.1851 5.33595C50.9891 6.25595 50.0231 7.66662 49.2871 9.56795C48.5818 11.4693 48.1831 13.892 48.0911 16.836C48.0911 16.8666 48.0911 16.8973 48.0911 16.928C48.0911 16.9586 48.0911 17.0046 48.0911 17.066C48.5818 16.146 49.2565 15.318 50.1151 14.582C51.0045 13.8153 52.0318 13.2173 53.1971 12.788C54.3625 12.328 55.6505 12.098 57.0611 12.098C58.8705 12.098 60.5725 12.5273 62.1671 13.386C63.7618 14.214 65.0498 15.41 66.0311 16.974C67.0431 18.538 67.5491 20.3626 67.5491 22.448C67.5491 24.3186 67.0891 26.082 66.1691 27.738C65.2798 29.394 63.9918 30.7433 62.3051 31.786C60.6185 32.798 58.6405 33.304 56.3711 33.304ZM56.0491 29.302C57.3985 29.302 58.5945 29.0106 59.6371 28.428C60.6798 27.8453 61.4925 27.0633 62.0751 26.082C62.6885 25.07 62.9951 23.92 62.9951 22.632C62.9951 21.3133 62.6885 20.1633 62.0751 19.182C61.4925 18.17 60.6645 17.388 59.5911 16.836C58.5485 16.284 57.3678 16.008 56.0491 16.008C54.7305 16.008 53.5345 16.3146 52.4611 16.928C51.4185 17.5413 50.5905 18.354 49.9771 19.366C49.3638 20.3473 49.0571 21.4513 49.0571 22.678C49.0571 23.9353 49.3638 25.07 49.9771 26.082C50.5905 27.0633 51.4185 27.8453 52.4611 28.428C53.5345 29.0106 54.7305 29.302 56.0491 29.302ZM73.1809 32.752L91.7189 0.551951H96.2729L77.7349 32.752H73.1809ZM94.1109 33.304C92.6696 33.304 91.3816 32.982 90.2469 32.338C89.1122 31.694 88.2076 30.7893 87.5329 29.624C86.8582 28.428 86.5209 27.0326 86.5209 25.438C86.5209 23.782 86.8582 22.3713 87.5329 21.206C88.2076 20.0406 89.1122 19.136 90.2469 18.492C91.3816 17.848 92.6542 17.526 94.0649 17.526C95.5369 17.526 96.8249 17.848 97.9289 18.492C99.0636 19.136 99.9529 20.0406 100.597 21.206C101.272 22.3713 101.609 23.782 101.609 25.438C101.609 27.0326 101.272 28.428 100.597 29.624C99.9529 30.7893 99.0636 31.694 97.9289 32.338C96.7942 32.982 95.5216 33.304 94.1109 33.304ZM94.0189 29.9C94.7242 29.9 95.3529 29.7313 95.9049 29.394C96.4876 29.0566 96.9476 28.566 97.2849 27.922C97.6529 27.2473 97.8369 26.404 97.8369 25.392C97.8369 24.38 97.6682 23.552 97.3309 22.908C96.9936 22.2333 96.5336 21.7273 95.9509 21.39C95.3989 21.0526 94.7702 20.884 94.0649 20.884C93.4209 20.884 92.8076 21.0526 92.2249 21.39C91.6422 21.7273 91.1669 22.2333 90.7989 22.908C90.4616 23.552 90.2929 24.38 90.2929 25.392C90.2929 26.404 90.4616 27.2473 90.7989 27.922C91.1669 28.566 91.6269 29.0566 92.1789 29.394C92.7616 29.7313 93.3749 29.9 94.0189 29.9ZM75.6649 15.824C74.2236 15.824 72.9356 15.502 71.8009 14.858C70.6662 14.214 69.7616 13.3093 69.0869 12.144C68.4122 10.948 68.0749 9.53729 68.0749 7.91195C68.0749 6.28662 68.4122 4.89128 69.0869 3.72595C69.7616 2.56062 70.6662 1.65595 71.8009 1.01195C72.9662 0.367951 74.2542 0.045952 75.6649 0.045952C77.1062 0.045952 78.3789 0.367951 79.4829 1.01195C80.6176 1.65595 81.5222 2.56062 82.1969 3.72595C82.8716 4.89128 83.2089 6.28662 83.2089 7.91195C83.2089 9.53729 82.8716 10.948 82.1969 12.144C81.5222 13.3093 80.6176 14.214 79.4829 14.858C78.3482 15.502 77.0756 15.824 75.6649 15.824ZM75.6189 12.42C76.3242 12.42 76.9529 12.2513 77.5049 11.914C78.0876 11.5766 78.5476 11.086 78.8849 10.442C79.2222 9.76729 79.3909 8.92395 79.3909 7.91195C79.3909 6.89995 79.2222 6.05662 78.8849 5.38195C78.5476 4.70728 78.0876 4.20128 77.5049 3.86395C76.9529 3.52662 76.3396 3.35795 75.6649 3.35795C74.9902 3.35795 74.3616 3.52662 73.7789 3.86395C73.1962 4.20128 72.7209 4.70728 72.3529 5.38195C72.0156 6.05662 71.8469 6.89995 71.8469 7.91195C71.8469 8.89329 72.0156 9.72129 72.3529 10.396C72.7209 11.0706 73.1962 11.5766 73.7789 11.914C74.3616 12.2513 74.9749 12.42 75.6189 12.42Z" fill="#121212"/>
</svg>
