<svg width="18" height="18" viewBox="0 0 18 18" fill="none" xmlns="http://www.w3.org/2000/svg">
<g clip-path="url(#clip0_2022_634)">
<mask id="mask0_2022_634" style="mask-type:luminance" maskUnits="userSpaceOnUse" x="0" y="0" width="18" height="18">
<path d="M17.1817 0H0V17.1817H17.1817V0Z" fill="white"/>
</mask>
<g mask="url(#mask0_2022_634)">
<path d="M7.72592 0.526503C8.0889 -0.175501 9.09283 -0.175501 9.4558 0.526503L11.7672 4.99683C11.8598 5.17596 12.0057 5.32192 12.1849 5.41455L16.6552 7.72592C17.3573 8.0889 17.3573 9.09283 16.6552 9.4558L12.1849 11.7672C12.0057 11.8598 11.8598 12.0057 11.7672 12.1849L9.4558 16.6552C9.09283 17.3573 8.0889 17.3573 7.72592 16.6552L5.41455 12.1849C5.32192 12.0057 5.17596 11.8598 4.99683 11.7672L0.526503 9.4558C-0.175501 9.09283 -0.175501 8.0889 0.526503 7.72592L4.99683 5.41455C5.17596 5.32192 5.32192 5.17596 5.41455 4.99683L7.72592 0.526503Z" fill="#7551DC"/>
</g>
</g>
<defs>
<clipPath id="clip0_2022_634">
<rect width="17.1817" height="17.1817" fill="white"/>
</clipPath>
</defs>
</svg>
