<svg width="224" height="319" viewBox="0 0 224 319" fill="none" xmlns="http://www.w3.org/2000/svg">
<rect width="224" height="318.818" rx="19.6183" fill="white"/>
<path d="M22.4398 42.0909V28.7909H27.4558C28.8365 28.7909 29.8815 29.1139 30.5908 29.7599C31.3002 30.4059 31.6548 31.2166 31.6548 32.1919C31.6548 33.0406 31.4268 33.7182 30.9708 34.2249C30.5148 34.7189 29.9638 35.0546 29.3178 35.2319C29.8245 35.3332 30.2742 35.5359 30.6668 35.8399C31.0722 36.1439 31.3888 36.5239 31.6168 36.9799C31.8448 37.4359 31.9588 37.9299 31.9588 38.4619C31.9588 39.1459 31.7878 39.7666 31.4458 40.3239C31.1165 40.8686 30.6288 41.2992 29.9828 41.6159C29.3368 41.9326 28.5452 42.0909 27.6078 42.0909H22.4398ZM24.4538 34.4909H27.2088C27.9815 34.4909 28.5705 34.3136 28.9758 33.9589C29.3812 33.5916 29.5838 33.0912 29.5838 32.4579C29.5838 31.8372 29.3812 31.3432 28.9758 30.9759C28.5832 30.6086 27.9815 30.4249 27.1708 30.4249H24.4538V34.4909ZM24.4538 40.4379H27.3418C28.1525 40.4379 28.7795 40.2479 29.2228 39.8679C29.6788 39.4879 29.9068 38.9559 29.9068 38.2719C29.9068 37.5879 29.6725 37.0496 29.2038 36.6569C28.7352 36.2516 28.1018 36.0489 27.3038 36.0489H24.4538V40.4379ZM37.5484 42.3189C36.6237 42.3189 35.8004 42.1162 35.0784 41.7109C34.369 41.2929 33.8117 40.7166 33.4064 39.9819C33.001 39.2472 32.7984 38.3922 32.7984 37.4169C32.7984 36.4289 32.9947 35.5612 33.3874 34.8139C33.7927 34.0666 34.35 33.4839 35.0594 33.0659C35.7814 32.6479 36.6174 32.4389 37.5674 32.4389C38.4921 32.4389 39.2964 32.6479 39.9804 33.0659C40.6644 33.4712 41.1964 34.0159 41.5764 34.6999C41.9564 35.3839 42.1464 36.1376 42.1464 36.9609C42.1464 37.0876 42.14 37.2269 42.1274 37.3789C42.1274 37.5182 42.1211 37.6766 42.1084 37.8539H34.7744C34.8377 38.7659 35.1354 39.4626 35.6674 39.9439C36.212 40.4126 36.8391 40.6469 37.5484 40.6469C38.1184 40.6469 38.5934 40.5202 38.9734 40.2669C39.3661 40.0009 39.6574 39.6462 39.8474 39.2029H41.8614C41.6081 40.0896 41.1014 40.8306 40.3414 41.4259C39.5941 42.0212 38.6631 42.3189 37.5484 42.3189ZM37.5484 34.0919C36.877 34.0919 36.2817 34.2946 35.7624 34.6999C35.243 35.0926 34.9264 35.6879 34.8124 36.4859H40.1324C40.0944 35.7512 39.8347 35.1686 39.3534 34.7379C38.872 34.3072 38.2704 34.0919 37.5484 34.0919ZM47.0481 42.3189C45.8574 42.3189 44.8758 42.0276 44.1031 41.4449C43.3304 40.8622 42.8871 40.0896 42.7731 39.1269H44.8061C44.9074 39.5576 45.1481 39.9312 45.5281 40.2479C45.9081 40.5519 46.4084 40.7039 47.0291 40.7039C47.6371 40.7039 48.0804 40.5772 48.3591 40.3239C48.6378 40.0706 48.7771 39.7792 48.7771 39.4499C48.7771 38.9686 48.5808 38.6456 48.1881 38.4809C47.8081 38.3036 47.2761 38.1452 46.5921 38.0059C46.0601 37.8919 45.5281 37.7399 44.9961 37.5499C44.4768 37.3599 44.0398 37.0939 43.6851 36.7519C43.3431 36.3972 43.1721 35.9222 43.1721 35.3269C43.1721 34.5036 43.4888 33.8196 44.1221 33.2749C44.7554 32.7176 45.6421 32.4389 46.7821 32.4389C47.8334 32.4389 48.6821 32.6922 49.3281 33.1989C49.9868 33.7056 50.3731 34.4212 50.4871 35.3459H48.5491C48.4858 34.9406 48.2958 34.6239 47.9791 34.3959C47.6751 34.1679 47.2634 34.0539 46.7441 34.0539C46.2374 34.0539 45.8448 34.1616 45.5661 34.3769C45.2874 34.5796 45.1481 34.8456 45.1481 35.1749C45.1481 35.5042 45.3381 35.7639 45.7181 35.9539C46.1108 36.1439 46.6238 36.3149 47.2571 36.4669C47.8904 36.6062 48.4731 36.7709 49.0051 36.9609C49.5498 37.1382 49.9868 37.4042 50.3161 37.7589C50.6454 38.1136 50.8101 38.6329 50.8101 39.3169C50.8228 40.1782 50.4871 40.8939 49.8031 41.4639C49.1318 42.0339 48.2134 42.3189 47.0481 42.3189ZM55.6582 42.0909C54.7335 42.0909 53.9989 41.8692 53.4542 41.4259C52.9095 40.9699 52.6372 40.1656 52.6372 39.0129V34.3579H51.0222V32.6669H52.6372L52.8842 30.2729H54.6512V32.6669H57.3112V34.3579H54.6512V39.0129C54.6512 39.5322 54.7589 39.8932 54.9742 40.0959C55.2022 40.2859 55.5885 40.3809 56.1332 40.3809H57.2162V42.0909H55.6582ZM65.467 42.0909V30.4249H61.534V28.7909H71.395V30.4249H67.481V42.0909H65.467ZM73.3937 30.8809C73.0137 30.8809 72.697 30.7669 72.4437 30.5389C72.203 30.2982 72.0827 30.0006 72.0827 29.6459C72.0827 29.2912 72.203 28.9999 72.4437 28.7719C72.697 28.5312 73.0137 28.4109 73.3937 28.4109C73.7737 28.4109 74.084 28.5312 74.3247 28.7719C74.578 28.9999 74.7047 29.2912 74.7047 29.6459C74.7047 30.0006 74.578 30.2982 74.3247 30.5389C74.084 30.7669 73.7737 30.8809 73.3937 30.8809ZM72.3867 42.0909V32.6669H74.4007V42.0909H72.3867ZM76.1093 42.0909V32.6669H77.8953L78.0663 33.9969C78.3703 33.5156 78.7693 33.1356 79.2633 32.8569C79.77 32.5782 80.3527 32.4389 81.0113 32.4389C82.506 32.4389 83.5447 33.0279 84.1273 34.2059C84.4693 33.6612 84.9253 33.2306 85.4953 32.9139C86.078 32.5972 86.705 32.4389 87.3763 32.4389C88.5543 32.4389 89.479 32.7936 90.1503 33.5029C90.8217 34.2122 91.1573 35.2699 91.1573 36.6759V42.0909H89.1433V36.8849C89.1433 35.0609 88.4467 34.1489 87.0533 34.1489C86.344 34.1489 85.7613 34.4149 85.3053 34.9469C84.862 35.4789 84.6403 36.2389 84.6403 37.2269V42.0909H82.6263V36.8849C82.6263 35.0609 81.9233 34.1489 80.5173 34.1489C79.8207 34.1489 79.2443 34.4149 78.7883 34.9469C78.345 35.4789 78.1233 36.2389 78.1233 37.2269V42.0909H76.1093ZM96.9716 42.3189C96.047 42.3189 95.2236 42.1162 94.5016 41.7109C93.7923 41.2929 93.235 40.7166 92.8296 39.9819C92.4243 39.2472 92.2216 38.3922 92.2216 37.4169C92.2216 36.4289 92.418 35.5612 92.8106 34.8139C93.216 34.0666 93.7733 33.4839 94.4826 33.0659C95.2046 32.6479 96.0406 32.4389 96.9906 32.4389C97.9153 32.4389 98.7196 32.6479 99.4036 33.0659C100.088 33.4712 100.62 34.0159 101 34.6999C101.38 35.3839 101.57 36.1376 101.57 36.9609C101.57 37.0876 101.563 37.2269 101.551 37.3789C101.551 37.5182 101.544 37.6766 101.532 37.8539H94.1976C94.261 38.7659 94.5586 39.4626 95.0906 39.9439C95.6353 40.4126 96.2623 40.6469 96.9716 40.6469C97.5416 40.6469 98.0166 40.5202 98.3966 40.2669C98.7893 40.0009 99.0806 39.6462 99.2706 39.2029H101.285C101.031 40.0896 100.525 40.8306 99.7646 41.4259C99.0173 42.0212 98.0863 42.3189 96.9716 42.3189ZM96.9716 34.0919C96.3003 34.0919 95.705 34.2946 95.1856 34.6999C94.6663 35.0926 94.3496 35.6879 94.2356 36.4859H99.5556C99.5176 35.7512 99.258 35.1686 98.7766 34.7379C98.2953 34.3072 97.6936 34.0919 96.9716 34.0919ZM110.498 42.0909C109.574 42.0909 108.839 41.8692 108.294 41.4259C107.75 40.9699 107.477 40.1656 107.477 39.0129V34.3579H105.862V32.6669H107.477L107.724 30.2729H109.491V32.6669H112.151V34.3579H109.491V39.0129C109.491 39.5322 109.599 39.8932 109.814 40.0959C110.042 40.2859 110.429 40.3809 110.973 40.3809H112.056V42.0909H110.498ZM117.445 42.3189C116.546 42.3189 115.735 42.1162 115.013 41.7109C114.304 41.2929 113.74 40.7166 113.322 39.9819C112.904 39.2346 112.695 38.3669 112.695 37.3789C112.695 36.3909 112.904 35.5296 113.322 34.7949C113.753 34.0476 114.329 33.4712 115.051 33.0659C115.773 32.6479 116.577 32.4389 117.464 32.4389C118.363 32.4389 119.168 32.6479 119.877 33.0659C120.599 33.4712 121.169 34.0476 121.587 34.7949C122.018 35.5296 122.233 36.3909 122.233 37.3789C122.233 38.3669 122.018 39.2346 121.587 39.9819C121.169 40.7166 120.599 41.2929 119.877 41.7109C119.155 42.1162 118.344 42.3189 117.445 42.3189ZM117.445 40.5899C117.926 40.5899 118.37 40.4696 118.775 40.2289C119.193 39.9882 119.529 39.6336 119.782 39.1649C120.035 38.6836 120.162 38.0882 120.162 37.3789C120.162 36.6696 120.035 36.0806 119.782 35.6119C119.541 35.1306 119.212 34.7696 118.794 34.5289C118.389 34.2882 117.945 34.1679 117.464 34.1679C116.983 34.1679 116.533 34.2882 116.115 34.5289C115.71 34.7696 115.38 35.1306 115.127 35.6119C114.874 36.0806 114.747 36.6696 114.747 37.3789C114.747 38.0882 114.874 38.6836 115.127 39.1649C115.38 39.6336 115.71 39.9882 116.115 40.2289C116.52 40.4696 116.964 40.5899 117.445 40.5899ZM127.374 42.0909V28.7909H132.029C133.068 28.7909 133.929 28.9682 134.613 29.3229C135.297 29.6649 135.804 30.1399 136.133 30.7479C136.475 31.3432 136.646 32.0209 136.646 32.7809C136.646 33.5029 136.481 34.1679 136.152 34.7759C135.835 35.3712 135.335 35.8462 134.651 36.2009C133.967 36.5556 133.093 36.7329 132.029 36.7329H129.388V42.0909H127.374ZM129.388 35.0799H131.934C132.884 35.0799 133.562 34.8772 133.967 34.4719C134.385 34.0539 134.594 33.4902 134.594 32.7809C134.594 32.0462 134.385 31.4762 133.967 31.0709C133.562 30.6529 132.884 30.4439 131.934 30.4439H129.388V35.0799ZM141.499 42.3189C140.6 42.3189 139.789 42.1162 139.067 41.7109C138.358 41.2929 137.794 40.7166 137.376 39.9819C136.958 39.2346 136.749 38.3669 136.749 37.3789C136.749 36.3909 136.958 35.5296 137.376 34.7949C137.807 34.0476 138.383 33.4712 139.105 33.0659C139.827 32.6479 140.631 32.4389 141.518 32.4389C142.417 32.4389 143.222 32.6479 143.931 33.0659C144.653 33.4712 145.223 34.0476 145.641 34.7949C146.072 35.5296 146.287 36.3909 146.287 37.3789C146.287 38.3669 146.072 39.2346 145.641 39.9819C145.223 40.7166 144.653 41.2929 143.931 41.7109C143.209 42.1162 142.398 42.3189 141.499 42.3189ZM141.499 40.5899C141.98 40.5899 142.424 40.4696 142.829 40.2289C143.247 39.9882 143.583 39.6336 143.836 39.1649C144.089 38.6836 144.216 38.0882 144.216 37.3789C144.216 36.6696 144.089 36.0806 143.836 35.6119C143.595 35.1306 143.266 34.7696 142.848 34.5289C142.443 34.2882 141.999 34.1679 141.518 34.1679C141.037 34.1679 140.587 34.2882 140.169 34.5289C139.764 34.7696 139.434 35.1306 139.181 35.6119C138.928 36.0806 138.801 36.6696 138.801 37.3789C138.801 38.0882 138.928 38.6836 139.181 39.1649C139.434 39.6336 139.764 39.9882 140.169 40.2289C140.574 40.4696 141.018 40.5899 141.499 40.5899ZM151.277 42.3189C150.087 42.3189 149.105 42.0276 148.332 41.4449C147.56 40.8622 147.116 40.0896 147.002 39.1269H149.035C149.137 39.5576 149.377 39.9312 149.757 40.2479C150.137 40.5519 150.638 40.7039 151.258 40.7039C151.866 40.7039 152.31 40.5772 152.588 40.3239C152.867 40.0706 153.006 39.7792 153.006 39.4499C153.006 38.9686 152.81 38.6456 152.417 38.4809C152.037 38.3036 151.505 38.1452 150.821 38.0059C150.289 37.8919 149.757 37.7399 149.225 37.5499C148.706 37.3599 148.269 37.0939 147.914 36.7519C147.572 36.3972 147.401 35.9222 147.401 35.3269C147.401 34.5036 147.718 33.8196 148.351 33.2749C148.985 32.7176 149.871 32.4389 151.011 32.4389C152.063 32.4389 152.911 32.6922 153.557 33.1989C154.216 33.7056 154.602 34.4212 154.716 35.3459H152.778C152.715 34.9406 152.525 34.6239 152.208 34.3959C151.904 34.1679 151.493 34.0539 150.973 34.0539C150.467 34.0539 150.074 34.1616 149.795 34.3769C149.517 34.5796 149.377 34.8456 149.377 35.1749C149.377 35.5042 149.567 35.7639 149.947 35.9539C150.34 36.1439 150.853 36.3149 151.486 36.4669C152.12 36.6062 152.702 36.7709 153.234 36.9609C153.779 37.1382 154.216 37.4042 154.545 37.7589C154.875 38.1136 155.039 38.6329 155.039 39.3169C155.052 40.1782 154.716 40.8939 154.032 41.4639C153.361 42.0339 152.443 42.3189 151.277 42.3189ZM159.887 42.0909C158.963 42.0909 158.228 41.8692 157.683 41.4259C157.139 40.9699 156.866 40.1656 156.866 39.0129V34.3579H155.251V32.6669H156.866L157.113 30.2729H158.88V32.6669H161.54V34.3579H158.88V39.0129C158.88 39.5322 158.988 39.8932 159.203 40.0959C159.431 40.2859 159.818 40.3809 160.362 40.3809H161.445V42.0909H159.887Z" fill="#091E42"/>
<path d="M21.0908 64.1515H202.909" stroke="#DCDEEC" stroke-width="0.878788"/>
<rect x="21.0908" y="78.2121" width="47.5758" height="28.0303" rx="14.0152" fill="#FFE5E7"/>
<path d="M35.5031 97.7273L32.8598 91.0204V97.7273H30.9194V87.6317H33.4784L36.403 95.112L39.3417 87.6317H41.9007V97.7273H39.9604V90.9641L37.2888 97.7273H35.5031ZM47.1135 97.8679C44.9341 97.8679 43.3031 96.1525 43.3031 93.9731C43.3031 91.7796 44.9341 90.0783 47.1135 90.0783C49.2929 90.0783 50.9239 91.7796 50.9239 93.9731C50.9239 96.1525 49.2929 97.8679 47.1135 97.8679ZM47.1135 96.1384C48.0837 96.1384 48.9132 95.3651 48.9132 93.9731C48.9132 92.5811 48.0837 91.8218 47.1135 91.8218C46.1433 91.8218 45.3137 92.5811 45.3137 93.9731C45.3137 95.3651 46.1433 96.1384 47.1135 96.1384ZM54.1255 93.6356V97.7273H52.1711V90.2189H53.9709V91.2875C54.5192 90.5423 55.2926 90.0783 56.2768 90.0783C57.7813 90.0783 58.8218 91.0625 58.8218 92.8764V97.7273H56.8814V93.5372C56.8814 92.4264 56.4455 91.8077 55.5597 91.8077C54.7864 91.8077 54.1255 92.4264 54.1255 93.6356Z" fill="#DC5172"/>
<path d="M94.4681 97.7273H93.4276V88.5738H90.039V87.6317H97.8567V88.5738H94.4681V97.7273ZM103.309 94.7324V90.3173H104.279V97.7273H103.365V96.3915C102.986 97.2492 102.086 97.8679 101.003 97.8679C99.4987 97.8679 98.5004 97.0102 98.5004 95.1401V90.3173H99.4847V94.9292C99.4847 96.4337 100.23 97.0102 101.27 97.0102C102.451 97.0102 103.309 96.0541 103.309 94.7324ZM109.322 97.8679C107.241 97.8679 105.863 96.3071 105.863 93.959C105.863 91.7937 107.297 90.1767 109.265 90.1767C111.375 90.1767 112.753 91.8781 112.584 94.2543H106.847C106.931 96.0119 107.859 97.0945 109.308 97.0945C110.545 97.0945 111.403 96.4056 111.642 95.2245H112.612C112.274 96.8696 111.023 97.8679 109.322 97.8679ZM109.251 90.936C107.916 90.936 106.974 91.9624 106.847 93.5794H111.557C111.473 91.9202 110.615 90.936 109.251 90.936Z" fill="#8F8F8F"/>
<path d="M143.721 97.7273L141.359 89.0659L138.982 97.7273H137.886L135.228 87.6317H136.255L138.434 96.1947L140.796 87.6317H141.921L144.255 96.2228L146.449 87.6317H147.489L144.832 97.7273H143.721ZM151.172 97.8679C149.091 97.8679 147.713 96.3071 147.713 93.959C147.713 91.7937 149.147 90.1767 151.116 90.1767C153.225 90.1767 154.603 91.8781 154.434 94.2543H148.697C148.782 96.0119 149.71 97.0945 151.158 97.0945C152.395 97.0945 153.253 96.4056 153.492 95.2245H154.462C154.125 96.8696 152.873 97.8679 151.172 97.8679ZM151.102 90.936C149.766 90.936 148.824 91.9624 148.697 93.5794H153.408C153.323 91.9202 152.466 90.936 151.102 90.936ZM155.375 94.0153C155.375 91.7374 156.64 90.1767 158.637 90.1767C159.748 90.1767 160.69 90.8094 161.182 91.864V87.6317H162.166V97.7273H161.252V96.1665C160.732 97.2492 159.776 97.8679 158.637 97.8679C156.64 97.8679 155.375 96.2931 155.375 94.0153ZM156.373 94.0153C156.373 95.8994 157.329 97.0102 158.778 97.0102C160.212 97.0102 161.196 95.8431 161.196 93.9871C161.196 92.1171 160.184 91.0344 158.778 91.0344C157.329 91.0344 156.373 92.1311 156.373 94.0153Z" fill="#8F8F8F"/>
<path d="M189.65 97.7273H188.609V88.5738H185.221V87.6317H193.038V88.5738H189.65V97.7273ZM195.368 93.4107V97.7273H194.384V87.6317H195.368V91.6812C195.832 90.7954 196.676 90.1767 197.744 90.1767C199.291 90.1767 200.289 91.161 200.289 92.9185V97.7273H199.305V93.256C199.305 91.8359 198.658 91.0344 197.449 91.0344C196.296 91.0344 195.368 92.0327 195.368 93.4107ZM207.1 94.7324V90.3173H208.07V97.7273H207.156V96.3915C206.777 97.2492 205.877 97.8679 204.794 97.8679C203.29 97.8679 202.291 97.0102 202.291 95.1401V90.3173H203.276V94.9292C203.276 96.4337 204.021 97.0102 205.061 97.0102C206.242 97.0102 207.1 96.0541 207.1 94.7324Z" fill="#8F8F8F"/>
<path fill-rule="evenodd" clip-rule="evenodd" d="M32.0757 219.606C38.1424 219.606 43.0605 224.524 43.0605 230.591L43.0605 251.682C43.0605 257.749 38.1424 262.667 32.0757 262.667C26.0089 262.667 21.0908 257.749 21.0908 251.682L21.0908 230.591C21.0908 224.524 26.0089 219.606 32.0757 219.606Z" fill="#7551DC"/>
<path fill-rule="evenodd" clip-rule="evenodd" d="M54.3481 204.667C60.4149 204.667 65.333 209.585 65.333 215.652L65.333 251.682C65.333 257.749 60.4149 262.667 54.3481 262.667C48.2814 262.667 43.3633 257.749 43.3633 251.682L43.3633 215.652C43.3633 209.585 48.2814 204.667 54.3481 204.667Z" fill="#7551DC"/>
<path fill-rule="evenodd" clip-rule="evenodd" d="M76.9751 151.388C83.0416 151.335 88.0031 156.209 88.0567 162.276L88.4923 251.488C88.546 257.554 83.6716 262.516 77.6051 262.569C71.5386 262.623 66.5771 257.749 66.5234 251.682L66.0879 162.47C66.0342 156.404 70.9086 151.442 76.9751 151.388Z" fill="#7551DC"/>
<path fill-rule="evenodd" clip-rule="evenodd" d="M100.231 174.788C106.298 174.788 111.216 179.706 111.216 185.773L111.216 251.682C111.216 257.749 106.298 262.667 100.231 262.667C94.1642 262.667 89.2461 257.749 89.2461 251.682L89.2461 185.773C89.2461 179.706 94.1642 174.788 100.231 174.788Z" fill="#7551DC"/>
<path fill-rule="evenodd" clip-rule="evenodd" d="M122.504 198.515C128.571 198.515 133.489 203.433 133.489 209.5L133.489 251.682C133.489 257.749 128.571 262.667 122.504 262.667C116.438 262.667 111.52 257.749 111.52 251.682L111.52 209.5C111.52 203.433 116.438 198.515 122.504 198.515Z" fill="#7551DC"/>
<path fill-rule="evenodd" clip-rule="evenodd" d="M144.776 185.189C150.842 185.109 155.825 189.961 155.906 196.027L156.641 251.391C156.722 257.457 151.869 262.44 145.803 262.521C139.737 262.601 134.754 257.749 134.673 251.683L133.938 196.319C133.857 190.253 138.71 185.27 144.776 185.189Z" fill="#7551DC"/>
<path fill-rule="evenodd" clip-rule="evenodd" d="M168.074 155.295C174.14 155.206 179.13 160.051 179.219 166.117L180.474 251.36C180.564 257.426 175.718 262.416 169.652 262.505C163.586 262.594 158.596 257.749 158.507 251.683L157.252 166.441C157.162 160.374 162.007 155.384 168.074 155.295Z" fill="#7551DC"/>
<path fill-rule="evenodd" clip-rule="evenodd" d="M191.924 191.485C197.991 191.485 202.909 196.403 202.909 202.47L202.909 251.682C202.909 257.749 197.991 262.667 191.924 262.667C185.857 262.667 180.939 257.749 180.939 251.682L180.939 202.47C180.939 196.403 185.858 191.485 191.924 191.485Z" fill="#7551DC"/>
<rect x="66" y="119.818" width="98.5758" height="28.0303" rx="8.78788" fill="#DAFFE9"/>
<path d="M80.4881 139.333L77.8447 132.626V139.333H75.9043V129.238H78.4634L81.388 136.718L84.3266 129.238H86.8857V139.333H84.9453V132.57L82.2738 139.333H80.4881ZM92.0984 139.474C89.919 139.474 88.288 137.759 88.288 135.579C88.288 133.386 89.919 131.684 92.0984 131.684C94.2778 131.684 95.9088 133.386 95.9088 135.579C95.9088 137.759 94.2778 139.474 92.0984 139.474ZM92.0984 137.744C93.0686 137.744 93.8982 136.971 93.8982 135.579C93.8982 134.187 93.0686 133.428 92.0984 133.428C91.1282 133.428 90.2987 134.187 90.2987 135.579C90.2987 136.971 91.1282 137.744 92.0984 137.744ZM103.497 136.929C103.497 138.504 102.302 139.474 100.165 139.474C98.0278 139.474 96.8327 138.448 96.678 136.774H98.5481C98.5621 137.548 99.223 138.04 100.193 138.04C100.952 138.04 101.529 137.801 101.529 137.266C101.529 136.788 101.22 136.592 100.502 136.451L99.1527 136.198C97.8028 135.959 96.9873 135.214 96.9873 134.047C96.9873 132.655 98.1825 131.684 100.053 131.684C101.937 131.684 103.23 132.683 103.371 134.3H101.501C101.43 133.568 100.882 133.119 100.053 133.119C99.3354 133.119 98.8574 133.386 98.8574 133.864C98.8574 134.314 99.1667 134.496 99.8416 134.623L101.29 134.89C102.752 135.171 103.497 135.846 103.497 136.929ZM109.349 137.435V139.136C108.871 139.376 108.421 139.474 107.844 139.474C106.298 139.474 105.327 138.588 105.327 136.901V133.498H103.809V131.825H105.327V129.603H107.268V131.825H109.419V133.498H107.268V136.451C107.268 137.323 107.662 137.674 108.365 137.674C108.73 137.674 109.068 137.59 109.349 137.435ZM120.469 139.333L119.709 137.168H115.787L115.013 139.333H112.862L116.658 129.238H118.992L122.761 139.333H120.469ZM117.769 131.572L116.391 135.467H119.119L117.769 131.572ZM126.56 139.474C124.394 139.474 122.904 137.871 122.904 135.579C122.904 133.329 124.451 131.684 126.56 131.684C128.514 131.684 129.962 133.006 130.201 135.031H128.149C128.05 134.032 127.446 133.414 126.56 133.414C125.547 133.414 124.901 134.243 124.901 135.579C124.901 136.929 125.533 137.744 126.56 137.744C127.46 137.744 128.036 137.154 128.149 136.128H130.201C129.976 138.194 128.57 139.474 126.56 139.474ZM136.124 137.435V139.136C135.646 139.376 135.196 139.474 134.62 139.474C133.073 139.474 132.103 138.588 132.103 136.901V133.498H130.584V131.825H132.103V129.603H134.043V131.825H136.195V133.498H134.043V136.451C134.043 137.323 134.437 137.674 135.14 137.674C135.506 137.674 135.843 137.59 136.124 137.435ZM139.652 130.081C139.652 130.742 139.118 131.234 138.344 131.234C137.585 131.234 137.051 130.742 137.051 130.081C137.051 129.392 137.585 128.9 138.344 128.9C139.118 128.9 139.652 129.392 139.652 130.081ZM139.342 139.333H137.388V131.825H139.342V139.333ZM147.845 131.825L145.089 139.333H142.952L140.182 131.825H142.291L144.077 137.112L145.876 131.825H147.845ZM151.704 139.46C149.454 139.46 147.949 137.899 147.949 135.551C147.949 133.315 149.51 131.684 151.676 131.684C154.052 131.684 155.627 133.611 155.275 136.057H149.946C150.073 137.28 150.663 137.955 151.661 137.955C152.519 137.955 153.096 137.534 153.321 136.788H155.261C154.839 138.49 153.532 139.46 151.704 139.46ZM151.633 133.119C150.719 133.119 150.143 133.709 149.974 134.82H153.208C153.152 133.779 152.561 133.119 151.633 133.119Z" fill="#0E803B"/>
<path d="M24.1842 292.727H23.214V284.066H21.3439V283.222H24.1842V292.727ZM31.8987 291.856V292.727H26.162V292.165L29.1991 288.734C30.352 287.426 30.7739 286.723 30.7739 285.809C30.7739 284.741 29.9865 283.953 28.8757 283.953C27.7227 283.953 26.9072 284.755 26.9072 285.936H25.9511C25.9511 284.277 27.1743 283.082 28.9179 283.082C30.577 283.082 31.8003 284.193 31.8003 285.725C31.8003 286.752 31.3925 287.525 29.9302 289.156L27.6102 291.856H31.8987ZM38.1942 292.727V291.377C37.7584 292.305 36.8585 292.868 35.7055 292.868C34.1729 292.868 33.1746 292.01 33.1746 290.674C33.1746 289.226 34.3276 288.467 36.5773 288.467C37.0272 288.467 37.3647 288.495 38.0958 288.551V287.933C38.0958 286.695 37.435 285.964 36.3101 285.964C35.1009 285.964 34.3416 286.709 34.3276 287.919H33.4277C33.4699 286.273 34.6088 285.177 36.296 285.177C38.0255 285.177 39.0379 286.189 39.0379 287.905V292.727H38.1942ZM34.1167 290.646C34.1167 291.546 34.8056 292.151 35.8461 292.151C37.224 292.151 38.0958 291.251 38.0958 289.859V289.198C37.4631 289.142 37.0272 289.128 36.6194 289.128C34.9322 289.128 34.1167 289.62 34.1167 290.646Z" fill="#8F8F8F"/>
<path d="M50.3438 292.854C48.4597 292.854 47.1661 291.743 47.1239 290.098H48.08C48.1363 291.293 49.0221 292.052 50.3438 292.052C51.7077 292.052 52.5373 291.307 52.5373 290.112C52.5373 288.973 51.6093 288.242 50.1469 288.242H49.2049V287.426H50.1188C51.2859 287.426 52.1014 286.681 52.1014 285.613C52.1014 284.586 51.3421 283.883 50.2594 283.883C49.1346 283.883 48.3894 284.586 48.3331 285.683H47.3911C47.4333 284.193 48.6706 283.082 50.2876 283.082C51.9748 283.082 53.1137 284.108 53.1137 285.57C53.1137 286.555 52.5232 287.342 51.4827 287.778C52.7903 288.101 53.5496 288.945 53.5496 290.098C53.5496 291.729 52.256 292.854 50.3438 292.854ZM60.0212 292.727V291.377C59.5854 292.305 58.6855 292.868 57.5325 292.868C55.9999 292.868 55.0016 292.01 55.0016 290.674C55.0016 289.226 56.1546 288.467 58.4043 288.467C58.8542 288.467 59.1917 288.495 59.9228 288.551V287.933C59.9228 286.695 59.262 285.964 58.1371 285.964C56.9279 285.964 56.1686 286.709 56.1546 287.919H55.2547C55.2969 286.273 56.4358 285.177 58.123 285.177C59.8525 285.177 60.8649 286.189 60.8649 287.905V292.727H60.0212ZM55.9437 290.646C55.9437 291.546 56.6326 292.151 57.6731 292.151C59.051 292.151 59.9228 291.251 59.9228 289.859V289.198C59.2901 289.142 58.8542 289.128 58.4464 289.128C56.7592 289.128 55.9437 289.62 55.9437 290.646Z" fill="#8F8F8F"/>
<path d="M72.4348 292.854C70.5367 292.854 69.1306 291.49 69.1306 289.746C69.1306 288.509 69.6368 287.764 70.382 286.836L73.2504 283.222H74.3611L71.5068 286.836C71.9005 286.695 72.2802 286.625 72.6317 286.625C74.4033 286.625 75.7531 287.848 75.7531 289.718C75.7531 291.49 74.3471 292.854 72.4348 292.854ZM72.4489 292.038C73.7565 292.038 74.7408 291.068 74.7408 289.746C74.7408 288.326 73.7565 287.384 72.4489 287.384C71.1272 287.384 70.143 288.2 70.143 289.718C70.143 291.068 71.1272 292.038 72.4489 292.038ZM81.8965 292.727V291.377C81.4606 292.305 80.5608 292.868 79.4078 292.868C77.8752 292.868 76.8769 292.01 76.8769 290.674C76.8769 289.226 78.0299 288.467 80.2796 288.467C80.7295 288.467 81.067 288.495 81.7981 288.551V287.933C81.7981 286.695 81.1373 285.964 80.0124 285.964C78.8032 285.964 78.0439 286.709 78.0299 287.919H77.13C77.1722 286.273 78.3111 285.177 79.9983 285.177C81.7278 285.177 82.7402 286.189 82.7402 287.905V292.727H81.8965ZM77.819 290.646C77.819 291.546 78.5079 292.151 79.5484 292.151C80.9263 292.151 81.7981 291.251 81.7981 289.859V289.198C81.1654 289.142 80.7295 289.128 80.3217 289.128C78.6345 289.128 77.819 289.62 77.819 290.646Z" fill="#8F8F8F"/>
<path d="M94.7087 283.096C96.6068 283.096 98.0129 284.46 98.0129 286.203C98.0129 287.37 97.5489 288.101 96.7475 289.114L93.8931 292.727H92.7683L95.6226 289.1C95.243 289.254 94.8493 289.311 94.4978 289.311C92.7261 289.311 91.3904 288.087 91.3904 286.231C91.3904 284.46 92.7964 283.096 94.7087 283.096ZM94.6946 283.911C93.3588 283.911 92.4027 284.881 92.4027 286.203C92.4027 287.623 93.3588 288.565 94.6946 288.565C96.0022 288.565 97.0005 287.75 97.0005 286.231C97.0005 284.881 96.0022 283.911 94.6946 283.911ZM104.156 292.727V291.377C103.72 292.305 102.821 292.868 101.668 292.868C100.135 292.868 99.1367 292.01 99.1367 290.674C99.1367 289.226 100.29 288.467 102.539 288.467C102.989 288.467 103.327 288.495 104.058 288.551V287.933C104.058 286.695 103.397 285.964 102.272 285.964C101.063 285.964 100.304 286.709 100.29 287.919H99.3897C99.4319 286.273 100.571 285.177 102.258 285.177C103.988 285.177 105 286.189 105 287.905V292.727H104.156ZM100.079 290.646C100.079 291.546 100.768 292.151 101.808 292.151C103.186 292.151 104.058 291.251 104.058 289.859V289.198C103.425 289.142 102.989 289.128 102.582 289.128C100.894 289.128 100.079 289.62 100.079 290.646Z" fill="#8F8F8F"/>
<path d="M116.223 292.727H115.253V284.066H113.383V283.222H116.223V292.727ZM123.938 291.856V292.727H118.201V292.165L121.238 288.734C122.391 287.426 122.813 286.723 122.813 285.809C122.813 284.741 122.026 283.953 120.915 283.953C119.762 283.953 118.946 284.755 118.946 285.936H117.99C117.99 284.277 119.213 283.082 120.957 283.082C122.616 283.082 123.839 284.193 123.839 285.725C123.839 286.752 123.432 287.525 121.969 289.156L119.649 291.856H123.938ZM132.469 289.015C132.469 291.307 131.189 292.868 129.221 292.868C128.11 292.868 127.168 292.263 126.662 291.209V295.441H125.678V285.317H126.592V286.92C127.098 285.824 128.082 285.177 129.221 285.177C131.189 285.177 132.469 286.752 132.469 289.015ZM131.471 289.015C131.471 287.145 130.5 286.034 129.052 286.034C127.674 286.034 126.648 287.131 126.648 289.015C126.648 290.857 127.646 292.01 129.052 292.01C130.5 292.01 131.471 290.913 131.471 289.015Z" fill="#8F8F8F"/>
<path d="M143.383 292.854C141.499 292.854 140.205 291.743 140.163 290.098H141.119C141.175 291.293 142.061 292.052 143.383 292.052C144.747 292.052 145.576 291.307 145.576 290.112C145.576 288.973 144.648 288.242 143.186 288.242H142.244V287.426H143.158C144.325 287.426 145.14 286.681 145.14 285.613C145.14 284.586 144.381 283.883 143.298 283.883C142.174 283.883 141.428 284.586 141.372 285.683H140.43C140.472 284.193 141.71 283.082 143.327 283.082C145.014 283.082 146.153 284.108 146.153 285.57C146.153 286.555 145.562 287.342 144.522 287.778C145.829 288.101 146.589 288.945 146.589 290.098C146.589 291.729 145.295 292.854 143.383 292.854ZM155.296 289.015C155.296 291.307 154.016 292.868 152.048 292.868C150.937 292.868 149.995 292.263 149.489 291.209V295.441H148.505V285.317H149.419V286.92C149.925 285.824 150.909 285.177 152.048 285.177C154.016 285.177 155.296 286.752 155.296 289.015ZM154.298 289.015C154.298 287.145 153.327 286.034 151.879 286.034C150.501 286.034 149.475 287.131 149.475 289.015C149.475 290.857 150.473 292.01 151.879 292.01C153.327 292.01 154.298 290.913 154.298 289.015Z" fill="#8F8F8F"/>
<path d="M166.474 292.854C164.576 292.854 163.17 291.49 163.17 289.746C163.17 288.509 163.676 287.764 164.421 286.836L167.289 283.222H168.4L165.546 286.836C165.94 286.695 166.319 286.625 166.671 286.625C168.442 286.625 169.792 287.848 169.792 289.718C169.792 291.49 168.386 292.854 166.474 292.854ZM166.488 292.038C167.796 292.038 168.78 291.068 168.78 289.746C168.78 288.326 167.796 287.384 166.488 287.384C165.166 287.384 164.182 288.2 164.182 289.718C164.182 291.068 165.166 292.038 166.488 292.038ZM178.171 289.015C178.171 291.307 176.892 292.868 174.923 292.868C173.812 292.868 172.87 292.263 172.364 291.209V295.441H171.38V285.317H172.294V286.92C172.8 285.824 173.784 285.177 174.923 285.177C176.892 285.177 178.171 286.752 178.171 289.015ZM177.173 289.015C177.173 287.145 176.203 286.034 174.754 286.034C173.377 286.034 172.35 287.131 172.35 289.015C172.35 290.857 173.348 292.01 174.754 292.01C176.203 292.01 177.173 290.913 177.173 289.015Z" fill="#8F8F8F"/>
<path d="M189.748 283.096C191.646 283.096 193.052 284.46 193.052 286.203C193.052 287.37 192.588 288.101 191.787 289.114L188.932 292.727H187.807L190.662 289.1C190.282 289.254 189.888 289.311 189.537 289.311C187.765 289.311 186.429 288.087 186.429 286.231C186.429 284.46 187.835 283.096 189.748 283.096ZM189.734 283.911C188.398 283.911 187.442 284.881 187.442 286.203C187.442 287.623 188.398 288.565 189.734 288.565C191.041 288.565 192.04 287.75 192.04 286.231C192.04 284.881 191.041 283.911 189.734 283.911ZM201.431 289.015C201.431 291.307 200.151 292.868 198.183 292.868C197.072 292.868 196.13 292.263 195.624 291.209V295.441H194.64V285.317H195.554V286.92C196.06 285.824 197.044 285.177 198.183 285.177C200.151 285.177 201.431 286.752 201.431 289.015ZM200.433 289.015C200.433 287.145 199.463 286.034 198.014 286.034C196.636 286.034 195.61 287.131 195.61 289.015C195.61 290.857 196.608 292.01 198.014 292.01C199.463 292.01 200.433 290.913 200.433 289.015Z" fill="#8F8F8F"/>
</svg>
