<svg width="309" height="273" viewBox="0 0 309 273" fill="none" xmlns="http://www.w3.org/2000/svg">
<rect width="308.06" height="272.91" rx="16.8549" fill="white"/>
<path d="M19.2791 36.12V24.6935H23.5885C24.7747 24.6935 25.6725 24.971 26.2819 25.526C26.8914 26.081 27.1961 26.7775 27.1961 27.6154C27.1961 28.3445 27.0002 28.9267 26.6084 29.362C26.2166 29.7865 25.7433 30.0748 25.1883 30.2272C25.6236 30.3143 26.0099 30.4884 26.3472 30.7495C26.6955 31.0107 26.9675 31.3372 27.1634 31.729C27.3593 32.1207 27.4572 32.5451 27.4572 33.0022C27.4572 33.5899 27.3103 34.1231 27.0165 34.6019C26.7336 35.0699 26.3146 35.4399 25.7596 35.7119C25.2046 35.984 24.5244 36.12 23.7191 36.12H19.2791ZM21.0094 29.5906H23.3763C24.0402 29.5906 24.5462 29.4382 24.8944 29.1335C25.2427 28.8179 25.4168 28.3881 25.4168 27.8439C25.4168 27.3107 25.2427 26.8863 24.8944 26.5707C24.5571 26.2551 24.0402 26.0973 23.3437 26.0973H21.0094V29.5906ZM21.0094 34.6999H23.4906C24.1871 34.6999 24.7257 34.5366 25.1066 34.2102C25.4984 33.8837 25.6943 33.4266 25.6943 32.839C25.6943 32.2513 25.493 31.7888 25.0903 31.4515C24.6877 31.1032 24.1435 30.9291 23.4579 30.9291H21.0094V34.6999ZM32.2594 36.3159C31.465 36.3159 30.7577 36.1418 30.1374 35.7936C29.528 35.4344 29.0491 34.9393 28.7009 34.3081C28.3527 33.6769 28.1785 32.9424 28.1785 32.1044C28.1785 31.2556 28.3472 30.5101 28.6846 29.8681C29.0328 29.226 29.5116 28.7254 30.1211 28.3663C30.7414 28.0072 31.4596 27.8276 32.2758 27.8276C33.0702 27.8276 33.7612 28.0072 34.3489 28.3663C34.9365 28.7145 35.3936 29.1825 35.7201 29.7701C36.0465 30.3578 36.2098 31.0053 36.2098 31.7126C36.2098 31.8215 36.2043 31.9412 36.1934 32.0718C36.1934 32.1915 36.188 32.3275 36.1771 32.4799H29.8762C29.9306 33.2634 30.1863 33.8619 30.6434 34.2755C31.1114 34.6781 31.65 34.8794 32.2594 34.8794C32.7492 34.8794 33.1572 34.7706 33.4837 34.553C33.8211 34.3244 34.0714 34.0197 34.2346 33.6388H35.9649C35.7473 34.4006 35.312 35.0372 34.659 35.5487C34.017 36.0602 33.2171 36.3159 32.2594 36.3159ZM32.2594 29.2478C31.6827 29.2478 31.1712 29.4219 30.725 29.7701C30.2788 30.1075 30.0068 30.619 29.9088 31.3046H34.4795C34.4468 30.6734 34.2237 30.1728 33.8102 29.8028C33.3967 29.4328 32.8797 29.2478 32.2594 29.2478ZM40.421 36.3159C39.3981 36.3159 38.5547 36.0656 37.8908 35.565C37.227 35.0644 36.8461 34.4006 36.7482 33.5735H38.4948C38.5819 33.9435 38.7886 34.2646 39.1151 34.5366C39.4416 34.7978 39.8715 34.9284 40.4047 34.9284C40.927 34.9284 41.3079 34.8196 41.5473 34.6019C41.7868 34.3843 41.9065 34.134 41.9065 33.851C41.9065 33.4375 41.7378 33.16 41.4004 33.0185C41.074 32.8662 40.6169 32.7301 40.0292 32.6104C39.5722 32.5125 39.1151 32.3819 38.6581 32.2187C38.2119 32.0554 37.8364 31.8269 37.5317 31.5331C37.2379 31.2284 37.091 30.8203 37.091 30.3088C37.091 29.6015 37.3631 29.0138 37.9072 28.5459C38.4513 28.067 39.2131 27.8276 40.1925 27.8276C41.0957 27.8276 41.8248 28.0453 42.3799 28.4806C42.9457 28.9159 43.2777 29.5307 43.3756 30.3251H41.7106C41.6562 29.9769 41.4929 29.7048 41.2209 29.509C40.9597 29.3131 40.606 29.2151 40.1598 29.2151C39.7245 29.2151 39.3872 29.3076 39.1478 29.4926C38.9084 29.6667 38.7886 29.8953 38.7886 30.1782C38.7886 30.4612 38.9519 30.6843 39.2784 30.8475C39.6157 31.0107 40.0565 31.1576 40.6006 31.2882C41.1447 31.4079 41.6453 31.5494 42.1023 31.7126C42.5703 31.865 42.9457 32.0935 43.2287 32.3982C43.5116 32.7029 43.6531 33.1491 43.6531 33.7368C43.664 34.4768 43.3756 35.0916 42.7879 35.5813C42.2112 36.0711 41.4222 36.3159 40.421 36.3159ZM47.8183 36.12C47.0239 36.12 46.3927 35.9296 45.9248 35.5487C45.4568 35.1569 45.2228 34.4659 45.2228 33.4756V29.4763H43.8353V28.0235H45.2228L45.435 25.9667H46.9531V28.0235H49.2385V29.4763H46.9531V33.4756C46.9531 33.9218 47.0456 34.2319 47.2306 34.406C47.4265 34.5693 47.7584 34.6509 48.2264 34.6509H49.1568V36.12H47.8183ZM56.2454 36.12V26.0973H52.8664V24.6935H61.3384V26.0973H57.9757V36.12H56.2454ZM63.0555 26.4891C62.7291 26.4891 62.457 26.3911 62.2393 26.1953C62.0326 25.9885 61.9292 25.7327 61.9292 25.428C61.9292 25.1233 62.0326 24.873 62.2393 24.6772C62.457 24.4704 62.7291 24.367 63.0555 24.367C63.382 24.367 63.6486 24.4704 63.8554 24.6772C64.073 24.873 64.1819 25.1233 64.1819 25.428C64.1819 25.7327 64.073 25.9885 63.8554 26.1953C63.6486 26.3911 63.382 26.4891 63.0555 26.4891ZM62.1904 36.12V28.0235H63.9207V36.12H62.1904ZM65.3887 36.12V28.0235H66.9231L67.07 29.1662C67.3312 28.7526 67.674 28.4262 68.0984 28.1867C68.5337 27.9473 69.0343 27.8276 69.6002 27.8276C70.8843 27.8276 71.7766 28.3336 72.2772 29.3457C72.5711 28.8778 72.9628 28.5078 73.4525 28.2357C73.9531 27.9636 74.4918 27.8276 75.0686 27.8276C76.0806 27.8276 76.8751 28.1323 77.4518 28.7417C78.0286 29.3512 78.317 30.2598 78.317 31.4678V36.12H76.5867V31.6473C76.5867 30.0803 75.9881 29.2967 74.7911 29.2967C74.1817 29.2967 73.6811 29.5253 73.2893 29.9823C72.9084 30.4394 72.718 31.0923 72.718 31.9412V36.12H70.9877V31.6473C70.9877 30.0803 70.3837 29.2967 69.1757 29.2967C68.5772 29.2967 68.0821 29.5253 67.6903 29.9823C67.3094 30.4394 67.119 31.0923 67.119 31.9412V36.12H65.3887ZM83.3123 36.3159C82.5179 36.3159 81.8105 36.1418 81.1902 35.7936C80.5808 35.4344 80.102 34.9393 79.7537 34.3081C79.4055 33.6769 79.2314 32.9424 79.2314 32.1044C79.2314 31.2556 79.4 30.5101 79.7374 29.8681C80.0856 29.226 80.5645 28.7254 81.1739 28.3663C81.7942 28.0072 82.5124 27.8276 83.3286 27.8276C84.123 27.8276 84.814 28.0072 85.4017 28.3663C85.9893 28.7145 86.4464 29.1825 86.7729 29.7701C87.0994 30.3578 87.2626 31.0053 87.2626 31.7126C87.2626 31.8215 87.2571 31.9412 87.2463 32.0718C87.2463 32.1915 87.2408 32.3275 87.2299 32.4799H80.929C80.9834 33.2634 81.2392 33.8619 81.6962 34.2755C82.1642 34.6781 82.7029 34.8794 83.3123 34.8794C83.802 34.8794 84.2101 34.7706 84.5365 34.553C84.8739 34.3244 85.1242 34.0197 85.2874 33.6388H87.0177C86.8001 34.4006 86.3648 35.0372 85.7118 35.5487C85.0698 36.0602 84.2699 36.3159 83.3123 36.3159ZM83.3123 29.2478C82.7355 29.2478 82.224 29.4219 81.7778 29.7701C81.3317 30.1075 81.0596 30.619 80.9617 31.3046H85.5323C85.4996 30.6734 85.2765 30.1728 84.863 29.8028C84.4495 29.4328 83.9326 29.2478 83.3123 29.2478ZM94.9337 36.12C94.1393 36.12 93.5081 35.9296 93.0401 35.5487C92.5722 35.1569 92.3382 34.4659 92.3382 33.4756V29.4763H90.9507V28.0235H92.3382L92.5504 25.9667H94.0685V28.0235H96.3538V29.4763H94.0685V33.4756C94.0685 33.9218 94.161 34.2319 94.346 34.406C94.5419 34.5693 94.8738 34.6509 95.3418 34.6509H96.2722V36.12H94.9337ZM100.902 36.3159C100.129 36.3159 99.4325 36.1418 98.8122 35.7936C98.2028 35.4344 97.7185 34.9393 97.3594 34.3081C97.0003 33.666 96.8207 32.9206 96.8207 32.0718C96.8207 31.2229 97.0003 30.4829 97.3594 29.8517C97.7294 29.2097 98.2246 28.7145 98.8448 28.3663C99.4651 28.0072 100.156 27.8276 100.918 27.8276C101.691 27.8276 102.382 28.0072 102.991 28.3663C103.611 28.7145 104.101 29.2097 104.46 29.8517C104.83 30.4829 105.015 31.2229 105.015 32.0718C105.015 32.9206 104.83 33.666 104.46 34.3081C104.101 34.9393 103.611 35.4344 102.991 35.7936C102.371 36.1418 101.674 36.3159 100.902 36.3159ZM100.902 34.8305C101.315 34.8305 101.696 34.7271 102.044 34.5203C102.403 34.3135 102.692 34.0088 102.909 33.6062C103.127 33.1927 103.236 32.6812 103.236 32.0718C103.236 31.4623 103.127 30.9563 102.909 30.5537C102.703 30.1401 102.42 29.83 102.061 29.6232C101.712 29.4165 101.331 29.3131 100.918 29.3131C100.504 29.3131 100.118 29.4165 99.759 29.6232C99.4107 29.83 99.1278 30.1401 98.9101 30.5537C98.6925 30.9563 98.5837 31.4623 98.5837 32.0718C98.5837 32.6812 98.6925 33.1927 98.9101 33.6062C99.1278 34.0088 99.4107 34.3135 99.759 34.5203C100.107 34.7271 100.488 34.8305 100.902 34.8305ZM109.432 36.12V24.6935H113.431C114.324 24.6935 115.064 24.8458 115.651 25.1505C116.239 25.4444 116.674 25.8525 116.957 26.3748C117.251 26.8863 117.398 27.4685 117.398 28.1214C117.398 28.7417 117.257 29.3131 116.974 29.8354C116.702 30.3469 116.272 30.755 115.684 31.0597C115.096 31.3644 114.346 31.5168 113.431 31.5168H111.162V36.12H109.432ZM111.162 30.0966H113.35C114.166 30.0966 114.748 29.9225 115.096 29.5742C115.456 29.2151 115.635 28.7309 115.635 28.1214C115.635 27.4903 115.456 27.0006 115.096 26.6523C114.748 26.2932 114.166 26.1136 113.35 26.1136H111.162V30.0966ZM121.568 36.3159C120.795 36.3159 120.098 36.1418 119.478 35.7936C118.869 35.4344 118.384 34.9393 118.025 34.3081C117.666 33.666 117.487 32.9206 117.487 32.0718C117.487 31.2229 117.666 30.4829 118.025 29.8517C118.395 29.2097 118.891 28.7145 119.511 28.3663C120.131 28.0072 120.822 27.8276 121.584 27.8276C122.357 27.8276 123.048 28.0072 123.657 28.3663C124.277 28.7145 124.767 29.2097 125.126 29.8517C125.496 30.4829 125.681 31.2229 125.681 32.0718C125.681 32.9206 125.496 33.666 125.126 34.3081C124.767 34.9393 124.277 35.4344 123.657 35.7936C123.037 36.1418 122.34 36.3159 121.568 36.3159ZM121.568 34.8305C121.981 34.8305 122.362 34.7271 122.71 34.5203C123.069 34.3135 123.358 34.0088 123.575 33.6062C123.793 33.1927 123.902 32.6812 123.902 32.0718C123.902 31.4623 123.793 30.9563 123.575 30.5537C123.369 30.1401 123.086 29.83 122.727 29.6232C122.378 29.4165 121.997 29.3131 121.584 29.3131C121.17 29.3131 120.784 29.4165 120.425 29.6232C120.077 29.83 119.794 30.1401 119.576 30.5537C119.358 30.9563 119.25 31.4623 119.25 32.0718C119.25 32.6812 119.358 33.1927 119.576 33.6062C119.794 34.0088 120.077 34.3135 120.425 34.5203C120.773 34.7271 121.154 34.8305 121.568 34.8305ZM129.968 36.3159C128.945 36.3159 128.102 36.0656 127.438 35.565C126.774 35.0644 126.393 34.4006 126.295 33.5735H128.042C128.129 33.9435 128.336 34.2646 128.662 34.5366C128.989 34.7978 129.419 34.9284 129.952 34.9284C130.474 34.9284 130.855 34.8196 131.095 34.6019C131.334 34.3843 131.454 34.134 131.454 33.851C131.454 33.4375 131.285 33.16 130.948 33.0185C130.621 32.8662 130.164 32.7301 129.577 32.6104C129.119 32.5125 128.662 32.3819 128.205 32.2187C127.759 32.0554 127.384 31.8269 127.079 31.5331C126.785 31.2284 126.638 30.8203 126.638 30.3088C126.638 29.6015 126.91 29.0138 127.454 28.5459C127.999 28.067 128.76 27.8276 129.74 27.8276C130.643 27.8276 131.372 28.0453 131.927 28.4806C132.493 28.9159 132.825 29.5307 132.923 30.3251H131.258C131.203 29.9769 131.04 29.7048 130.768 29.509C130.507 29.3131 130.153 29.2151 129.707 29.2151C129.272 29.2151 128.934 29.3076 128.695 29.4926C128.456 29.6667 128.336 29.8953 128.336 30.1782C128.336 30.4612 128.499 30.6843 128.826 30.8475C129.163 31.0107 129.604 31.1576 130.148 31.2882C130.692 31.4079 131.193 31.5494 131.65 31.7126C132.118 31.865 132.493 32.0935 132.776 32.3982C133.059 32.7029 133.2 33.1491 133.2 33.7368C133.211 34.4768 132.923 35.0916 132.335 35.5813C131.758 36.0711 130.969 36.3159 129.968 36.3159ZM137.366 36.12C136.571 36.12 135.94 35.9296 135.472 35.5487C135.004 35.1569 134.77 34.4659 134.77 33.4756V29.4763H133.383V28.0235H134.77L134.982 25.9667H136.5V28.0235H138.786V29.4763H136.5V33.4756C136.5 33.9218 136.593 34.2319 136.778 34.406C136.974 34.5693 137.306 34.6509 137.774 34.6509H138.704V36.12H137.366Z" fill="#091E42"/>
<path d="M18.1201 54.2H289.94" stroke="#DCDEEC" stroke-width="0.755001"/>
<rect x="18.1201" y="66.28" width="41.1" height="24.04" rx="12.02" fill="#FFE5E7"/>
<path d="M30.5019 83.3L28.2309 77.5379V83.3H26.5638V74.6266H28.7624L31.275 81.0531L33.7998 74.6266H35.9983V83.3H34.3313V77.4895L32.0361 83.3H30.5019ZM40.4768 83.4208C38.6044 83.4208 37.2031 81.9471 37.2031 80.0747C37.2031 78.1902 38.6044 76.7285 40.4768 76.7285C42.3492 76.7285 43.7505 78.1902 43.7505 80.0747C43.7505 81.9471 42.3492 83.4208 40.4768 83.4208ZM40.4768 81.935C41.3103 81.935 42.0231 81.2706 42.0231 80.0747C42.0231 78.8787 41.3103 78.2264 40.4768 78.2264C39.6433 78.2264 38.9306 78.8787 38.9306 80.0747C38.9306 81.2706 39.6433 81.935 40.4768 81.935ZM46.5011 79.7847V83.3H44.822V76.8493H46.3683V77.7674C46.8394 77.1271 47.5038 76.7285 48.3494 76.7285C49.642 76.7285 50.5359 77.5741 50.5359 79.1324V83.3H48.8688V79.7002C48.8688 78.7459 48.4944 78.2143 47.7333 78.2143C47.0689 78.2143 46.5011 78.7459 46.5011 79.7847Z" fill="#DC5172"/>
<path d="M81.3866 83.3H80.4927V75.4359H77.5814V74.6266H84.2979V75.4359H81.3866V83.3ZM88.9823 80.727V76.9339H89.8159V83.3H89.0307V82.1524C88.7045 82.8893 87.9314 83.4208 87.0012 83.4208C85.7087 83.4208 84.851 82.6839 84.851 81.0773V76.9339H85.6966V80.8961C85.6966 82.1887 86.3368 82.6839 87.2307 82.6839C88.2455 82.6839 88.9823 81.8625 88.9823 80.727ZM94.148 83.4208C92.3601 83.4208 91.1763 82.0799 91.1763 80.0626C91.1763 78.2023 92.4084 76.8131 94.0996 76.8131C95.9116 76.8131 97.0955 78.2747 96.9505 80.3163H92.0219C92.0944 81.8263 92.8916 82.7564 94.1359 82.7564C95.1989 82.7564 95.9358 82.1645 96.1412 81.1498H96.9747C96.6848 82.5631 95.6096 83.4208 94.148 83.4208ZM94.0876 77.4654C92.94 77.4654 92.1306 78.3472 92.0219 79.7364H96.0687C95.9962 78.311 95.2593 77.4654 94.0876 77.4654Z" fill="#8F8F8F"/>
<path d="M124.082 83.3L122.053 75.8587L120.011 83.3H119.069L116.786 74.6266H117.668L119.54 81.9833L121.57 74.6266H122.536L124.541 82.0075L126.426 74.6266H127.32L125.037 83.3H124.082ZM130.484 83.4208C128.696 83.4208 127.512 82.0799 127.512 80.0626C127.512 78.2023 128.744 76.8131 130.436 76.8131C132.248 76.8131 133.432 78.2747 133.287 80.3163H128.358C128.43 81.8263 129.228 82.7564 130.472 82.7564C131.535 82.7564 132.272 82.1645 132.477 81.1498H133.311C133.021 82.5631 131.946 83.4208 130.484 83.4208ZM130.424 77.4654C129.276 77.4654 128.467 78.3472 128.358 79.7364H132.405C132.332 78.311 131.595 77.4654 130.424 77.4654ZM134.095 80.1109C134.095 78.1539 135.182 76.8131 136.898 76.8131C137.852 76.8131 138.661 77.3567 139.084 78.2627V74.6266H139.93V83.3H139.144V81.9591C138.697 82.8893 137.876 83.4208 136.898 83.4208C135.182 83.4208 134.095 82.0679 134.095 80.1109ZM134.953 80.1109C134.953 81.7296 135.774 82.6839 137.018 82.6839C138.251 82.6839 139.096 81.6813 139.096 80.0867C139.096 78.4801 138.226 77.5499 137.018 77.5499C135.774 77.5499 134.953 78.4922 134.953 80.1109Z" fill="#8F8F8F"/>
<path d="M163.627 83.3H162.733V75.4359H159.822V74.6266H166.538V75.4359H163.627V83.3ZM168.54 79.5915V83.3H167.694V74.6266H168.54V78.1056C168.939 77.3446 169.663 76.8131 170.581 76.8131C171.91 76.8131 172.768 77.6587 172.768 79.1687V83.3H171.922V79.4586C171.922 78.2385 171.367 77.5499 170.328 77.5499C169.337 77.5499 168.54 78.4076 168.54 79.5915ZM178.619 80.727V76.9339H179.453V83.3H178.668V82.1524C178.341 82.8893 177.568 83.4208 176.638 83.4208C175.346 83.4208 174.488 82.6839 174.488 81.0773V76.9339H175.333V80.8961C175.333 82.1887 175.974 82.6839 176.868 82.6839C177.882 82.6839 178.619 81.8625 178.619 80.727Z" fill="#8F8F8F"/>
<path d="M200.585 83.3H199.679V74.6266H204.656V75.4118H200.585V78.7942H204.088V79.5794H200.585V83.3ZM206.752 79.8935V83.3H205.906V76.9339H206.691V78.3835C207.126 77.4412 208.068 76.8372 209.119 76.8372V77.7191C207.778 77.6707 206.752 78.5043 206.752 79.8935ZM211.252 75.4601C211.252 75.8346 210.974 76.1003 210.564 76.1003C210.165 76.1003 209.887 75.8346 209.887 75.4601C209.887 75.0977 210.165 74.8319 210.564 74.8319C210.974 74.8319 211.252 75.0977 211.252 75.4601ZM210.998 83.3H210.153V76.9339H210.998V83.3Z" fill="#8F8F8F"/>
<path d="M237.875 80.8961C237.875 82.2732 236.752 83.4208 234.734 83.4208C232.717 83.4208 231.533 82.2974 231.448 80.6545H232.367C232.451 81.8867 233.224 82.6839 234.722 82.6839C235.954 82.6839 236.921 82.0558 236.921 81.0169C236.921 80.123 236.413 79.7123 235.181 79.4586L234.082 79.2411C232.934 79.0116 231.726 78.4801 231.726 76.9701C231.726 75.5809 232.946 74.5058 234.674 74.5058C236.365 74.5058 237.67 75.5688 237.766 77.2238H236.836C236.776 76.0762 235.93 75.2426 234.686 75.2426C233.357 75.2426 232.644 76.052 232.644 76.9218C232.644 77.9486 233.514 78.2627 234.481 78.4559L235.58 78.6855C237.042 78.9875 237.875 79.5915 237.875 80.8961ZM243.415 83.3V82.1403C243.04 82.9376 242.267 83.4208 241.277 83.4208C239.96 83.4208 239.102 82.6839 239.102 81.5363C239.102 80.2921 240.093 79.6398 242.025 79.6398C242.412 79.6398 242.702 79.6639 243.33 79.7123V79.1807C243.33 78.1177 242.762 77.4895 241.796 77.4895C240.757 77.4895 240.105 78.1298 240.093 79.1687H239.32C239.356 77.7553 240.334 76.8131 241.784 76.8131C243.27 76.8131 244.139 77.6828 244.139 79.1566V83.3H243.415ZM239.911 81.5122C239.911 82.2853 240.503 82.8047 241.397 82.8047C242.581 82.8047 243.33 82.0316 243.33 80.8357V80.2679C242.787 80.2196 242.412 80.2075 242.062 80.2075C240.612 80.2075 239.911 80.6303 239.911 81.5122ZM249.157 82.4907V83.2396C248.83 83.3725 248.553 83.4208 248.238 83.4208C247.188 83.4208 246.378 82.8772 246.378 81.5001V77.6466H244.88V76.9339H246.378V75.0494H247.224V76.9339H249.217V77.6466H247.224V81.3189C247.224 82.3095 247.707 82.6477 248.408 82.6477C248.673 82.6477 248.891 82.5994 249.157 82.4907Z" fill="#8F8F8F"/>
<path d="M274.995 80.8961C274.995 82.2732 273.872 83.4208 271.854 83.4208C269.837 83.4208 268.653 82.2974 268.569 80.6545H269.487C269.571 81.8867 270.344 82.6839 271.842 82.6839C273.074 82.6839 274.041 82.0558 274.041 81.0169C274.041 80.123 273.533 79.7123 272.301 79.4586L271.202 79.2411C270.054 79.0116 268.846 78.4801 268.846 76.9701C268.846 75.5809 270.067 74.5058 271.794 74.5058C273.485 74.5058 274.79 75.5688 274.886 77.2238H273.956C273.896 76.0762 273.05 75.2426 271.806 75.2426C270.477 75.2426 269.765 76.052 269.765 76.9218C269.765 77.9486 270.634 78.2627 271.601 78.4559L272.7 78.6855C274.162 78.9875 274.995 79.5915 274.995 80.8961ZM280.515 80.727V76.9339H281.348V83.3H280.563V82.1524C280.237 82.8893 279.464 83.4208 278.534 83.4208C277.241 83.4208 276.384 82.6839 276.384 81.0773V76.9339H277.229V80.8961C277.229 82.1887 277.869 82.6839 278.763 82.6839C279.778 82.6839 280.515 81.8625 280.515 80.727ZM284.026 79.5915V83.3H283.18V76.9339H283.965V78.1298C284.376 77.3446 285.149 76.8131 286.067 76.8131C287.396 76.8131 288.254 77.6587 288.254 79.1687V83.3H287.408V79.4586C287.408 78.2385 286.852 77.5499 285.813 77.5499C284.823 77.5499 284.026 78.4076 284.026 79.5915Z" fill="#8F8F8F"/>
<path fill-rule="evenodd" clip-rule="evenodd" d="M27.5576 187.715C32.7698 187.715 36.9951 191.94 36.9951 197.153L36.9951 215.273C36.9951 220.485 32.7698 224.71 27.5576 224.71C22.3454 224.71 18.1201 220.485 18.1201 215.273L18.1201 197.153C18.1201 191.94 22.3454 187.715 27.5576 187.715Z" fill="#7551DC"/>
<path fill-rule="evenodd" clip-rule="evenodd" d="M63.209 174.88C68.4212 174.88 72.6465 179.105 72.6465 184.318L72.6465 215.273C72.6465 220.485 68.4212 224.71 63.209 224.71C57.9968 224.71 53.7715 220.485 53.7715 215.273L53.7715 184.318C53.7715 179.105 57.9968 174.88 63.209 174.88Z" fill="#7551DC"/>
<path fill-rule="evenodd" clip-rule="evenodd" d="M99.1641 129.107C104.376 129.061 108.639 133.248 108.685 138.46L109.059 215.106C109.105 220.318 104.917 224.581 99.7053 224.627C94.4933 224.673 90.2308 220.485 90.1847 215.273L89.8105 138.627C89.7644 133.415 93.9521 129.153 99.1641 129.107Z" fill="#7551DC"/>
<path fill-rule="evenodd" clip-rule="evenodd" d="M135.661 149.21C140.873 149.21 145.099 153.435 145.099 158.648L145.099 215.273C145.099 220.485 140.873 224.71 135.661 224.71C130.449 224.71 126.224 220.485 126.224 215.273L126.224 158.648C126.224 153.435 130.449 149.21 135.661 149.21Z" fill="#7551DC"/>
<path fill-rule="evenodd" clip-rule="evenodd" d="M171.313 169.595C176.525 169.595 180.75 173.82 180.75 179.033L180.75 215.273C180.75 220.485 176.525 224.71 171.313 224.71C166.1 224.71 161.875 220.485 161.875 215.273L161.875 179.033C161.875 173.82 166.1 169.595 171.313 169.595Z" fill="#7551DC"/>
<path fill-rule="evenodd" clip-rule="evenodd" d="M206.963 158.146C212.175 158.077 216.456 162.246 216.525 167.458L217.157 215.023C217.226 220.235 213.057 224.516 207.845 224.585C202.634 224.654 198.353 220.485 198.283 215.274L197.652 167.708C197.582 162.497 201.751 158.216 206.963 158.146Z" fill="#7551DC"/>
<path fill-rule="evenodd" clip-rule="evenodd" d="M243.496 132.463C248.708 132.386 252.995 136.549 253.072 141.761L254.15 214.996C254.227 220.207 250.064 224.494 244.853 224.571C239.641 224.648 235.354 220.485 235.277 215.274L234.199 142.039C234.122 136.827 238.284 132.54 243.496 132.463Z" fill="#7551DC"/>
<path fill-rule="evenodd" clip-rule="evenodd" d="M280.503 163.555C285.715 163.555 289.94 167.78 289.94 172.993L289.94 215.273C289.94 220.485 285.715 224.71 280.503 224.71C275.291 224.71 271.065 220.485 271.065 215.273L271.065 172.993C271.065 167.78 275.291 163.555 280.503 163.555Z" fill="#7551DC"/>
<rect x="56.7031" y="102.94" width="85.1" height="24.04" rx="7.55001" fill="#DAFFE9"/>
<path d="M69.3549 119.96L67.0839 114.198V119.96H65.4168V111.287H67.6154L70.128 117.714L72.6527 111.287H74.8513V119.96H73.1843V114.15L70.8891 119.96H69.3549ZM79.3298 120.081C77.4574 120.081 76.0561 118.608 76.0561 116.735C76.0561 114.851 77.4574 113.389 79.3298 113.389C81.2022 113.389 82.6035 114.851 82.6035 116.735C82.6035 118.608 81.2022 120.081 79.3298 120.081ZM79.3298 118.595C80.1633 118.595 80.876 117.931 80.876 116.735C80.876 115.539 80.1633 114.887 79.3298 114.887C78.4963 114.887 77.7835 115.539 77.7835 116.735C77.7835 117.931 78.4963 118.595 79.3298 118.595ZM89.1231 117.895C89.1231 119.248 88.0963 120.081 86.2601 120.081C84.424 120.081 83.3972 119.199 83.2643 117.762H84.8709C84.883 118.426 85.4508 118.849 86.2843 118.849C86.9366 118.849 87.4319 118.644 87.4319 118.185C87.4319 117.774 87.1661 117.605 86.55 117.484L85.3904 117.267C84.2307 117.061 83.53 116.421 83.53 115.418C83.53 114.222 84.5568 113.389 86.1635 113.389C87.7822 113.389 88.8936 114.247 89.0144 115.636H87.4077C87.3473 115.008 86.8762 114.621 86.1635 114.621C85.5474 114.621 85.1367 114.851 85.1367 115.261C85.1367 115.648 85.4024 115.805 85.9823 115.914L87.2265 116.143C88.4828 116.385 89.1231 116.965 89.1231 117.895ZM94.1503 118.33V119.791C93.7395 119.997 93.353 120.081 92.8577 120.081C91.5289 120.081 90.6954 119.32 90.6954 117.871V114.947H89.3907V113.51H90.6954V111.601H92.3624V113.51H94.2107V114.947H92.3624V117.484C92.3624 118.233 92.7007 118.535 93.3047 118.535C93.6187 118.535 93.9087 118.463 94.1503 118.33ZM103.704 119.96L103.052 118.1H99.6812L99.0168 119.96H97.1686L100.43 111.287H102.435L105.673 119.96H103.704ZM101.384 113.292L100.201 116.638H102.544L101.384 113.292ZM108.937 120.081C107.077 120.081 105.796 118.704 105.796 116.735C105.796 114.802 107.125 113.389 108.937 113.389C110.616 113.389 111.86 114.524 112.066 116.264H110.302C110.217 115.406 109.698 114.875 108.937 114.875C108.067 114.875 107.511 115.588 107.511 116.735C107.511 117.895 108.055 118.595 108.937 118.595C109.71 118.595 110.205 118.088 110.302 117.206H112.066C111.872 118.982 110.664 120.081 108.937 120.081ZM117.154 118.33V119.791C116.743 119.997 116.357 120.081 115.862 120.081C114.533 120.081 113.699 119.32 113.699 117.871V114.947H112.395V113.51H113.699V111.601H115.366V113.51H117.215V114.947H115.366V117.484C115.366 118.233 115.705 118.535 116.309 118.535C116.623 118.535 116.913 118.463 117.154 118.33ZM120.185 112.012C120.185 112.58 119.726 113.002 119.061 113.002C118.409 113.002 117.95 112.58 117.95 112.012C117.95 111.42 118.409 110.997 119.061 110.997C119.726 110.997 120.185 111.42 120.185 112.012ZM119.919 119.96H118.24V113.51H119.919V119.96ZM127.224 113.51L124.856 119.96H123.02L120.64 113.51H122.452L123.986 118.052L125.533 113.51H127.224ZM130.539 120.069C128.606 120.069 127.314 118.728 127.314 116.711C127.314 114.79 128.654 113.389 130.515 113.389C132.556 113.389 133.909 115.044 133.607 117.146H129.029C129.138 118.197 129.645 118.777 130.503 118.777C131.24 118.777 131.735 118.414 131.928 117.774H133.595C133.233 119.236 132.109 120.069 130.539 120.069ZM130.479 114.621C129.693 114.621 129.198 115.128 129.053 116.083H131.832C131.783 115.189 131.276 114.621 130.479 114.621Z" fill="#0E803B"/>
<path d="M20.7777 250.79H19.9442V243.349H18.3376V242.624H20.7777V250.79ZM27.4056 250.041V250.79H22.4769V250.307L25.0862 247.359C26.0768 246.236 26.4392 245.632 26.4392 244.847C26.4392 243.929 25.7627 243.252 24.8084 243.252C23.8178 243.252 23.1172 243.941 23.1172 244.956H22.2957C22.2957 243.53 23.3467 242.503 24.8446 242.503C26.2701 242.503 27.321 243.458 27.321 244.774C27.321 245.656 26.9707 246.321 25.7144 247.722L23.7212 250.041H27.4056ZM32.8143 250.79V249.63C32.4398 250.428 31.6667 250.911 30.6762 250.911C29.3594 250.911 28.5018 250.174 28.5018 249.026C28.5018 247.782 29.4923 247.13 31.4251 247.13C31.8117 247.13 32.1016 247.154 32.7298 247.202V246.671C32.7298 245.608 32.162 244.98 31.1956 244.98C30.1567 244.98 29.5044 245.62 29.4923 246.659H28.7192C28.7554 245.245 29.7339 244.303 31.1835 244.303C32.6694 244.303 33.5391 245.173 33.5391 246.647V250.79H32.8143ZM29.3111 249.002C29.3111 249.775 29.903 250.295 30.797 250.295C31.9808 250.295 32.7298 249.522 32.7298 248.326V247.758C32.1862 247.71 31.8117 247.698 31.4614 247.698C30.0118 247.698 29.3111 248.12 29.3111 249.002Z" fill="#8F8F8F"/>
<path d="M60.2393 250.899C58.6206 250.899 57.5092 249.945 57.473 248.531H58.2944C58.3428 249.558 59.1038 250.21 60.2393 250.21C61.4111 250.21 62.1238 249.57 62.1238 248.543C62.1238 247.565 61.3265 246.937 60.0702 246.937H59.2608V246.236H60.046C61.0487 246.236 61.7493 245.596 61.7493 244.678C61.7493 243.796 61.097 243.192 60.1668 243.192C59.2004 243.192 58.5602 243.796 58.5119 244.738H57.7025C57.7388 243.458 58.8018 242.503 60.191 242.503C61.6406 242.503 62.6191 243.385 62.6191 244.641C62.6191 245.487 62.1117 246.164 61.2178 246.538C62.3412 246.816 62.9936 247.541 62.9936 248.531C62.9936 249.932 61.8822 250.899 60.2393 250.899ZM68.5536 250.79V249.63C68.1791 250.428 67.406 250.911 66.4154 250.911C65.0987 250.911 64.241 250.174 64.241 249.026C64.241 247.782 65.2316 247.13 67.1644 247.13C67.5509 247.13 67.8409 247.154 68.469 247.202V246.671C68.469 245.608 67.9013 244.98 66.9349 244.98C65.896 244.98 65.2437 245.62 65.2316 246.659H64.4585C64.4947 245.245 65.4732 244.303 66.9228 244.303C68.4086 244.303 69.2784 245.173 69.2784 246.647V250.79H68.5536ZM65.0504 249.002C65.0504 249.775 65.6423 250.295 66.5362 250.295C67.7201 250.295 68.469 249.522 68.469 248.326V247.758C67.9254 247.71 67.5509 247.698 67.2006 247.698C65.751 247.698 65.0504 248.12 65.0504 249.002Z" fill="#8F8F8F"/>
<path d="M95.7828 250.899C94.152 250.899 92.944 249.727 92.944 248.229C92.944 247.166 93.3789 246.526 94.0192 245.729L96.4835 242.624H97.4378L94.9856 245.729C95.3238 245.608 95.65 245.547 95.952 245.547C97.474 245.547 98.6337 246.598 98.6337 248.205C98.6337 249.727 97.4257 250.899 95.7828 250.899ZM95.7949 250.198C96.9184 250.198 97.764 249.365 97.764 248.229C97.764 247.009 96.9184 246.2 95.7949 246.2C94.6594 246.2 93.8138 246.9 93.8138 248.205C93.8138 249.365 94.6594 250.198 95.7949 250.198ZM103.912 250.79V249.63C103.537 250.428 102.764 250.911 101.774 250.911C100.457 250.911 99.5992 250.174 99.5992 249.026C99.5992 247.782 100.59 247.13 102.523 247.13C102.909 247.13 103.199 247.154 103.827 247.202V246.671C103.827 245.608 103.259 244.98 102.293 244.98C101.254 244.98 100.602 245.62 100.59 246.659H99.8166C99.8529 245.245 100.831 244.303 102.281 244.303C103.767 244.303 104.637 245.173 104.637 246.647V250.79H103.912ZM100.409 249.002C100.409 249.775 101 250.295 101.894 250.295C103.078 250.295 103.827 249.522 103.827 248.326V247.758C103.284 247.71 102.909 247.698 102.559 247.698C101.109 247.698 100.409 248.12 100.409 249.002Z" fill="#8F8F8F"/>
<path d="M131.483 242.515C133.114 242.515 134.322 243.687 134.322 245.185C134.322 246.188 133.924 246.816 133.235 247.686L130.783 250.79H129.816L132.269 247.674C131.942 247.806 131.604 247.855 131.302 247.855C129.78 247.855 128.633 246.804 128.633 245.209C128.633 243.687 129.841 242.515 131.483 242.515ZM131.471 243.216C130.324 243.216 129.502 244.05 129.502 245.185C129.502 246.405 130.324 247.214 131.471 247.214C132.595 247.214 133.452 246.514 133.452 245.209C133.452 244.05 132.595 243.216 131.471 243.216ZM139.6 250.79V249.63C139.226 250.428 138.453 250.911 137.462 250.911C136.145 250.911 135.288 250.174 135.288 249.026C135.288 247.782 136.278 247.13 138.211 247.13C138.598 247.13 138.887 247.154 139.516 247.202V246.671C139.516 245.608 138.948 244.98 137.981 244.98C136.943 244.98 136.29 245.62 136.278 246.659H135.505C135.541 245.245 136.52 244.303 137.969 244.303C139.455 244.303 140.325 245.173 140.325 246.647V250.79H139.6ZM136.097 249.002C136.097 249.775 136.689 250.295 137.583 250.295C138.767 250.295 139.516 249.522 139.516 248.326V247.758C138.972 247.71 138.598 247.698 138.247 247.698C136.798 247.698 136.097 248.12 136.097 249.002Z" fill="#8F8F8F"/>
<path d="M166.532 250.79H165.698V243.349H164.091V242.624H166.532V250.79ZM173.159 250.041V250.79H168.231V250.307L170.84 247.359C171.831 246.236 172.193 245.632 172.193 244.847C172.193 243.929 171.517 243.252 170.562 243.252C169.572 243.252 168.871 243.941 168.871 244.956H168.05C168.05 243.53 169.101 242.503 170.599 242.503C172.024 242.503 173.075 243.458 173.075 244.774C173.075 245.656 172.725 246.321 171.468 247.722L169.475 250.041H173.159ZM180.489 247.601C180.489 249.57 179.39 250.911 177.698 250.911C176.744 250.911 175.935 250.392 175.5 249.486V253.122H174.654V244.424H175.44V245.801C175.874 244.859 176.72 244.303 177.698 244.303C179.39 244.303 180.489 245.656 180.489 247.601ZM179.631 247.601C179.631 245.994 178.798 245.04 177.554 245.04C176.37 245.04 175.488 245.982 175.488 247.601C175.488 249.184 176.346 250.174 177.554 250.174C178.798 250.174 179.631 249.232 179.631 247.601Z" fill="#8F8F8F"/>
<path d="M206.994 250.899C205.375 250.899 204.264 249.945 204.228 248.531H205.049C205.098 249.558 205.859 250.21 206.994 250.21C208.166 250.21 208.879 249.57 208.879 248.543C208.879 247.565 208.081 246.937 206.825 246.937H206.016V246.236H206.801C207.804 246.236 208.504 245.596 208.504 244.678C208.504 243.796 207.852 243.192 206.922 243.192C205.955 243.192 205.315 243.796 205.267 244.738H204.457C204.494 243.458 205.557 242.503 206.946 242.503C208.395 242.503 209.374 243.385 209.374 244.641C209.374 245.487 208.867 246.164 207.973 246.538C209.096 246.816 209.748 247.541 209.748 248.531C209.748 249.932 208.637 250.899 206.994 250.899ZM217.229 247.601C217.229 249.57 216.13 250.911 214.439 250.911C213.484 250.911 212.675 250.392 212.24 249.486V253.122H211.395V244.424H212.18V245.801C212.615 244.859 213.46 244.303 214.439 244.303C216.13 244.303 217.229 245.656 217.229 247.601ZM216.371 247.601C216.371 245.994 215.538 245.04 214.294 245.04C213.11 245.04 212.228 245.982 212.228 247.601C212.228 249.184 213.086 250.174 214.294 250.174C215.538 250.174 216.371 249.232 216.371 247.601Z" fill="#8F8F8F"/>
<path d="M243.538 250.899C241.907 250.899 240.699 249.727 240.699 248.229C240.699 247.166 241.134 246.526 241.774 245.729L244.238 242.624H245.193L242.74 245.729C243.079 245.608 243.405 245.547 243.707 245.547C245.229 245.547 246.389 246.598 246.389 248.205C246.389 249.727 245.181 250.899 243.538 250.899ZM243.55 250.198C244.673 250.198 245.519 249.365 245.519 248.229C245.519 247.009 244.673 246.2 243.55 246.2C242.414 246.2 241.569 246.9 241.569 248.205C241.569 249.365 242.414 250.198 243.55 250.198ZM253.587 247.601C253.587 249.57 252.488 250.911 250.797 250.911C249.843 250.911 249.033 250.392 248.598 249.486V253.122H247.753V244.424H248.538V245.801C248.973 244.859 249.818 244.303 250.797 244.303C252.488 244.303 253.587 245.656 253.587 247.601ZM252.73 247.601C252.73 245.994 251.896 245.04 250.652 245.04C249.468 245.04 248.586 245.982 248.586 247.601C248.586 249.184 249.444 250.174 250.652 250.174C251.896 250.174 252.73 249.232 252.73 247.601Z" fill="#8F8F8F"/>
<path d="M279.238 242.515C280.869 242.515 282.077 243.687 282.077 245.185C282.077 246.188 281.678 246.816 280.99 247.686L278.538 250.79H277.571L280.023 247.674C279.697 247.806 279.359 247.855 279.057 247.855C277.535 247.855 276.387 246.804 276.387 245.209C276.387 243.687 277.595 242.515 279.238 242.515ZM279.226 243.216C278.079 243.216 277.257 244.05 277.257 245.185C277.257 246.405 278.079 247.214 279.226 247.214C280.35 247.214 281.207 246.514 281.207 245.209C281.207 244.05 280.35 243.216 279.226 243.216ZM289.276 247.601C289.276 249.57 288.177 250.911 286.485 250.911C285.531 250.911 284.722 250.392 284.287 249.486V253.122H283.441V244.424H284.226V245.801C284.661 244.859 285.507 244.303 286.485 244.303C288.177 244.303 289.276 245.656 289.276 247.601ZM288.418 247.601C288.418 245.994 287.585 245.04 286.34 245.04C285.157 245.04 284.275 245.982 284.275 247.601C284.275 249.184 285.132 250.174 286.34 250.174C287.585 250.174 288.418 249.232 288.418 247.601Z" fill="#8F8F8F"/>
</svg>
