<svg width="243" height="237" viewBox="0 0 243 237" fill="none" xmlns="http://www.w3.org/2000/svg">
<rect width="195.918" height="188.939" rx="14.8767" fill="white"/>
<path d="M27.6913 40.6556V30.8556H33.6553V31.8216H28.8673V35.2656H32.9413V36.2176H28.8673V40.6556H27.6913ZM37.543 40.8236C36.8897 40.8236 36.3017 40.6742 35.779 40.3756C35.2563 40.0769 34.841 39.6569 34.533 39.1156C34.2343 38.5649 34.085 37.9209 34.085 37.1836C34.085 36.4462 34.239 35.8069 34.547 35.2656C34.855 34.7149 35.2703 34.2902 35.793 33.9916C36.325 33.6929 36.9177 33.5436 37.571 33.5436C38.2243 33.5436 38.8123 33.6929 39.335 33.9916C39.8577 34.2902 40.2683 34.7149 40.567 35.2656C40.875 35.8069 41.029 36.4462 41.029 37.1836C41.029 37.9209 40.875 38.5649 40.567 39.1156C40.259 39.6569 39.839 40.0769 39.307 40.3756C38.7843 40.6742 38.1963 40.8236 37.543 40.8236ZM37.543 39.8156C37.9443 39.8156 38.3177 39.7176 38.663 39.5216C39.0083 39.3256 39.2883 39.0316 39.503 38.6396C39.7177 38.2476 39.825 37.7622 39.825 37.1836C39.825 36.6049 39.7177 36.1196 39.503 35.7276C39.2977 35.3356 39.0223 35.0416 38.677 34.8456C38.3317 34.6496 37.963 34.5516 37.571 34.5516C37.1697 34.5516 36.7963 34.6496 36.451 34.8456C36.1057 35.0416 35.8257 35.3356 35.611 35.7276C35.3963 36.1196 35.289 36.6049 35.289 37.1836C35.289 37.7622 35.3963 38.2476 35.611 38.6396C35.8257 39.0316 36.101 39.3256 36.437 39.5216C36.7823 39.7176 37.151 39.8156 37.543 39.8156ZM42.2442 40.6556V30.5756H43.4202V40.6556H42.2442ZM44.9277 40.6556V30.5756H46.1037V40.6556H44.9277ZM50.7752 40.8236C50.1219 40.8236 49.5339 40.6742 49.0112 40.3756C48.4885 40.0769 48.0732 39.6569 47.7652 39.1156C47.4665 38.5649 47.3172 37.9209 47.3172 37.1836C47.3172 36.4462 47.4712 35.8069 47.7792 35.2656C48.0872 34.7149 48.5025 34.2902 49.0252 33.9916C49.5572 33.6929 50.1499 33.5436 50.8032 33.5436C51.4565 33.5436 52.0445 33.6929 52.5672 33.9916C53.0899 34.2902 53.5005 34.7149 53.7992 35.2656C54.1072 35.8069 54.2612 36.4462 54.2612 37.1836C54.2612 37.9209 54.1072 38.5649 53.7992 39.1156C53.4912 39.6569 53.0712 40.0769 52.5392 40.3756C52.0165 40.6742 51.4285 40.8236 50.7752 40.8236ZM50.7752 39.8156C51.1765 39.8156 51.5499 39.7176 51.8952 39.5216C52.2405 39.3256 52.5205 39.0316 52.7352 38.6396C52.9499 38.2476 53.0572 37.7622 53.0572 37.1836C53.0572 36.6049 52.9499 36.1196 52.7352 35.7276C52.5299 35.3356 52.2545 35.0416 51.9092 34.8456C51.5639 34.6496 51.1952 34.5516 50.8032 34.5516C50.4019 34.5516 50.0285 34.6496 49.6832 34.8456C49.3379 35.0416 49.0579 35.3356 48.8432 35.7276C48.6285 36.1196 48.5212 36.6049 48.5212 37.1836C48.5212 37.7622 48.6285 38.2476 48.8432 38.6396C49.0579 39.0316 49.3332 39.3256 49.6692 39.5216C50.0145 39.7176 50.3832 39.8156 50.7752 39.8156ZM56.6166 40.6556L54.5866 33.7116H55.7626L57.2326 39.1576L58.8566 33.7116H60.1866L61.8246 39.1576L63.2806 33.7116H64.4706L62.4406 40.6556H61.2366L59.5286 34.9296L57.8206 40.6556H56.6166ZM68.2135 40.8236C67.5508 40.8236 66.9628 40.6742 66.4495 40.3756C65.9362 40.0676 65.5302 39.6429 65.2315 39.1016C64.9422 38.5602 64.7975 37.9209 64.7975 37.1836C64.7975 36.4556 64.9422 35.8209 65.2315 35.2796C65.5208 34.7289 65.9222 34.3042 66.4355 34.0056C66.9582 33.6976 67.5602 33.5436 68.2415 33.5436C68.9135 33.5436 69.4922 33.6976 69.9775 34.0056C70.4722 34.3042 70.8502 34.7009 71.1115 35.1956C71.3728 35.6902 71.5035 36.2222 71.5035 36.7916C71.5035 36.8942 71.4988 36.9969 71.4895 37.0996C71.4895 37.2022 71.4895 37.3189 71.4895 37.4496H65.9595C65.9875 37.9816 66.1088 38.4249 66.3235 38.7796C66.5475 39.1249 66.8228 39.3862 67.1495 39.5636C67.4855 39.7409 67.8402 39.8296 68.2135 39.8296C68.6988 39.8296 69.1048 39.7176 69.4315 39.4936C69.7582 39.2696 69.9962 38.9662 70.1455 38.5836H71.3075C71.1208 39.2276 70.7615 39.7642 70.2295 40.1936C69.7068 40.6136 69.0348 40.8236 68.2135 40.8236ZM68.2135 34.5376C67.6535 34.5376 67.1542 34.7102 66.7155 35.0556C66.2862 35.3916 66.0388 35.8862 65.9735 36.5396H70.3415C70.3135 35.9142 70.0988 35.4242 69.6975 35.0696C69.2962 34.7149 68.8015 34.5376 68.2135 34.5376ZM72.6422 40.6556V33.7116H73.7062L73.8042 35.0416C74.0189 34.5842 74.3455 34.2202 74.7842 33.9496C75.2229 33.6789 75.7642 33.5436 76.4082 33.5436V34.7756H76.0862C75.6755 34.7756 75.2975 34.8502 74.9522 34.9996C74.6069 35.1396 74.3315 35.3822 74.1262 35.7276C73.9209 36.0729 73.8182 36.5489 73.8182 37.1556V40.6556H72.6422ZM84.8772 40.8236C83.9626 40.8236 83.1599 40.6136 82.4692 40.1936C81.7786 39.7642 81.2419 39.1716 80.8592 38.4156C80.4766 37.6502 80.2852 36.7682 80.2852 35.7696C80.2852 34.7709 80.4766 33.8889 80.8592 33.1236C81.2512 32.3582 81.8019 31.7609 82.5112 31.3316C83.2299 30.9022 84.0746 30.6876 85.0452 30.6876C86.1466 30.6876 87.0612 30.9536 87.7892 31.4856C88.5266 32.0176 89.0026 32.7502 89.2172 33.6836H87.8592C87.7286 33.0956 87.4159 32.6289 86.9212 32.2836C86.4359 31.9382 85.8106 31.7656 85.0452 31.7656C84.3266 31.7656 83.7012 31.9289 83.1692 32.2556C82.6372 32.5729 82.2219 33.0302 81.9232 33.6276C81.6339 34.2249 81.4892 34.9389 81.4892 35.7696C81.4892 36.6002 81.6339 37.3142 81.9232 37.9116C82.2126 38.5089 82.6139 38.9709 83.1272 39.2976C83.6406 39.6149 84.2379 39.7736 84.9192 39.7736C85.9646 39.7736 86.7532 39.4702 87.2852 38.8636C87.8172 38.2476 88.1206 37.4076 88.1952 36.3436H85.3672V35.4196H89.3992V40.6556H88.3212L88.2232 39.0456C87.8686 39.6149 87.4346 40.0536 86.9212 40.3616C86.4079 40.6696 85.7266 40.8236 84.8772 40.8236ZM90.7689 40.6556V33.7116H91.8329L91.9309 35.0416C92.1456 34.5842 92.4723 34.2202 92.9109 33.9496C93.3496 33.6789 93.8909 33.5436 94.5349 33.5436V34.7756H94.2129C93.8023 34.7756 93.4243 34.8502 93.0789 34.9996C92.7336 35.1396 92.4583 35.3822 92.2529 35.7276C92.0476 36.0729 91.9449 36.5489 91.9449 37.1556V40.6556H90.7689ZM98.3391 40.8236C97.6858 40.8236 97.0978 40.6742 96.5751 40.3756C96.0524 40.0769 95.6371 39.6569 95.3291 39.1156C95.0304 38.5649 94.8811 37.9209 94.8811 37.1836C94.8811 36.4462 95.0351 35.8069 95.3431 35.2656C95.6511 34.7149 96.0664 34.2902 96.5891 33.9916C97.1211 33.6929 97.7138 33.5436 98.3671 33.5436C99.0204 33.5436 99.6084 33.6929 100.131 33.9916C100.654 34.2902 101.064 34.7149 101.363 35.2656C101.671 35.8069 101.825 36.4462 101.825 37.1836C101.825 37.9209 101.671 38.5649 101.363 39.1156C101.055 39.6569 100.635 40.0769 100.103 40.3756C99.5804 40.6742 98.9924 40.8236 98.3391 40.8236ZM98.3391 39.8156C98.7404 39.8156 99.1138 39.7176 99.4591 39.5216C99.8044 39.3256 100.084 39.0316 100.299 38.6396C100.514 38.2476 100.621 37.7622 100.621 37.1836C100.621 36.6049 100.514 36.1196 100.299 35.7276C100.094 35.3356 99.8184 35.0416 99.4731 34.8456C99.1278 34.6496 98.7591 34.5516 98.3671 34.5516C97.9658 34.5516 97.5924 34.6496 97.2471 34.8456C96.9018 35.0416 96.6218 35.3356 96.4071 35.7276C96.1924 36.1196 96.0851 36.6049 96.0851 37.1836C96.0851 37.7622 96.1924 38.2476 96.4071 38.6396C96.6218 39.0316 96.8971 39.3256 97.2331 39.5216C97.5784 39.7176 97.9471 39.8156 98.3391 39.8156ZM104.18 40.6556L102.15 33.7116H103.326L104.796 39.1576L106.42 33.7116H107.75L109.388 39.1576L110.844 33.7116H112.034L110.004 40.6556H108.8L107.092 34.9296L105.384 40.6556H104.18ZM115.659 40.6556C115.025 40.6556 114.525 40.5016 114.161 40.1936C113.797 39.8856 113.615 39.3302 113.615 38.5276V34.7056H112.411V33.7116H113.615L113.769 32.0456H114.791V33.7116H116.835V34.7056H114.791V38.5276C114.791 38.9662 114.88 39.2649 115.057 39.4236C115.235 39.5729 115.547 39.6476 115.995 39.6476H116.723V40.6556H115.659ZM117.909 40.6556V30.5756H119.085V34.9016C119.319 34.4722 119.65 34.1409 120.079 33.9076C120.509 33.6649 120.975 33.5436 121.479 33.5436C122.282 33.5436 122.926 33.7956 123.411 34.2996C123.897 34.7942 124.139 35.5596 124.139 36.5956V40.6556H122.977V36.7216C122.977 35.2749 122.394 34.5516 121.227 34.5516C120.621 34.5516 120.112 34.7709 119.701 35.2096C119.291 35.6389 119.085 36.2549 119.085 37.0576V40.6556H117.909Z" fill="#9E9E9E"/>
<path d="M28.2365 71.9867V69.8784C29.4941 68.8797 30.6962 67.8718 31.8428 66.8547C32.9894 65.8375 34.0065 64.8389 34.8942 63.8587C35.8004 62.86 36.5124 61.8891 37.0303 60.9459C37.5481 59.9842 37.807 59.0596 37.807 58.1719C37.807 57.5801 37.7053 57.0252 37.5019 56.5074C37.2984 55.9711 36.9655 55.5457 36.5032 55.2313C36.0409 54.8985 35.4213 54.732 34.6446 54.732C33.4795 54.732 32.601 55.1019 32.0092 55.8416C31.4359 56.5814 31.1585 57.4691 31.177 58.5047H28.3197C28.3382 57.1362 28.6249 55.9896 29.1797 55.0649C29.753 54.1402 30.5112 53.4374 31.4544 52.9566C32.4161 52.4758 33.498 52.2354 34.7001 52.2354C36.5309 52.2354 37.992 52.7532 39.0831 53.7888C40.1927 54.806 40.7475 56.23 40.7475 58.0609C40.7475 59.152 40.4794 60.2339 39.943 61.3065C39.4252 62.3792 38.7409 63.4148 37.8902 64.4135C37.058 65.3937 36.1611 66.3184 35.1994 67.1876C34.2377 68.0568 33.3223 68.8428 32.4531 69.5455H41.3301V71.9867H28.2365ZM50.3861 72.3196C48.6292 72.3196 47.1127 71.9035 45.8366 71.0713C44.5791 70.2205 43.6081 69.0462 42.9239 67.5482C42.2581 66.0317 41.9252 64.2748 41.9252 62.2775C41.9252 60.2801 42.2581 58.5325 42.9239 57.0345C43.6081 55.518 44.5791 54.3436 45.8366 53.5114C47.1127 52.6607 48.6292 52.2354 50.3861 52.2354C52.143 52.2354 53.6502 52.6607 54.9078 53.5114C56.1654 54.3436 57.1271 55.518 57.7928 57.0345C58.4771 58.5325 58.8193 60.2801 58.8193 62.2775C58.8193 64.2748 58.4771 66.0317 57.7928 67.5482C57.1271 69.0462 56.1654 70.2205 54.9078 71.0713C53.6502 71.9035 52.143 72.3196 50.3861 72.3196ZM50.3861 69.6842C51.4402 69.6842 52.3742 69.3883 53.1879 68.7965C54.0201 68.2047 54.6674 67.354 55.1297 66.2444C55.5921 65.1348 55.8233 63.8125 55.8233 62.2775C55.8233 60.7425 55.5921 59.4202 55.1297 58.3106C54.6674 57.2009 54.0201 56.3502 53.1879 55.7584C52.3742 55.1666 51.4402 54.8707 50.3861 54.8707C49.3135 54.8707 48.3703 55.1666 47.5565 55.7584C46.7428 56.3502 46.1048 57.2009 45.6424 58.3106C45.1801 59.4202 44.9489 60.7425 44.9489 62.2775C44.9489 63.8125 45.1801 65.1348 45.6424 66.2444C46.1048 67.354 46.7428 68.2047 47.5565 68.7965C48.3703 69.3883 49.3135 69.6842 50.3861 69.6842ZM57.8449 75.2601L59.4538 68.7133H62.3666L59.8144 75.2601H57.8449ZM70.7193 72.3196C69.2953 72.3196 68.0932 72.0514 67.1131 71.5151C66.1329 70.9788 65.3376 70.2668 64.7274 69.3791C64.1356 68.4914 63.7102 67.4927 63.4513 66.3831C63.1924 65.2735 63.0629 64.1361 63.0629 62.971C63.0629 60.8257 63.3588 58.9486 63.9506 57.3396C64.5609 55.7307 65.4301 54.4823 66.5582 53.5946C67.6864 52.6885 69.0549 52.2354 70.6639 52.2354C71.9399 52.2354 73.0311 52.485 73.9373 52.9844C74.8434 53.4837 75.5462 54.1495 76.0455 54.9817C76.5634 55.8139 76.8778 56.7201 76.9887 57.7003H74.2424C74.076 56.7386 73.6783 55.9988 73.0495 55.481C72.4208 54.9632 71.6163 54.7043 70.6361 54.7043C69.2861 54.7043 68.1672 55.3423 67.2795 56.6184C66.4103 57.876 65.9479 59.8178 65.8925 62.4439C66.3363 61.6302 67.0206 60.9367 67.9453 60.3634C68.8885 59.7901 69.9703 59.5034 71.1909 59.5034C72.2821 59.5034 73.2992 59.7623 74.2424 60.2801C75.2041 60.798 75.9808 61.5285 76.5726 62.4717C77.1829 63.3963 77.4881 64.4967 77.4881 65.7728C77.4881 66.9009 77.2106 67.9643 76.6558 68.963C76.101 69.9616 75.315 70.7754 74.2979 71.4041C73.2992 72.0144 72.1064 72.3196 70.7193 72.3196ZM70.5529 69.7674C71.3296 69.7674 72.0231 69.601 72.6334 69.2681C73.2437 68.9352 73.7246 68.4821 74.076 67.9088C74.4273 67.317 74.603 66.6512 74.603 65.9115C74.603 64.7279 74.2147 63.7847 73.4379 63.0819C72.6797 62.3792 71.7088 62.0278 70.5252 62.0278C69.7484 62.0278 69.0456 62.2035 68.4169 62.5549C67.8066 62.9063 67.3257 63.3778 66.9743 63.9696C66.623 64.543 66.4473 65.181 66.4473 65.8838C66.4473 66.642 66.623 67.317 66.9743 67.9088C67.3442 68.4821 67.8343 68.9352 68.4446 69.2681C69.0734 69.601 69.7762 69.7674 70.5529 69.7674ZM88.3024 71.9867V68.103H78.5654V65.7728L87.8308 52.5682H91.2151V65.5509H93.9337V68.103H91.2151V71.9867H88.3024ZM81.7556 65.5509H88.4688V55.8139L81.7556 65.5509ZM94.684 71.9867V69.8784C95.9416 68.8797 97.1437 67.8718 98.2903 66.8547C99.4369 65.8375 100.454 64.8389 101.342 63.8587C102.248 62.86 102.96 61.8891 103.478 60.9459C103.996 59.9842 104.255 59.0596 104.255 58.1719C104.255 57.5801 104.153 57.0252 103.949 56.5074C103.746 55.9711 103.413 55.5457 102.951 55.2313C102.488 54.8985 101.869 54.732 101.092 54.732C99.927 54.732 99.0485 55.1019 98.4567 55.8416C97.8834 56.5814 97.606 57.4691 97.6245 58.5047H94.7672C94.7857 57.1362 95.0724 55.9896 95.6272 55.0649C96.2005 54.1402 96.9587 53.4374 97.9019 52.9566C98.8636 52.4758 99.9455 52.2354 101.148 52.2354C102.978 52.2354 104.439 52.7532 105.531 53.7888C106.64 54.806 107.195 56.23 107.195 58.0609C107.195 59.152 106.927 60.2339 106.391 61.3065C105.873 62.3792 105.188 63.4148 104.338 64.4135C103.506 65.3937 102.609 66.3184 101.647 67.1876C100.685 68.0568 99.7698 68.8428 98.9006 69.5455H107.778V71.9867H94.684Z" fill="#121212"/>
<rect x="129.935" y="53.8212" width="39.3278" height="17.3311" rx="6.66389" fill="#DAFFE9"/>
<path d="M137.078 63.5195V62.8078H138.59V61.3924H139.325V62.8078H140.837V63.5195H139.325V64.9429H138.59V63.5195H137.078ZM144.034 65.4867V64.3672H141.227V63.6954L143.898 59.889H144.874V63.6315H145.658V64.3672H144.874V65.4867H144.034ZM142.147 63.6315H144.082V60.8246L142.147 63.6315ZM147.945 65.5827C147.577 65.5827 147.263 65.5107 147.001 65.3667C146.74 65.2228 146.535 65.0309 146.386 64.791C146.242 64.5511 146.154 64.2899 146.122 64.0073H146.913C146.961 64.2845 147.076 64.4978 147.257 64.647C147.439 64.7963 147.67 64.871 147.953 64.871C148.342 64.871 148.662 64.6897 148.913 64.3272C149.169 63.9593 149.304 63.3969 149.32 62.6399C149.193 62.8744 148.993 63.0744 148.721 63.2396C148.454 63.4049 148.145 63.4875 147.793 63.4875C147.479 63.4875 147.183 63.4129 146.905 63.2636C146.628 63.1143 146.404 62.9064 146.234 62.6399C146.063 62.368 145.978 62.0481 145.978 61.6803C145.978 61.3551 146.058 61.0485 146.218 60.7607C146.378 60.4728 146.602 60.2409 146.889 60.065C147.183 59.8837 147.529 59.7931 147.929 59.7931C148.34 59.7931 148.686 59.8704 148.969 60.025C149.251 60.1796 149.478 60.3848 149.648 60.6407C149.819 60.8966 149.942 61.1845 150.016 61.5044C150.096 61.8242 150.136 62.1521 150.136 62.4879C150.136 63.1064 150.048 63.6475 149.872 64.1113C149.702 64.5751 149.454 64.9376 149.129 65.1988C148.803 65.4547 148.409 65.5827 147.945 65.5827ZM147.985 62.7598C148.209 62.7598 148.409 62.7092 148.585 62.6079C148.761 62.5066 148.899 62.3733 149.001 62.2081C149.107 62.0375 149.161 61.8509 149.161 61.6483C149.161 61.4297 149.107 61.2378 149.001 61.0725C148.899 60.9019 148.758 60.7687 148.577 60.6727C148.401 60.5767 148.201 60.5288 147.977 60.5288C147.753 60.5288 147.553 60.5767 147.377 60.6727C147.201 60.7687 147.06 60.9019 146.953 61.0725C146.852 61.2378 146.802 61.4271 146.802 61.6403C146.802 61.9815 146.913 62.2534 147.137 62.456C147.361 62.6585 147.644 62.7598 147.985 62.7598ZM152.958 65.5827C152.451 65.5827 152.014 65.4627 151.646 65.2228C151.284 64.9776 151.004 64.639 150.807 64.2072C150.615 63.7701 150.519 63.2636 150.519 62.6879C150.519 62.1121 150.615 61.6083 150.807 61.1765C151.004 60.7393 151.284 60.4008 151.646 60.1609C152.014 59.9157 152.451 59.7931 152.958 59.7931C153.464 59.7931 153.899 59.9157 154.261 60.1609C154.624 60.4008 154.901 60.7393 155.093 61.1765C155.29 61.6083 155.389 62.1121 155.389 62.6879C155.389 63.2636 155.29 63.7701 155.093 64.2072C154.901 64.639 154.624 64.9776 154.261 65.2228C153.899 65.4627 153.464 65.5827 152.958 65.5827ZM152.958 64.823C153.261 64.823 153.531 64.7377 153.765 64.5671C154.005 64.3965 154.192 64.1513 154.325 63.8314C154.458 63.5115 154.525 63.1303 154.525 62.6879C154.525 62.2454 154.458 61.8642 154.325 61.5443C154.192 61.2245 154.005 60.9792 153.765 60.8086C153.531 60.638 153.261 60.5528 152.958 60.5528C152.648 60.5528 152.377 60.638 152.142 60.8086C151.907 60.9792 151.723 61.2245 151.59 61.5443C151.457 61.8642 151.39 62.2454 151.39 62.6879C151.39 63.1303 151.457 63.5115 151.59 63.8314C151.723 64.1513 151.907 64.3965 152.142 64.5671C152.377 64.7377 152.648 64.823 152.958 64.823ZM157.013 62.5599C156.763 62.5599 156.536 62.5039 156.333 62.392C156.136 62.28 155.979 62.1228 155.862 61.9202C155.744 61.7123 155.686 61.4644 155.686 61.1765C155.686 60.8939 155.744 60.6514 155.862 60.4488C155.979 60.2409 156.139 60.0809 156.341 59.969C156.544 59.857 156.771 59.8011 157.021 59.8011C157.266 59.8011 157.488 59.857 157.685 59.969C157.887 60.0809 158.047 60.2409 158.165 60.4488C158.282 60.6514 158.341 60.8939 158.341 61.1765C158.341 61.4644 158.282 61.7123 158.165 61.9202C158.047 62.1228 157.887 62.28 157.685 62.392C157.488 62.5039 157.264 62.5599 157.013 62.5599ZM156.613 65.4867L159.82 59.889H160.652L157.453 65.4867H156.613ZM157.013 61.9522C157.184 61.9522 157.33 61.8882 157.453 61.7602C157.581 61.627 157.645 61.4324 157.645 61.1765C157.645 60.9206 157.584 60.7287 157.461 60.6007C157.338 60.4675 157.189 60.4008 157.013 60.4008C156.843 60.4008 156.693 60.4675 156.565 60.6007C156.437 60.7287 156.373 60.9206 156.373 61.1765C156.373 61.4324 156.435 61.627 156.557 61.7602C156.685 61.8882 156.837 61.9522 157.013 61.9522ZM160.3 65.5827C160.049 65.5827 159.823 65.5267 159.62 65.4147C159.423 65.3028 159.266 65.1455 159.148 64.9429C159.031 64.735 158.972 64.4871 158.972 64.1992C158.972 63.9167 159.031 63.6715 159.148 63.4635C159.266 63.2556 159.425 63.0957 159.628 62.9837C159.831 62.8718 160.057 62.8158 160.308 62.8158C160.553 62.8158 160.774 62.8718 160.971 62.9837C161.174 63.0957 161.334 63.2556 161.451 63.4635C161.569 63.6715 161.627 63.9167 161.627 64.1992C161.627 64.4871 161.569 64.735 161.451 64.9429C161.334 65.1455 161.174 65.3028 160.971 65.4147C160.774 65.5267 160.55 65.5827 160.3 65.5827ZM160.3 64.9669C160.47 64.9669 160.617 64.9029 160.74 64.775C160.868 64.647 160.931 64.4551 160.931 64.1992C160.931 63.9433 160.87 63.7514 160.748 63.6235C160.625 63.4902 160.476 63.4236 160.3 63.4236C160.129 63.4236 159.98 63.4902 159.852 63.6235C159.724 63.7514 159.66 63.9433 159.66 64.1992C159.66 64.4551 159.721 64.647 159.844 64.775C159.972 64.9029 160.124 64.9669 160.3 64.9669Z" fill="#0E803B"/>
<path fill-rule="evenodd" clip-rule="evenodd" d="M34.9851 118.302C39.5856 118.302 43.315 122.031 43.315 126.632L43.315 153.954C43.315 158.554 39.5856 162.284 34.9851 162.284C30.3847 162.284 26.6553 158.554 26.6553 153.954L26.6553 126.632C26.6553 122.031 30.3847 118.302 34.9851 118.302Z" fill="#7551DC"/>
<path fill-rule="evenodd" clip-rule="evenodd" d="M66.4724 108.306C71.0729 108.306 74.8023 112.036 74.8023 116.636L74.8023 153.954C74.8023 158.554 71.0729 162.284 66.4724 162.284C61.872 162.284 58.1426 158.554 58.1426 153.954L58.1426 116.636C58.1426 112.036 61.872 108.306 66.4724 108.306Z" fill="#7551DC"/>
<path fill-rule="evenodd" clip-rule="evenodd" d="M97.9588 103.641C102.559 103.641 106.289 107.371 106.289 111.971L106.289 153.954C106.289 158.554 102.559 162.284 97.9588 162.284C93.3583 162.284 89.6289 158.554 89.6289 153.954L89.6289 111.971C89.6289 107.371 93.3583 103.641 97.9588 103.641Z" fill="#7551DC"/>
<path fill-rule="evenodd" clip-rule="evenodd" d="M129.446 87.6457C134.047 87.6457 137.776 91.3751 137.776 95.9756V153.954C137.776 158.554 134.047 162.284 129.446 162.284C124.846 162.284 121.116 158.554 121.116 153.954V95.9756C121.116 91.3751 124.846 87.6457 129.446 87.6457Z" fill="#7551DC"/>
<path fill-rule="evenodd" clip-rule="evenodd" d="M160.932 87.6481C165.533 87.6481 169.262 91.3775 169.262 95.9779L169.262 153.954C169.262 158.554 165.533 162.284 160.932 162.284C156.332 162.284 152.603 158.554 152.603 153.954L152.603 95.9779C152.603 91.3775 156.332 87.6481 160.932 87.6481Z" fill="#7551DC"/>
<g filter="url(#filter0_d_2042_14)">
<rect x="47" y="132.47" width="180.684" height="67.7501" rx="33.8751" fill="white" shape-rendering="crispEdges"/>
<circle cx="80.8749" cy="166.345" r="21.2704" fill="#FFCC6A"/>
<path d="M71.6836 166.717L80.9837 157.416M80.9837 157.416L90.2839 166.717M80.9837 157.416V176.017" stroke="#7551DC" stroke-width="3.15117" stroke-linecap="round" stroke-linejoin="round"/>
<path d="M110.859 159.244V150.844H115.971V151.672H111.867V154.624H115.359V155.44H111.867V159.244H110.859ZM119.303 159.388C118.743 159.388 118.239 159.26 117.791 159.004C117.343 158.748 116.987 158.388 116.723 157.924C116.467 157.452 116.339 156.9 116.339 156.268C116.339 155.636 116.471 155.088 116.735 154.624C116.999 154.152 117.355 153.788 117.803 153.532C118.259 153.276 118.767 153.148 119.327 153.148C119.887 153.148 120.391 153.276 120.839 153.532C121.287 153.788 121.639 154.152 121.895 154.624C122.159 155.088 122.291 155.636 122.291 156.268C122.291 156.9 122.159 157.452 121.895 157.924C121.631 158.388 121.271 158.748 120.815 159.004C120.367 159.26 119.863 159.388 119.303 159.388ZM119.303 158.524C119.647 158.524 119.967 158.44 120.263 158.272C120.559 158.104 120.799 157.852 120.983 157.516C121.167 157.18 121.259 156.764 121.259 156.268C121.259 155.772 121.167 155.356 120.983 155.02C120.807 154.684 120.571 154.432 120.275 154.264C119.979 154.096 119.663 154.012 119.327 154.012C118.983 154.012 118.663 154.096 118.367 154.264C118.071 154.432 117.831 154.684 117.647 155.02C117.463 155.356 117.371 155.772 117.371 156.268C117.371 156.764 117.463 157.18 117.647 157.516C117.831 157.852 118.067 158.104 118.355 158.272C118.651 158.44 118.967 158.524 119.303 158.524ZM123.333 159.244V150.604H124.341V159.244H123.333ZM125.633 159.244V150.604H126.641V159.244H125.633ZM130.645 159.388C130.085 159.388 129.581 159.26 129.133 159.004C128.685 158.748 128.329 158.388 128.065 157.924C127.809 157.452 127.681 156.9 127.681 156.268C127.681 155.636 127.813 155.088 128.077 154.624C128.341 154.152 128.697 153.788 129.145 153.532C129.601 153.276 130.109 153.148 130.669 153.148C131.229 153.148 131.733 153.276 132.181 153.532C132.629 153.788 132.981 154.152 133.237 154.624C133.501 155.088 133.633 155.636 133.633 156.268C133.633 156.9 133.501 157.452 133.237 157.924C132.973 158.388 132.613 158.748 132.157 159.004C131.709 159.26 131.205 159.388 130.645 159.388ZM130.645 158.524C130.989 158.524 131.309 158.44 131.605 158.272C131.901 158.104 132.141 157.852 132.325 157.516C132.509 157.18 132.601 156.764 132.601 156.268C132.601 155.772 132.509 155.356 132.325 155.02C132.149 154.684 131.913 154.432 131.617 154.264C131.321 154.096 131.005 154.012 130.669 154.012C130.325 154.012 130.005 154.096 129.709 154.264C129.413 154.432 129.173 154.684 128.989 155.02C128.805 155.356 128.713 155.772 128.713 156.268C128.713 156.764 128.805 157.18 128.989 157.516C129.173 157.852 129.409 158.104 129.697 158.272C129.993 158.44 130.309 158.524 130.645 158.524ZM135.652 159.244L133.912 153.292H134.92L136.18 157.96L137.572 153.292H138.712L140.116 157.96L141.364 153.292H142.384L140.644 159.244H139.612L138.148 154.336L136.684 159.244H135.652ZM145.592 159.388C145.024 159.388 144.52 159.26 144.08 159.004C143.64 158.74 143.292 158.376 143.036 157.912C142.788 157.448 142.664 156.9 142.664 156.268C142.664 155.644 142.788 155.1 143.036 154.636C143.284 154.164 143.628 153.8 144.068 153.544C144.516 153.28 145.032 153.148 145.616 153.148C146.192 153.148 146.688 153.28 147.104 153.544C147.528 153.8 147.852 154.14 148.076 154.564C148.3 154.988 148.412 155.444 148.412 155.932C148.412 156.02 148.408 156.108 148.4 156.196C148.4 156.284 148.4 156.384 148.4 156.496H143.66C143.684 156.952 143.788 157.332 143.972 157.636C144.164 157.932 144.4 158.156 144.68 158.308C144.968 158.46 145.272 158.536 145.592 158.536C146.008 158.536 146.356 158.44 146.636 158.248C146.916 158.056 147.12 157.796 147.248 157.468H148.244C148.084 158.02 147.776 158.48 147.32 158.848C146.872 159.208 146.296 159.388 145.592 159.388ZM145.592 154C145.112 154 144.684 154.148 144.308 154.444C143.94 154.732 143.728 155.156 143.672 155.716H147.416C147.392 155.18 147.208 154.76 146.864 154.456C146.52 154.152 146.096 154 145.592 154ZM149.388 159.244V153.292H150.3L150.384 154.432C150.568 154.04 150.848 153.728 151.224 153.496C151.6 153.264 152.064 153.148 152.616 153.148V154.204H152.34C151.988 154.204 151.664 154.268 151.368 154.396C151.072 154.516 150.836 154.724 150.66 155.02C150.484 155.316 150.396 155.724 150.396 156.244V159.244H149.388ZM155.667 159.388C154.955 159.388 154.363 159.208 153.891 158.848C153.419 158.488 153.143 158 153.063 157.384H154.095C154.159 157.696 154.323 157.968 154.587 158.2C154.859 158.424 155.223 158.536 155.679 158.536C156.103 158.536 156.415 158.448 156.615 158.272C156.815 158.088 156.915 157.872 156.915 157.624C156.915 157.264 156.783 157.024 156.519 156.904C156.263 156.784 155.899 156.676 155.427 156.58C155.107 156.516 154.787 156.424 154.467 156.304C154.147 156.184 153.879 156.016 153.663 155.8C153.447 155.576 153.339 155.284 153.339 154.924C153.339 154.404 153.531 153.98 153.915 153.652C154.307 153.316 154.835 153.148 155.499 153.148C156.131 153.148 156.647 153.308 157.047 153.628C157.455 153.94 157.691 154.388 157.755 154.972H156.759C156.719 154.668 156.587 154.432 156.363 154.264C156.147 154.088 155.855 154 155.487 154C155.127 154 154.847 154.076 154.647 154.228C154.455 154.38 154.359 154.58 154.359 154.828C154.359 155.068 154.483 155.256 154.731 155.392C154.987 155.528 155.331 155.644 155.763 155.74C156.131 155.82 156.479 155.92 156.807 156.04C157.143 156.152 157.415 156.324 157.623 156.556C157.839 156.78 157.947 157.108 157.947 157.54C157.955 158.076 157.751 158.52 157.335 158.872C156.927 159.216 156.371 159.388 155.667 159.388Z" fill="#9E9E9E"/>
<path d="M116.171 183.685C115.237 183.685 114.391 183.519 113.631 183.185C112.884 182.839 112.284 182.359 111.831 181.745C111.391 181.132 111.171 180.412 111.171 179.585C111.171 178.745 111.404 177.992 111.871 177.325C112.351 176.659 112.984 176.205 113.771 175.965C113.064 175.685 112.517 175.279 112.131 174.745C111.744 174.199 111.551 173.599 111.551 172.945C111.551 172.265 111.731 171.645 112.091 171.085C112.451 170.512 112.971 170.059 113.651 169.725C114.344 169.379 115.184 169.205 116.171 169.205C117.157 169.205 117.991 169.379 118.671 169.725C119.364 170.059 119.891 170.512 120.251 171.085C120.611 171.645 120.791 172.265 120.791 172.945C120.791 173.585 120.591 174.185 120.191 174.745C119.804 175.292 119.257 175.699 118.551 175.965C119.337 176.219 119.964 176.679 120.431 177.345C120.911 177.999 121.151 178.745 121.151 179.585C121.151 180.412 120.931 181.132 120.491 181.745C120.051 182.359 119.451 182.839 118.691 183.185C117.944 183.519 117.104 183.685 116.171 183.685ZM116.171 175.285C116.944 175.285 117.551 175.085 117.991 174.685C118.444 174.285 118.671 173.772 118.671 173.145C118.671 172.439 118.451 171.899 118.011 171.525C117.571 171.152 116.957 170.965 116.171 170.965C115.384 170.965 114.771 171.152 114.331 171.525C113.891 171.899 113.671 172.439 113.671 173.145C113.671 173.772 113.891 174.285 114.331 174.685C114.771 175.085 115.384 175.285 116.171 175.285ZM116.171 181.885C117.131 181.885 117.851 181.659 118.331 181.205C118.811 180.739 119.051 180.145 119.051 179.425C119.051 178.625 118.791 178.012 118.271 177.585C117.764 177.145 117.064 176.925 116.171 176.925C115.277 176.925 114.571 177.145 114.051 177.585C113.531 178.012 113.271 178.625 113.271 179.425C113.271 180.145 113.511 180.739 113.991 181.205C114.484 181.659 115.211 181.885 116.171 181.885ZM126.766 183.685C125.846 183.685 125.059 183.505 124.406 183.145C123.752 182.785 123.239 182.305 122.866 181.705C122.506 181.105 122.286 180.452 122.206 179.745H124.186C124.306 180.439 124.592 180.972 125.046 181.345C125.499 181.719 126.079 181.905 126.786 181.905C127.759 181.905 128.559 181.452 129.186 180.545C129.826 179.625 130.166 178.219 130.206 176.325C129.886 176.912 129.386 177.412 128.706 177.825C128.039 178.239 127.266 178.445 126.386 178.445C125.599 178.445 124.859 178.259 124.166 177.885C123.472 177.512 122.912 176.992 122.486 176.325C122.059 175.645 121.846 174.845 121.846 173.925C121.846 173.112 122.046 172.345 122.446 171.625C122.846 170.905 123.406 170.325 124.126 169.885C124.859 169.432 125.726 169.205 126.726 169.205C127.752 169.205 128.619 169.399 129.326 169.785C130.032 170.172 130.599 170.685 131.026 171.325C131.452 171.965 131.759 172.685 131.946 173.485C132.146 174.285 132.246 175.105 132.246 175.945C132.246 177.492 132.026 178.845 131.586 180.005C131.159 181.165 130.539 182.072 129.726 182.725C128.912 183.365 127.926 183.685 126.766 183.685ZM126.866 176.625C127.426 176.625 127.926 176.499 128.366 176.245C128.806 175.992 129.152 175.659 129.406 175.245C129.672 174.819 129.806 174.352 129.806 173.845C129.806 173.299 129.672 172.819 129.406 172.405C129.152 171.979 128.799 171.645 128.346 171.405C127.906 171.165 127.406 171.045 126.846 171.045C126.286 171.045 125.786 171.165 125.346 171.405C124.906 171.645 124.552 171.979 124.286 172.405C124.032 172.819 123.906 173.292 123.906 173.825C123.906 174.679 124.186 175.359 124.746 175.865C125.306 176.372 126.012 176.625 126.866 176.625ZM132.242 185.805L133.402 181.085H135.502L133.662 185.805H132.242ZM141.264 183.685C140.278 183.685 139.424 183.512 138.704 183.165C137.984 182.805 137.411 182.319 136.984 181.705C136.571 181.079 136.318 180.372 136.224 179.585H138.304C138.438 180.252 138.771 180.805 139.304 181.245C139.838 181.672 140.498 181.885 141.284 181.885C141.871 181.885 142.378 181.745 142.804 181.465C143.231 181.172 143.564 180.785 143.804 180.305C144.044 179.825 144.164 179.285 144.164 178.685C144.164 177.739 143.898 176.985 143.364 176.425C142.831 175.852 142.158 175.565 141.344 175.565C140.651 175.565 140.058 175.732 139.564 176.065C139.071 176.385 138.711 176.792 138.484 177.285H136.464L137.664 169.445H145.224V171.305H139.264L138.544 175.045C138.851 174.699 139.271 174.412 139.804 174.185C140.351 173.945 140.964 173.825 141.644 173.825C142.591 173.825 143.404 174.045 144.084 174.485C144.764 174.912 145.284 175.492 145.644 176.225C146.018 176.959 146.204 177.772 146.204 178.665C146.204 179.599 146.004 180.445 145.604 181.205C145.204 181.965 144.631 182.572 143.884 183.025C143.151 183.465 142.278 183.685 141.264 183.685ZM151.989 183.685C151.082 183.685 150.255 183.525 149.509 183.205C148.775 182.872 148.189 182.372 147.749 181.705C147.309 181.039 147.075 180.205 147.049 179.205H149.149C149.175 179.952 149.429 180.585 149.909 181.105C150.402 181.612 151.095 181.865 151.989 181.865C152.842 181.865 153.495 181.632 153.949 181.165C154.402 180.685 154.629 180.092 154.629 179.385C154.629 178.532 154.322 177.899 153.709 177.485C153.109 177.072 152.369 176.865 151.489 176.865H150.449V175.105H151.509C152.295 175.105 152.929 174.919 153.409 174.545C153.902 174.172 154.149 173.645 154.149 172.965C154.149 172.392 153.955 171.925 153.569 171.565C153.195 171.205 152.662 171.025 151.969 171.025C151.249 171.025 150.682 171.239 150.269 171.665C149.855 172.079 149.629 172.599 149.589 173.225H147.489C147.515 172.412 147.715 171.705 148.089 171.105C148.475 170.505 149.002 170.039 149.669 169.705C150.335 169.372 151.102 169.205 151.969 169.205C152.902 169.205 153.682 169.372 154.309 169.705C154.949 170.025 155.429 170.465 155.749 171.025C156.082 171.572 156.249 172.172 156.249 172.825C156.249 173.572 156.042 174.225 155.629 174.785C155.215 175.345 154.662 175.719 153.969 175.905C154.769 176.079 155.429 176.472 155.949 177.085C156.469 177.685 156.729 178.465 156.729 179.425C156.729 180.199 156.549 180.912 156.189 181.565C155.829 182.205 155.295 182.719 154.589 183.105C153.882 183.492 153.015 183.685 151.989 183.685ZM157.865 183.445V181.925C158.771 181.205 159.638 180.479 160.465 179.745C161.291 179.012 162.025 178.292 162.665 177.585C163.318 176.865 163.831 176.165 164.205 175.485C164.578 174.792 164.765 174.125 164.765 173.485C164.765 173.059 164.691 172.659 164.545 172.285C164.398 171.899 164.158 171.592 163.825 171.365C163.491 171.125 163.045 171.005 162.485 171.005C161.645 171.005 161.011 171.272 160.585 171.805C160.171 172.339 159.971 172.979 159.985 173.725H157.925C157.938 172.739 158.145 171.912 158.545 171.245C158.958 170.579 159.505 170.072 160.185 169.725C160.878 169.379 161.658 169.205 162.525 169.205C163.845 169.205 164.898 169.579 165.685 170.325C166.485 171.059 166.885 172.085 166.885 173.405C166.885 174.192 166.691 174.972 166.305 175.745C165.931 176.519 165.438 177.265 164.825 177.985C164.225 178.692 163.578 179.359 162.885 179.985C162.191 180.612 161.531 181.179 160.905 181.685H167.305V183.445H157.865Z" fill="#121212"/>
<rect x="181.575" y="168.345" width="33.5039" height="16.2016" rx="5.25195" fill="#DAFFE9"/>
<path d="M187.307 177.478V176.767H188.818V175.351H189.554V176.767H191.065V177.478H189.554V178.902H188.818V177.478H187.307ZM192.288 179.445V174.807L191.384 175.015V174.392L192.623 173.848H193.167V179.445H192.288ZM193.793 179.445V178.838C194.155 178.55 194.502 178.259 194.832 177.966C195.163 177.673 195.456 177.385 195.712 177.102C195.973 176.815 196.178 176.535 196.328 176.263C196.477 175.986 196.552 175.719 196.552 175.463C196.552 175.292 196.522 175.133 196.464 174.983C196.405 174.829 196.309 174.706 196.176 174.615C196.042 174.519 195.864 174.472 195.64 174.472C195.304 174.472 195.051 174.578 194.88 174.791C194.715 175.005 194.635 175.261 194.64 175.559H193.817C193.822 175.165 193.905 174.834 194.065 174.567C194.23 174.301 194.448 174.098 194.72 173.96C194.998 173.821 195.309 173.752 195.656 173.752C196.184 173.752 196.605 173.901 196.919 174.2C197.239 174.493 197.399 174.903 197.399 175.431C197.399 175.746 197.322 176.058 197.167 176.367C197.018 176.676 196.821 176.974 196.576 177.262C196.336 177.545 196.077 177.811 195.8 178.062C195.523 178.313 195.259 178.539 195.008 178.742H197.567V179.445H193.793ZM200.258 179.541C199.751 179.541 199.314 179.421 198.946 179.182C198.584 178.936 198.304 178.598 198.107 178.166C197.915 177.729 197.819 177.222 197.819 176.647C197.819 176.071 197.915 175.567 198.107 175.135C198.304 174.698 198.584 174.36 198.946 174.12C199.314 173.874 199.751 173.752 200.258 173.752C200.764 173.752 201.199 173.874 201.561 174.12C201.924 174.36 202.201 174.698 202.393 175.135C202.59 175.567 202.689 176.071 202.689 176.647C202.689 177.222 202.59 177.729 202.393 178.166C202.201 178.598 201.924 178.936 201.561 179.182C201.199 179.421 200.764 179.541 200.258 179.541ZM200.258 178.782C200.562 178.782 200.831 178.696 201.065 178.526C201.305 178.355 201.492 178.11 201.625 177.79C201.758 177.47 201.825 177.089 201.825 176.647C201.825 176.204 201.758 175.823 201.625 175.503C201.492 175.183 201.305 174.938 201.065 174.767C200.831 174.597 200.562 174.511 200.258 174.511C199.948 174.511 199.677 174.597 199.442 174.767C199.207 174.938 199.024 175.183 198.89 175.503C198.757 175.823 198.69 176.204 198.69 176.647C198.69 177.089 198.757 177.47 198.89 177.79C199.024 178.11 199.207 178.355 199.442 178.526C199.677 178.696 199.948 178.782 200.258 178.782ZM204.313 176.519C204.063 176.519 203.836 176.463 203.633 176.351C203.436 176.239 203.279 176.082 203.162 175.879C203.044 175.671 202.986 175.423 202.986 175.135C202.986 174.853 203.044 174.61 203.162 174.408C203.279 174.2 203.439 174.04 203.641 173.928C203.844 173.816 204.071 173.76 204.321 173.76C204.566 173.76 204.788 173.816 204.985 173.928C205.187 174.04 205.347 174.2 205.465 174.408C205.582 174.61 205.641 174.853 205.641 175.135C205.641 175.423 205.582 175.671 205.465 175.879C205.347 176.082 205.187 176.239 204.985 176.351C204.788 176.463 204.564 176.519 204.313 176.519ZM203.913 179.445L207.12 173.848H207.952L204.753 179.445H203.913ZM204.313 175.911C204.484 175.911 204.63 175.847 204.753 175.719C204.881 175.586 204.945 175.391 204.945 175.135C204.945 174.879 204.884 174.687 204.761 174.559C204.638 174.426 204.489 174.36 204.313 174.36C204.143 174.36 203.993 174.426 203.865 174.559C203.737 174.687 203.673 174.879 203.673 175.135C203.673 175.391 203.735 175.586 203.857 175.719C203.985 175.847 204.137 175.911 204.313 175.911ZM207.6 179.541C207.349 179.541 207.123 179.485 206.92 179.373C206.723 179.262 206.566 179.104 206.448 178.902C206.331 178.694 206.272 178.446 206.272 178.158C206.272 177.875 206.331 177.63 206.448 177.422C206.566 177.214 206.725 177.054 206.928 176.942C207.131 176.831 207.357 176.775 207.608 176.775C207.853 176.775 208.074 176.831 208.272 176.942C208.474 177.054 208.634 177.214 208.751 177.422C208.869 177.63 208.927 177.875 208.927 178.158C208.927 178.446 208.869 178.694 208.751 178.902C208.634 179.104 208.474 179.262 208.272 179.373C208.074 179.485 207.85 179.541 207.6 179.541ZM207.6 178.926C207.77 178.926 207.917 178.862 208.04 178.734C208.168 178.606 208.232 178.414 208.232 178.158C208.232 177.902 208.17 177.71 208.048 177.582C207.925 177.449 207.776 177.382 207.6 177.382C207.429 177.382 207.28 177.449 207.152 177.582C207.024 177.71 206.96 177.902 206.96 178.158C206.96 178.414 207.021 178.606 207.144 178.734C207.272 178.862 207.424 178.926 207.6 178.926Z" fill="#0E803B"/>
</g>
<defs>
<filter id="filter0_d_2042_14" x="12.7649" y="119.754" width="229.591" height="116.657" filterUnits="userSpaceOnUse" color-interpolation-filters="sRGB">
<feFlood flood-opacity="0" result="BackgroundImageFix"/>
<feColorMatrix in="SourceAlpha" type="matrix" values="0 0 0 0 0 0 0 0 0 0 0 0 0 0 0 0 0 0 127 0" result="hardAlpha"/>
<feOffset dx="-9.78145" dy="11.7377"/>
<feGaussianBlur stdDeviation="12.2268"/>
<feComposite in2="hardAlpha" operator="out"/>
<feColorMatrix type="matrix" values="0 0 0 0 0.384371 0 0 0 0 0.102708 0 0 0 0 0.483333 0 0 0 0.05 0"/>
<feBlend mode="normal" in2="BackgroundImageFix" result="effect1_dropShadow_2042_14"/>
<feBlend mode="normal" in="SourceGraphic" in2="effect1_dropShadow_2042_14" result="shape"/>
</filter>
</defs>
</svg>
