<svg width="68" height="34" viewBox="0 0 68 34" fill="none" xmlns="http://www.w3.org/2000/svg">
<path d="M6.96 15.264C5.81867 15.264 4.816 15.04 3.952 14.592C3.088 14.144 2.416 13.504 1.936 12.672C1.456 11.8507 1.216 10.88 1.216 9.76C1.216 8.61867 1.408 7.55733 1.792 6.576C2.18667 5.59467 2.736 4.74133 3.44 4.016C4.15467 3.28 4.99733 2.70933 5.968 2.304C6.94933 1.888 8.032 1.68 9.216 1.68C10.4107 1.68 11.4453 1.90933 12.32 2.368C13.2053 2.82667 13.888 3.46667 14.368 4.288C14.8587 5.09867 15.104 6.04267 15.104 7.12C15.104 7.74933 15.0293 8.35733 14.88 8.944C14.7307 9.53067 14.5013 10.064 14.192 10.544C13.8933 11.0133 13.5307 11.392 13.104 11.68C12.6773 11.9573 12.1813 12.096 11.616 12.096C10.944 12.096 10.4533 11.8933 10.144 11.488C9.84533 11.0827 9.73867 10.5547 9.824 9.904L9.872 9.376L10.16 9.968C9.89333 10.6293 9.472 11.152 8.896 11.536C8.33067 11.9093 7.70667 12.096 7.024 12.096C6.23467 12.096 5.61067 11.856 5.152 11.376C4.704 10.8853 4.48 10.2187 4.48 9.376C4.48 8.78933 4.57067 8.22933 4.752 7.696C4.944 7.16267 5.20533 6.688 5.536 6.272C5.86667 5.84533 6.26133 5.50933 6.72 5.264C7.18933 5.01867 7.70667 4.896 8.272 4.896C8.912 4.896 9.41867 5.06667 9.792 5.408C10.1653 5.73867 10.3893 6.224 10.464 6.864L10.128 7.072L10.496 5.056H11.824L11.04 9.536C10.9653 9.97333 10.9867 10.3307 11.104 10.608C11.2213 10.8747 11.4667 11.008 11.84 11.008C12.1707 11.008 12.4587 10.8907 12.704 10.656C12.9493 10.4213 13.1573 10.1173 13.328 9.744C13.4987 9.36 13.6267 8.944 13.712 8.496C13.7973 8.048 13.84 7.61067 13.84 7.184C13.84 6.26667 13.6427 5.48267 13.248 4.832C12.864 4.18133 12.3147 3.68 11.6 3.328C10.8853 2.96533 10.032 2.784 9.04 2.784C8.08 2.784 7.2 2.96 6.4 3.312C5.6 3.664 4.90667 4.15467 4.32 4.784C3.73333 5.40267 3.28 6.128 2.96 6.96C2.64 7.792 2.48 8.68267 2.48 9.632C2.48 10.592 2.66667 11.408 3.04 12.08C3.424 12.752 3.968 13.2587 4.672 13.6C5.38667 13.952 6.22933 14.128 7.2 14.128C7.66933 14.128 8.13333 14.08 8.592 13.984C9.06133 13.8987 9.49333 13.7653 9.888 13.584L10.16 14.656C9.66933 14.8587 9.152 15.008 8.608 15.104C8.07467 15.2107 7.52533 15.264 6.96 15.264ZM7.52 10.896C7.936 10.896 8.32 10.784 8.672 10.56C9.024 10.3253 9.31733 10.0053 9.552 9.6C9.78667 9.184 9.92533 8.70933 9.968 8.176C10.0107 7.792 9.97333 7.44533 9.856 7.136C9.74933 6.816 9.568 6.56533 9.312 6.384C9.06667 6.192 8.74667 6.096 8.352 6.096C7.97867 6.096 7.63733 6.18133 7.328 6.352C7.02933 6.52267 6.77333 6.752 6.56 7.04C6.35733 7.328 6.19733 7.65333 6.08 8.016C5.97333 8.37867 5.92 8.74667 5.92 9.12C5.92 9.65333 6.05333 10.0853 6.32 10.416C6.58667 10.736 6.98667 10.896 7.52 10.896ZM17.9459 12V7.84L14.2499 0.799999H16.0579L18.9699 6.72H18.5379L21.4179 0.799999H23.2099L19.5459 7.84V12H17.9459ZM25.9105 12.192C25.1532 12.192 24.4705 12.0213 23.8625 11.68C23.2652 11.328 22.7905 10.8373 22.4385 10.208C22.0972 9.568 21.9265 8.82667 21.9265 7.984C21.9265 7.14133 22.1025 6.40533 22.4545 5.776C22.8065 5.136 23.2865 4.64533 23.8945 4.304C24.5025 3.952 25.1798 3.776 25.9265 3.776C26.6945 3.776 27.3772 3.952 27.9745 4.304C28.5825 4.64533 29.0572 5.13067 29.3985 5.76C29.7505 6.38933 29.9265 7.13067 29.9265 7.984C29.9265 8.82667 29.7505 9.568 29.3985 10.208C29.0465 10.8373 28.5665 11.328 27.9585 11.68C27.3612 12.0213 26.6785 12.192 25.9105 12.192ZM25.9105 10.816C26.3478 10.816 26.7425 10.7147 27.0945 10.512C27.4572 10.2987 27.7452 9.97867 27.9585 9.552C28.1825 9.12533 28.2945 8.60267 28.2945 7.984C28.2945 7.35467 28.1878 6.832 27.9745 6.416C27.7612 5.98933 27.4732 5.67467 27.1105 5.472C26.7585 5.25867 26.3692 5.152 25.9425 5.152C25.5265 5.152 25.1318 5.25867 24.7585 5.472C24.3958 5.67467 24.1025 5.98933 23.8785 6.416C23.6652 6.832 23.5585 7.35467 23.5585 7.984C23.5585 8.60267 23.6652 9.12533 23.8785 9.552C24.1025 9.97867 24.3905 10.2987 24.7425 10.512C25.1052 10.7147 25.4945 10.816 25.9105 10.816ZM33.777 12.192C33.1477 12.192 32.6037 12.064 32.145 11.808C31.6863 11.552 31.329 11.168 31.073 10.656C30.8277 10.1333 30.705 9.48267 30.705 8.704V3.968H32.305V8.544C32.305 9.30133 32.465 9.872 32.785 10.256C33.1157 10.64 33.5903 10.832 34.209 10.832C34.6357 10.832 35.0143 10.7307 35.345 10.528C35.6863 10.3253 35.953 10.032 36.145 9.648C36.337 9.264 36.433 8.79467 36.433 8.24V3.968H38.033V12H36.609L36.497 10.624C36.2517 11.104 35.889 11.488 35.409 11.776C34.9397 12.0533 34.3957 12.192 33.777 12.192ZM39.248 12V3.968H40.688L40.832 5.488C41.0133 5.12533 41.2427 4.82133 41.52 4.576C41.808 4.32 42.144 4.12267 42.528 3.984C42.9227 3.84533 43.3653 3.776 43.856 3.776V5.456H43.328C42.9867 5.456 42.6667 5.49867 42.368 5.584C42.0693 5.66933 41.8027 5.808 41.568 6C41.344 6.192 41.168 6.45333 41.04 6.784C40.912 7.11467 40.848 7.52533 40.848 8.016V12H39.248ZM49.3898 12.192C48.2911 12.192 47.3418 11.952 46.5418 11.472C45.7418 10.9813 45.1231 10.304 44.6858 9.44C44.2591 8.56533 44.0458 7.552 44.0458 6.4C44.0458 5.25867 44.2591 4.25067 44.6858 3.376C45.1231 2.50133 45.7418 1.824 46.5418 1.344C47.3418 0.853333 48.2911 0.608 49.3898 0.608C50.6911 0.608 51.7524 0.922666 52.5738 1.552C53.3951 2.18133 53.9124 3.06667 54.1258 4.208H52.3818C52.2111 3.54667 51.8751 3.01867 51.3738 2.624C50.8831 2.22933 50.2164 2.032 49.3738 2.032C48.6271 2.032 47.9711 2.208 47.4058 2.56C46.8511 2.912 46.4244 3.41333 46.1258 4.064C45.8271 4.71467 45.6778 5.49333 45.6778 6.4C45.6778 7.30667 45.8271 8.09067 46.1258 8.752C46.4244 9.40267 46.8511 9.904 47.4058 10.256C47.9711 10.5973 48.6271 10.768 49.3738 10.768C50.2164 10.768 50.8831 10.5813 51.3738 10.208C51.8751 9.824 52.2058 9.30667 52.3658 8.656H54.1258C53.9124 9.76533 53.3951 10.6347 52.5738 11.264C51.7524 11.8827 50.6911 12.192 49.3898 12.192ZM58.6799 12.192C57.9225 12.192 57.2399 12.0213 56.6319 11.68C56.0345 11.328 55.5599 10.8373 55.2079 10.208C54.8665 9.568 54.6959 8.82667 54.6959 7.984C54.6959 7.14133 54.8719 6.40533 55.2239 5.776C55.5759 5.136 56.0559 4.64533 56.6639 4.304C57.2719 3.952 57.9492 3.776 58.6959 3.776C59.4639 3.776 60.1465 3.952 60.7439 4.304C61.3519 4.64533 61.8265 5.13067 62.1679 5.76C62.5199 6.38933 62.6959 7.13067 62.6959 7.984C62.6959 8.82667 62.5199 9.568 62.1679 10.208C61.8159 10.8373 61.3359 11.328 60.7279 11.68C60.1305 12.0213 59.4479 12.192 58.6799 12.192ZM58.6799 10.816C59.1172 10.816 59.5119 10.7147 59.8639 10.512C60.2265 10.2987 60.5145 9.97867 60.7279 9.552C60.9519 9.12533 61.0639 8.60267 61.0639 7.984C61.0639 7.35467 60.9572 6.832 60.7439 6.416C60.5305 5.98933 60.2425 5.67467 59.8799 5.472C59.5279 5.25867 59.1385 5.152 58.7119 5.152C58.2959 5.152 57.9012 5.25867 57.5279 5.472C57.1652 5.67467 56.8719 5.98933 56.6479 6.416C56.4345 6.832 56.3279 7.35467 56.3279 7.984C56.3279 8.60267 56.4345 9.12533 56.6479 9.552C56.8719 9.97867 57.1599 10.2987 57.5119 10.512C57.8745 10.7147 58.2639 10.816 58.6799 10.816Z" fill="#121212"/>
<path d="M1.716 30V22.728L0.36 23.028V22.332L2.052 21.6H2.736V30H1.716ZM4.01709 30V29.292C4.58509 28.844 5.12109 28.392 5.62509 27.936C6.13709 27.472 6.58909 27.016 6.98109 26.568C7.38109 26.12 7.69309 25.68 7.91709 25.248C8.14909 24.816 8.26509 24.4 8.26509 24C8.26509 23.704 8.21309 23.428 8.10909 23.172C8.01309 22.916 7.85309 22.712 7.62909 22.56C7.40509 22.4 7.10109 22.32 6.71709 22.32C6.34909 22.32 6.04109 22.404 5.79309 22.572C5.54509 22.732 5.35709 22.948 5.22909 23.22C5.10909 23.492 5.04909 23.784 5.04909 24.096H4.07709C4.07709 23.544 4.19309 23.072 4.42509 22.68C4.65709 22.28 4.97309 21.976 5.37309 21.768C5.77309 21.56 6.22509 21.456 6.72909 21.456C7.47309 21.456 8.08109 21.668 8.55309 22.092C9.03309 22.508 9.27309 23.132 9.27309 23.964C9.27309 24.46 9.14909 24.952 8.90109 25.44C8.65309 25.92 8.33709 26.388 7.95309 26.844C7.56909 27.292 7.15709 27.712 6.71709 28.104C6.28509 28.496 5.88109 28.848 5.50509 29.16H9.56109V30H4.01709ZM10.6563 30V21.6H11.6643V25.404L15.1683 21.6H16.4403L13.3203 24.948L16.4883 30H15.2643L12.6003 25.728L11.6643 26.724V30H10.6563ZM20.0964 30V21.6H25.2084V22.428H21.1044V25.38H24.5964V26.196H21.1044V30H20.0964ZM28.5408 30.144C27.9808 30.144 27.4768 30.016 27.0288 29.76C26.5808 29.504 26.2248 29.144 25.9608 28.68C25.7048 28.208 25.5768 27.656 25.5768 27.024C25.5768 26.392 25.7088 25.844 25.9728 25.38C26.2368 24.908 26.5928 24.544 27.0408 24.288C27.4968 24.032 28.0048 23.904 28.5648 23.904C29.1248 23.904 29.6288 24.032 30.0768 24.288C30.5248 24.544 30.8768 24.908 31.1328 25.38C31.3968 25.844 31.5288 26.392 31.5288 27.024C31.5288 27.656 31.3968 28.208 31.1328 28.68C30.8688 29.144 30.5088 29.504 30.0528 29.76C29.6048 30.016 29.1008 30.144 28.5408 30.144ZM28.5408 29.28C28.8848 29.28 29.2048 29.196 29.5008 29.028C29.7968 28.86 30.0368 28.608 30.2208 28.272C30.4048 27.936 30.4968 27.52 30.4968 27.024C30.4968 26.528 30.4048 26.112 30.2208 25.776C30.0448 25.44 29.8088 25.188 29.5128 25.02C29.2168 24.852 28.9008 24.768 28.5648 24.768C28.2208 24.768 27.9008 24.852 27.6048 25.02C27.3088 25.188 27.0688 25.44 26.8848 25.776C26.7008 26.112 26.6088 26.528 26.6088 27.024C26.6088 27.52 26.7008 27.936 26.8848 28.272C27.0688 28.608 27.3048 28.86 27.5928 29.028C27.8888 29.196 28.2048 29.28 28.5408 29.28ZM32.5703 30V21.36H33.5783V30H32.5703ZM34.8705 30V21.36H35.8785V30H34.8705ZM39.8827 30.144C39.3227 30.144 38.8187 30.016 38.3707 29.76C37.9227 29.504 37.5667 29.144 37.3027 28.68C37.0467 28.208 36.9187 27.656 36.9187 27.024C36.9187 26.392 37.0507 25.844 37.3147 25.38C37.5787 24.908 37.9347 24.544 38.3827 24.288C38.8387 24.032 39.3467 23.904 39.9067 23.904C40.4667 23.904 40.9707 24.032 41.4187 24.288C41.8667 24.544 42.2187 24.908 42.4747 25.38C42.7387 25.844 42.8707 26.392 42.8707 27.024C42.8707 27.656 42.7387 28.208 42.4747 28.68C42.2107 29.144 41.8507 29.504 41.3947 29.76C40.9467 30.016 40.4427 30.144 39.8827 30.144ZM39.8827 29.28C40.2267 29.28 40.5467 29.196 40.8427 29.028C41.1387 28.86 41.3787 28.608 41.5627 28.272C41.7467 27.936 41.8387 27.52 41.8387 27.024C41.8387 26.528 41.7467 26.112 41.5627 25.776C41.3867 25.44 41.1507 25.188 40.8547 25.02C40.5587 24.852 40.2427 24.768 39.9067 24.768C39.5627 24.768 39.2427 24.852 38.9467 25.02C38.6507 25.188 38.4107 25.44 38.2267 25.776C38.0427 26.112 37.9507 26.528 37.9507 27.024C37.9507 27.52 38.0427 27.936 38.2267 28.272C38.4107 28.608 38.6467 28.86 38.9347 29.028C39.2307 29.196 39.5467 29.28 39.8827 29.28ZM44.8896 30L43.1496 24.048H44.1576L45.4176 28.716L46.8096 24.048H47.9496L49.3536 28.716L50.6016 24.048H51.6216L49.8816 30H48.8496L47.3856 25.092L45.9216 30H44.8896ZM54.8298 30.144C54.2618 30.144 53.7578 30.016 53.3178 29.76C52.8778 29.496 52.5298 29.132 52.2738 28.668C52.0258 28.204 51.9018 27.656 51.9018 27.024C51.9018 26.4 52.0258 25.856 52.2738 25.392C52.5218 24.92 52.8658 24.556 53.3058 24.3C53.7538 24.036 54.2698 23.904 54.8538 23.904C55.4298 23.904 55.9258 24.036 56.3418 24.3C56.7658 24.556 57.0898 24.896 57.3138 25.32C57.5378 25.744 57.6498 26.2 57.6498 26.688C57.6498 26.776 57.6458 26.864 57.6378 26.952C57.6378 27.04 57.6378 27.14 57.6378 27.252H52.8978C52.9218 27.708 53.0258 28.088 53.2098 28.392C53.4018 28.688 53.6378 28.912 53.9178 29.064C54.2058 29.216 54.5098 29.292 54.8298 29.292C55.2458 29.292 55.5938 29.196 55.8738 29.004C56.1538 28.812 56.3578 28.552 56.4858 28.224H57.4818C57.3218 28.776 57.0138 29.236 56.5578 29.604C56.1098 29.964 55.5338 30.144 54.8298 30.144ZM54.8298 24.756C54.3498 24.756 53.9218 24.904 53.5458 25.2C53.1778 25.488 52.9658 25.912 52.9098 26.472H56.6538C56.6298 25.936 56.4458 25.516 56.1018 25.212C55.7578 24.908 55.3338 24.756 54.8298 24.756ZM58.6258 30V24.048H59.5378L59.6218 25.188C59.8058 24.796 60.0858 24.484 60.4618 24.252C60.8378 24.02 61.3018 23.904 61.8538 23.904V24.96H61.5778C61.2258 24.96 60.9018 25.024 60.6058 25.152C60.3098 25.272 60.0738 25.48 59.8978 25.776C59.7218 26.072 59.6338 26.48 59.6338 27V30H58.6258ZM64.9052 30.144C64.1932 30.144 63.6012 29.964 63.1292 29.604C62.6572 29.244 62.3812 28.756 62.3012 28.14H63.3332C63.3972 28.452 63.5612 28.724 63.8252 28.956C64.0972 29.18 64.4612 29.292 64.9172 29.292C65.3412 29.292 65.6532 29.204 65.8532 29.028C66.0532 28.844 66.1532 28.628 66.1532 28.38C66.1532 28.02 66.0212 27.78 65.7572 27.66C65.5012 27.54 65.1372 27.432 64.6652 27.336C64.3452 27.272 64.0252 27.18 63.7052 27.06C63.3852 26.94 63.1172 26.772 62.9012 26.556C62.6852 26.332 62.5772 26.04 62.5772 25.68C62.5772 25.16 62.7692 24.736 63.1532 24.408C63.5452 24.072 64.0732 23.904 64.7372 23.904C65.3692 23.904 65.8852 24.064 66.2852 24.384C66.6932 24.696 66.9292 25.144 66.9932 25.728H65.9972C65.9572 25.424 65.8252 25.188 65.6012 25.02C65.3852 24.844 65.0932 24.756 64.7252 24.756C64.3652 24.756 64.0852 24.832 63.8852 24.984C63.6932 25.136 63.5972 25.336 63.5972 25.584C63.5972 25.824 63.7212 26.012 63.9692 26.148C64.2252 26.284 64.5692 26.4 65.0012 26.496C65.3692 26.576 65.7172 26.676 66.0452 26.796C66.3812 26.908 66.6532 27.08 66.8612 27.312C67.0772 27.536 67.1852 27.864 67.1852 28.296C67.1932 28.832 66.9892 29.276 66.5732 29.628C66.1652 29.972 65.6092 30.144 64.9052 30.144Z" fill="#9E9E9E"/>
</svg>
