<svg width="247" height="168" viewBox="0 0 247 168" fill="none" xmlns="http://www.w3.org/2000/svg">
<g filter="url(#filter0_d_2051_16)">
<path d="M24 20.7159C24 16.2976 27.5817 12.7159 32 12.7159H224C228.418 12.7159 232 16.2976 232 20.7159V50.7159H24V20.7159Z" fill="#7551DC"/>
<path d="M36.416 36.7159L40.544 25.5159H42.4L46.496 36.7159H44.704L43.744 33.9799H39.168L38.208 36.7159H36.416ZM39.648 32.6359H43.264L41.456 27.5319L39.648 32.6359ZM49.79 36.9079C48.83 36.9079 48.0727 36.6092 47.518 36.0119C46.974 35.4146 46.702 34.5239 46.702 33.3399V28.7799H48.398V33.1639C48.398 34.6999 49.0273 35.4679 50.286 35.4679C50.9153 35.4679 51.4327 35.2439 51.838 34.7959C52.2433 34.3479 52.446 33.7079 52.446 32.8759V28.7799H54.142V36.7159H52.638L52.51 35.3239C52.2647 35.8146 51.902 36.2039 51.422 36.4919C50.9527 36.7692 50.4087 36.9079 49.79 36.9079ZM58.5875 34.2839C58.1715 34.2839 57.7875 34.2359 57.4355 34.1399L56.7475 34.8119C56.8648 34.8866 57.0088 34.9506 57.1795 35.0039C57.3502 35.0572 57.5902 35.1052 57.8995 35.1479C58.2088 35.1906 58.6302 35.2332 59.1635 35.2759C60.2195 35.3719 60.9822 35.6279 61.4515 36.0439C61.9208 36.4492 62.1555 36.9932 62.1555 37.6759C62.1555 38.1452 62.0275 38.5879 61.7715 39.0039C61.5262 39.4306 61.1368 39.7719 60.6035 40.0279C60.0808 40.2946 59.4088 40.4279 58.5875 40.4279C57.4782 40.4279 56.5768 40.2146 55.8835 39.7879C55.2008 39.3719 54.8595 38.7372 54.8595 37.8839C54.8595 37.5532 54.9448 37.2226 55.1155 36.8919C55.2968 36.5719 55.5795 36.2679 55.9635 35.9799C55.7395 35.8839 55.5422 35.7826 55.3715 35.6759C55.2115 35.5586 55.0675 35.4412 54.9395 35.3239V34.9399L56.3155 33.5319C55.6968 32.9986 55.3875 32.2999 55.3875 31.4359C55.3875 30.9132 55.5102 30.4386 55.7555 30.0119C56.0115 29.5746 56.3795 29.2279 56.8595 28.9719C57.3395 28.7159 57.9155 28.5879 58.5875 28.5879C59.0355 28.5879 59.4515 28.6519 59.8355 28.7799H62.7955V29.8999L61.3875 29.9799C61.6435 30.4172 61.7715 30.9026 61.7715 31.4359C61.7715 31.9692 61.6435 32.4492 61.3875 32.8759C61.1422 33.3026 60.7795 33.6439 60.2995 33.8999C59.8302 34.1559 59.2595 34.2839 58.5875 34.2839ZM58.5875 32.9559C59.0782 32.9559 59.4728 32.8279 59.7715 32.5719C60.0808 32.3052 60.2355 31.9319 60.2355 31.4519C60.2355 30.9612 60.0808 30.5879 59.7715 30.3319C59.4728 30.0759 59.0782 29.9479 58.5875 29.9479C58.0862 29.9479 57.6808 30.0759 57.3715 30.3319C57.0728 30.5879 56.9235 30.9612 56.9235 31.4519C56.9235 31.9319 57.0728 32.3052 57.3715 32.5719C57.6808 32.8279 58.0862 32.9559 58.5875 32.9559ZM56.4595 37.7239C56.4595 38.1826 56.6622 38.5239 57.0675 38.7479C57.4728 38.9826 57.9795 39.0999 58.5875 39.0999C59.1742 39.0999 59.6488 38.9719 60.0115 38.7159C60.3742 38.4706 60.5555 38.1399 60.5555 37.7239C60.5555 37.4146 60.4328 37.1479 60.1875 36.9239C59.9422 36.7106 59.4782 36.5772 58.7955 36.5239C58.2835 36.4919 57.8302 36.4439 57.4355 36.3799C57.0622 36.5826 56.8062 36.8012 56.6675 37.0359C56.5288 37.2706 56.4595 37.4999 56.4595 37.7239ZM66.2763 36.9079C65.3163 36.9079 64.5589 36.6092 64.0043 36.0119C63.4603 35.4146 63.1883 34.5239 63.1883 33.3399V28.7799H64.8843V33.1639C64.8843 34.6999 65.5136 35.4679 66.7723 35.4679C67.4016 35.4679 67.9189 35.2439 68.3243 34.7959C68.7296 34.3479 68.9323 33.7079 68.9323 32.8759V28.7799H70.6283V36.7159H69.1243L68.9963 35.3239C68.7509 35.8146 68.3883 36.2039 67.9083 36.4919C67.4389 36.7692 66.8949 36.9079 66.2763 36.9079ZM74.9938 36.9079C73.9911 36.9079 73.1644 36.6626 72.5137 36.1719C71.8631 35.6812 71.4897 35.0306 71.3937 34.2199H73.1057C73.1911 34.5826 73.3937 34.8972 73.7137 35.1639C74.0337 35.4199 74.4551 35.5479 74.9777 35.5479C75.4897 35.5479 75.8631 35.4412 76.0978 35.2279C76.3324 35.0146 76.4497 34.7692 76.4497 34.4919C76.4497 34.0866 76.2844 33.8146 75.9538 33.6759C75.6338 33.5266 75.1858 33.3932 74.6098 33.2759C74.1618 33.1799 73.7138 33.0519 73.2657 32.8919C72.8284 32.7319 72.4604 32.5079 72.1617 32.2199C71.8737 31.9212 71.7297 31.5212 71.7297 31.0199C71.7297 30.3266 71.9964 29.7506 72.5297 29.2919C73.0631 28.8226 73.8098 28.5879 74.7698 28.5879C75.6551 28.5879 76.3698 28.8012 76.9138 29.2279C77.4684 29.6546 77.7937 30.2572 77.8898 31.0359H76.2578C76.2044 30.6946 76.0444 30.4279 75.7778 30.2359C75.5218 30.0439 75.1751 29.9479 74.7378 29.9479C74.3111 29.9479 73.9804 30.0386 73.7457 30.2199C73.5111 30.3906 73.3937 30.6146 73.3937 30.8919C73.3937 31.1692 73.5537 31.3879 73.8737 31.5479C74.2044 31.7079 74.6364 31.8519 75.1698 31.9799C75.7031 32.0972 76.1938 32.2359 76.6418 32.3959C77.1004 32.5452 77.4684 32.7692 77.7457 33.0679C78.0231 33.3666 78.1618 33.8039 78.1618 34.3799C78.1724 35.1052 77.8898 35.7079 77.3138 36.1879C76.7484 36.6679 75.9751 36.9079 74.9938 36.9079ZM82.0844 36.7159C81.3057 36.7159 80.687 36.5292 80.2284 36.1559C79.7697 35.7719 79.5404 35.0946 79.5404 34.1239V30.2039H78.1804V28.7799H79.5404L79.7484 26.7639H81.2364V28.7799H83.4764V30.2039H81.2364V34.1239C81.2364 34.5612 81.327 34.8652 81.5084 35.0359C81.7004 35.1959 82.0257 35.2759 82.4844 35.2759H83.3964V36.7159H82.0844ZM87.1764 36.7159V35.4999C87.9017 34.9239 88.595 34.3426 89.256 33.7559C89.918 33.1692 90.504 32.5932 91.016 32.0279C91.539 31.4519 91.95 30.8919 92.248 30.3479C92.547 29.7932 92.696 29.2599 92.696 28.7479C92.696 28.4066 92.638 28.0866 92.52 27.7879C92.403 27.4786 92.211 27.2332 91.944 27.0519C91.678 26.8599 91.32 26.7639 90.872 26.7639C90.2 26.7639 89.694 26.9772 89.352 27.4039C89.022 27.8306 88.8617 28.3426 88.8724 28.9399H87.2244C87.235 28.1506 87.4004 27.4892 87.7204 26.9559C88.051 26.4226 88.4884 26.0172 89.032 25.7399C89.587 25.4626 90.211 25.3239 90.904 25.3239C91.96 25.3239 92.803 25.6226 93.432 26.2199C94.072 26.8066 94.392 27.6279 94.392 28.6839C94.392 29.3132 94.238 29.9372 93.928 30.5559C93.63 31.1746 93.235 31.7719 92.744 32.3479C92.264 32.9132 91.747 33.4466 91.192 33.9479C90.638 34.4492 90.11 34.9026 89.608 35.3079H94.728V36.7159H87.1764ZM99.952 36.9079C98.938 36.9079 98.064 36.6679 97.328 36.1879C96.602 35.6972 96.042 35.0199 95.648 34.1559C95.264 33.2812 95.072 32.2679 95.072 31.1159C95.072 29.9639 95.264 28.9559 95.648 28.0919C96.042 27.2172 96.602 26.5399 97.328 26.0599C98.064 25.5692 98.938 25.3239 99.952 25.3239C100.965 25.3239 101.834 25.5692 102.56 26.0599C103.285 26.5399 103.84 27.2172 104.224 28.0919C104.618 28.9559 104.816 29.9639 104.816 31.1159C104.816 32.2679 104.618 33.2812 104.224 34.1559C103.84 35.0199 103.285 35.6972 102.56 36.1879C101.834 36.6679 100.965 36.9079 99.952 36.9079ZM99.952 35.3879C100.56 35.3879 101.098 35.2172 101.568 34.8759C102.048 34.5346 102.421 34.0439 102.688 33.4039C102.954 32.7639 103.088 32.0012 103.088 31.1159C103.088 30.2306 102.954 29.4679 102.688 28.8279C102.421 28.1879 102.048 27.6972 101.568 27.3559C101.098 27.0146 100.56 26.8439 99.952 26.8439C99.333 26.8439 98.789 27.0146 98.32 27.3559C97.85 27.6972 97.482 28.1879 97.216 28.8279C96.949 29.4679 96.816 30.2306 96.816 31.1159C96.816 32.0012 96.949 32.7639 97.216 33.4039C97.482 34.0439 97.85 34.5346 98.32 34.8759C98.789 35.2172 99.333 35.3879 99.952 35.3879ZM105.397 36.7159V35.4999C106.122 34.9239 106.816 34.3426 107.477 33.7559C108.138 33.1692 108.725 32.5932 109.237 32.0279C109.76 31.4519 110.17 30.8919 110.469 30.3479C110.768 29.7932 110.917 29.2599 110.917 28.7479C110.917 28.4066 110.858 28.0866 110.741 27.7879C110.624 27.4786 110.432 27.2332 110.165 27.0519C109.898 26.8599 109.541 26.7639 109.093 26.7639C108.421 26.7639 107.914 26.9772 107.573 27.4039C107.242 27.8306 107.082 28.3426 107.093 28.9399H105.445C105.456 28.1506 105.621 27.4892 105.941 26.9559C106.272 26.4226 106.709 26.0172 107.253 25.7399C107.808 25.4626 108.432 25.3239 109.125 25.3239C110.181 25.3239 111.024 25.6226 111.653 26.2199C112.293 26.8066 112.613 27.6279 112.613 28.6839C112.613 29.3132 112.458 29.9372 112.149 30.5559C111.85 31.1746 111.456 31.7719 110.965 32.3479C110.485 32.9132 109.968 33.4466 109.413 33.9479C108.858 34.4492 108.33 34.9026 107.829 35.3079H112.949V36.7159H105.397ZM118.718 36.7159V34.4759H113.102V33.1319L118.446 25.5159H120.398V33.0039H121.966V34.4759H120.398V36.7159H118.718ZM114.942 33.0039H118.814V27.3879L114.942 33.0039Z" fill="white"/>
<path d="M171.996 36.2299L169.35 26.4159H170.946L172.892 34.5359L175.132 26.4159H176.77L178.94 34.5359L180.886 26.4159H182.482L179.794 36.2159H178.058L175.916 28.5299L173.704 36.2159L171.996 36.2299ZM185.471 36.3839C184.79 36.3839 184.183 36.2346 183.651 35.9359C183.128 35.6279 182.718 35.2032 182.419 34.6619C182.12 34.1206 181.971 33.4906 181.971 32.7719C181.971 32.0439 182.116 31.4046 182.405 30.8539C182.704 30.3032 183.114 29.8739 183.637 29.5659C184.169 29.2579 184.785 29.1039 185.485 29.1039C186.166 29.1039 186.759 29.2579 187.263 29.5659C187.767 29.8646 188.159 30.2659 188.439 30.7699C188.719 31.2739 188.859 31.8292 188.859 32.4359C188.859 32.5292 188.854 32.6319 188.845 32.7439C188.845 32.8466 188.84 32.9632 188.831 33.0939H183.427C183.474 33.7659 183.693 34.2792 184.085 34.6339C184.486 34.9792 184.948 35.1519 185.471 35.1519C185.891 35.1519 186.241 35.0586 186.521 34.8719C186.81 34.6759 187.025 34.4146 187.165 34.0879H188.649C188.462 34.7412 188.089 35.2872 187.529 35.7259C186.978 36.1646 186.292 36.3839 185.471 36.3839ZM185.471 30.3219C184.976 30.3219 184.538 30.4712 184.155 30.7699C183.772 31.0592 183.539 31.4979 183.455 32.0859H187.375C187.347 31.5446 187.156 31.1152 186.801 30.7979C186.446 30.4806 186.003 30.3219 185.471 30.3219ZM192.807 36.3839C192.125 36.3839 191.519 36.2346 190.987 35.9359C190.464 35.6279 190.053 35.2032 189.755 34.6619C189.456 34.1206 189.307 33.4906 189.307 32.7719C189.307 32.0439 189.451 31.4046 189.741 30.8539C190.039 30.3032 190.45 29.8739 190.973 29.5659C191.505 29.2579 192.121 29.1039 192.821 29.1039C193.502 29.1039 194.095 29.2579 194.599 29.5659C195.103 29.8646 195.495 30.2659 195.775 30.7699C196.055 31.2739 196.195 31.8292 196.195 32.4359C196.195 32.5292 196.19 32.6319 196.181 32.7439C196.181 32.8466 196.176 32.9632 196.167 33.0939H190.763C190.809 33.7659 191.029 34.2792 191.421 34.6339C191.822 34.9792 192.284 35.1519 192.807 35.1519C193.227 35.1519 193.577 35.0586 193.857 34.8719C194.146 34.6759 194.361 34.4146 194.501 34.0879H195.985C195.798 34.7412 195.425 35.2872 194.865 35.7259C194.314 36.1646 193.628 36.3839 192.807 36.3839ZM192.807 30.3219C192.312 30.3219 191.873 30.4712 191.491 30.7699C191.108 31.0592 190.875 31.4979 190.791 32.0859H194.711C194.683 31.5446 194.491 31.1152 194.137 30.7979C193.782 30.4806 193.339 30.3219 192.807 30.3219ZM196.895 36.2159V26.1359H198.379V32.1419L201.039 29.2719H202.817L199.863 32.4219L203.251 36.2159H201.375L198.379 32.6599V36.2159H196.895ZM204.624 36.2159V28.0959L203.042 28.4599V27.3679L205.212 26.4159H206.164V36.2159H204.624Z" fill="white"/>
</g>
<path d="M232 50.7159H24V169.716H232V50.7159Z" fill="white"/>
<path d="M52 68.9659C50.0716 68.9659 48.1866 69.5377 46.5832 70.6091C44.9798 71.6804 43.7301 73.2032 42.9922 74.9847C42.2542 76.7663 42.0611 78.7267 42.4373 80.618C42.8136 82.5093 43.7422 84.2466 45.1057 85.6102C46.4693 86.9738 48.2066 87.9024 50.0979 88.2786C51.9892 88.6548 53.9496 88.4617 55.7312 87.7237C57.5127 86.9858 59.0355 85.7361 60.1068 84.1327C61.1782 82.5293 61.75 80.6443 61.75 78.7159C61.7473 76.1309 60.7192 73.6525 58.8913 71.8246C57.0634 69.9967 54.585 68.9686 52 68.9659ZM56.2806 76.9965L51.0306 82.2465C50.961 82.3163 50.8783 82.3716 50.7872 82.4093C50.6962 82.4471 50.5986 82.4665 50.5 82.4665C50.4014 82.4665 50.3038 82.4471 50.2128 82.4093C50.1218 82.3716 50.039 82.3163 49.9694 82.2465L47.7194 79.9965C47.5786 79.8558 47.4996 79.6649 47.4996 79.4659C47.4996 79.2669 47.5786 79.076 47.7194 78.9353C47.8601 78.7945 48.051 78.7155 48.25 78.7155C48.449 78.7155 48.6399 78.7945 48.7806 78.9353L50.5 80.6556L55.2194 75.9353C55.2891 75.8656 55.3718 75.8103 55.4628 75.7726C55.5539 75.7349 55.6515 75.7155 55.75 75.7155C55.8486 75.7155 55.9461 75.7349 56.0372 75.7726C56.1282 75.8103 56.2109 75.8656 56.2806 75.9353C56.3503 76.005 56.4056 76.0877 56.4433 76.1787C56.481 76.2698 56.5004 76.3674 56.5004 76.4659C56.5004 76.5644 56.481 76.662 56.4433 76.7531C56.4056 76.8441 56.3503 76.9268 56.2806 76.9965Z" fill="#7551DC"/>
<path d="M102.667 68.9659C100.739 68.9659 98.8542 69.5377 97.2502 70.6091C95.6472 71.6804 94.3972 73.2032 93.6592 74.9847C92.9212 76.7663 92.7282 78.7267 93.1042 80.618C93.4812 82.5093 94.4092 84.2466 95.7732 85.6102C97.1362 86.9738 98.8742 87.9024 100.765 88.2786C102.656 88.6548 104.617 88.4617 106.398 87.7237C108.18 86.9858 109.702 85.7361 110.774 84.1327C111.845 82.5293 112.417 80.6443 112.417 78.7159C112.414 76.1309 111.386 73.6525 109.558 71.8246C107.73 69.9967 105.252 68.9686 102.667 68.9659ZM106.948 76.9965L101.698 82.2465C101.628 82.3163 101.545 82.3716 101.454 82.4093C101.363 82.4471 101.266 82.4665 101.167 82.4665C101.068 82.4665 100.971 82.4471 100.88 82.4093C100.789 82.3716 100.706 82.3163 100.636 82.2465L98.3862 79.9965C98.2462 79.8558 98.1672 79.6649 98.1672 79.4659C98.1672 79.2669 98.2462 79.076 98.3862 78.9353C98.5272 78.7945 98.7182 78.7155 98.9172 78.7155C99.1162 78.7155 99.3072 78.7945 99.4482 78.9353L101.167 80.6556L105.886 75.9353C105.956 75.8656 106.039 75.8103 106.13 75.7726C106.221 75.7349 106.318 75.7155 106.417 75.7155C106.516 75.7155 106.613 75.7349 106.704 75.7726C106.795 75.8103 106.878 75.8656 106.948 75.9353C107.017 76.005 107.073 76.0877 107.11 76.1787C107.148 76.2698 107.167 76.3674 107.167 76.4659C107.167 76.5644 107.148 76.662 107.11 76.7531C107.073 76.8441 107.017 76.9268 106.948 76.9965Z" fill="#7551DC"/>
<path d="M153.333 68.9659C151.405 68.9659 149.52 69.5377 147.916 70.6091C146.313 71.6804 145.063 73.2032 144.325 74.9847C143.587 76.7663 143.394 78.7267 143.77 80.618C144.147 82.5093 145.075 84.2466 146.439 85.6102C147.802 86.9738 149.54 87.9024 151.431 88.2786C153.322 88.6548 155.283 88.4617 157.064 87.7237C158.846 86.9858 160.368 85.7361 161.44 84.1327C162.511 82.5293 163.083 80.6443 163.083 78.7159C163.08 76.1309 162.052 73.6525 160.224 71.8246C158.396 69.9967 155.918 68.9686 153.333 68.9659ZM157.614 76.9965L152.364 82.2465C152.294 82.3163 152.211 82.3716 152.12 82.4093C152.029 82.4471 151.932 82.4665 151.833 82.4665C151.734 82.4665 151.637 82.4471 151.546 82.4093C151.455 82.3716 151.372 82.3163 151.302 82.2465L149.052 79.9965C148.912 79.8558 148.833 79.6649 148.833 79.4659C148.833 79.2669 148.912 79.076 149.052 78.9353C149.193 78.7945 149.384 78.7155 149.583 78.7155C149.782 78.7155 149.973 78.7945 150.114 78.9353L151.833 80.6556L156.552 75.9353C156.622 75.8656 156.705 75.8103 156.796 75.7726C156.887 75.7349 156.984 75.7155 157.083 75.7155C157.182 75.7155 157.279 75.7349 157.37 75.7726C157.461 75.8103 157.544 75.8656 157.614 75.9353C157.683 76.005 157.739 76.0877 157.776 76.1787C157.814 76.2698 157.833 76.3674 157.833 76.4659C157.833 76.5644 157.814 76.662 157.776 76.7531C157.739 76.8441 157.683 76.9268 157.614 76.9965Z" fill="#7551DC"/>
<path d="M204 68.9659C202.072 68.9659 200.187 69.5377 198.583 70.6091C196.98 71.6804 195.73 73.2032 194.992 74.9847C194.254 76.7663 194.061 78.7267 194.437 80.618C194.814 82.5093 195.742 84.2466 197.106 85.6102C198.469 86.9738 200.207 87.9024 202.098 88.2786C203.989 88.6548 205.95 88.4617 207.731 87.7237C209.513 86.9858 211.035 85.7361 212.107 84.1327C213.178 82.5293 213.75 80.6443 213.75 78.7159C213.747 76.1309 212.719 73.6525 210.891 71.8246C209.063 69.9967 206.585 68.9686 204 68.9659ZM208.281 76.9965L203.031 82.2465C202.961 82.3163 202.878 82.3716 202.787 82.4093C202.696 82.4471 202.599 82.4665 202.5 82.4665C202.401 82.4665 202.304 82.4471 202.213 82.4093C202.122 82.3716 202.039 82.3163 201.969 82.2465L199.719 79.9965C199.579 79.8558 199.5 79.6649 199.5 79.4659C199.5 79.2669 199.579 79.076 199.719 78.9353C199.86 78.7945 200.051 78.7155 200.25 78.7155C200.449 78.7155 200.64 78.7945 200.781 78.9353L202.5 80.6556L207.219 75.9353C207.289 75.8656 207.372 75.8103 207.463 75.7726C207.554 75.7349 207.651 75.7155 207.75 75.7155C207.849 75.7155 207.946 75.7349 208.037 75.7726C208.128 75.8103 208.211 75.8656 208.281 75.9353C208.35 76.005 208.406 76.0877 208.443 76.1787C208.481 76.2698 208.5 76.3674 208.5 76.4659C208.5 76.5644 208.481 76.662 208.443 76.7531C208.406 76.8441 208.35 76.9268 208.281 76.9965Z" fill="#7551DC"/>
<path d="M59 106.716H44C41.7909 106.716 40 108.507 40 110.716V125.716C40 127.925 41.7909 129.716 44 129.716H59C61.2091 129.716 63 127.925 63 125.716V110.716C63 108.507 61.2091 106.716 59 106.716Z" fill="#FCEBD1"/>
<path d="M110 106.716H95C92.7909 106.716 91 108.507 91 110.716V125.716C91 127.925 92.7909 129.716 95 129.716H110C112.209 129.716 114 127.925 114 125.716V110.716C114 108.507 112.209 106.716 110 106.716Z" fill="#FCEBD1"/>
<path d="M161 106.716H146C143.791 106.716 142 108.507 142 110.716V125.716C142 127.925 143.791 129.716 146 129.716H161C163.209 129.716 165 127.925 165 125.716V110.716C165 108.507 163.209 106.716 161 106.716Z" fill="#FCEBD1"/>
<path d="M212 106.716H197C194.791 106.716 193 108.507 193 110.716V125.716C193 127.925 194.791 129.716 197 129.716H212C214.209 129.716 216 127.925 216 125.716V110.716C216 108.507 214.209 106.716 212 106.716Z" fill="#FCEBD1"/>
<path d="M59 145.716H44C41.7909 145.716 40 147.507 40 149.716V164.716C40 166.925 41.7909 168.716 44 168.716H59C61.2091 168.716 63 166.925 63 164.716V149.716C63 147.507 61.2091 145.716 59 145.716Z" fill="#FCEBD1"/>
<path d="M110 145.716H95C92.7909 145.716 91 147.507 91 149.716V164.716C91 166.925 92.7909 168.716 95 168.716H110C112.209 168.716 114 166.925 114 164.716V149.716C114 147.507 112.209 145.716 110 145.716Z" fill="#FCEBD1"/>
<path d="M161 145.716H146C143.791 145.716 142 147.507 142 149.716V164.716C142 166.925 143.791 168.716 146 168.716H161C163.209 168.716 165 166.925 165 164.716V149.716C165 147.507 163.209 145.716 161 145.716Z" fill="#FCEBD1"/>
<path d="M212 145.716H197C194.791 145.716 193 147.507 193 149.716V164.716C193 166.925 194.791 168.716 197 168.716H212C214.209 168.716 216 166.925 216 164.716V149.716C216 147.507 214.209 145.716 212 145.716Z" fill="#FCEBD1"/>
<defs>
<filter id="filter0_d_2051_16" x="-10.2351" y="-2.86102e-06" width="256.907" height="86.9072" filterUnits="userSpaceOnUse" color-interpolation-filters="sRGB">
<feFlood flood-opacity="0" result="BackgroundImageFix"/>
<feColorMatrix in="SourceAlpha" type="matrix" values="0 0 0 0 0 0 0 0 0 0 0 0 0 0 0 0 0 0 127 0" result="hardAlpha"/>
<feOffset dx="-9.78145" dy="11.7377"/>
<feGaussianBlur stdDeviation="12.2268"/>
<feComposite in2="hardAlpha" operator="out"/>
<feColorMatrix type="matrix" values="0 0 0 0 0.384371 0 0 0 0 0.102708 0 0 0 0 0.483333 0 0 0 0.05 0"/>
<feBlend mode="normal" in2="BackgroundImageFix" result="effect1_dropShadow_2051_16"/>
<feBlend mode="normal" in="SourceGraphic" in2="effect1_dropShadow_2051_16" result="shape"/>
</filter>
</defs>
</svg>
