<svg width="240" height="149" viewBox="0 0 240 149" fill="none" xmlns="http://www.w3.org/2000/svg">
<g filter="url(#filter0_d_2051_34)">
<path d="M16 19.6692C16 15.829 19.5989 12.7159 24.0385 12.7159H216.962C221.401 12.7159 225 15.829 225 19.6692V45.7442H16V19.6692Z" fill="#7551DC"/>
<path d="M28.4756 33.5759L32.6234 23.8412H34.4884L38.604 33.5759H36.8034L35.8388 31.1979H31.2408L30.2762 33.5759H28.4756ZM31.7231 30.0297H35.3565L33.5398 25.5935L31.7231 30.0297ZM41.9139 33.7428C40.9493 33.7428 40.1883 33.4832 39.631 32.964C39.0843 32.4449 38.811 31.6707 38.811 30.6416V26.6782H40.5152V30.4886C40.5152 31.8237 41.1475 32.4912 42.4123 32.4912C43.0446 32.4912 43.5645 32.2965 43.9717 31.9071C44.379 31.5177 44.5827 30.9615 44.5827 30.2383V26.6782H46.2868V33.5759H44.7756L44.647 32.366C44.4005 32.7925 44.036 33.1309 43.5537 33.3812C43.0822 33.6222 42.5356 33.7428 41.9139 33.7428ZM50.7537 31.4621C50.3357 31.4621 49.9498 31.4204 49.5961 31.3369L48.9048 31.921C49.0227 31.9859 49.1674 32.0416 49.3389 32.0879C49.5104 32.1342 49.7516 32.1759 50.0624 32.2131C50.3732 32.2502 50.7966 32.2872 51.3324 32.3243C52.3935 32.4078 53.1599 32.6303 53.6314 32.9918C54.103 33.3441 54.3388 33.8169 54.3388 34.4103C54.3388 34.8182 54.2102 35.203 53.953 35.5646C53.7065 35.9354 53.3152 36.2321 52.7794 36.4546C52.2542 36.6864 51.5789 36.8023 50.7537 36.8023C49.639 36.8023 48.7333 36.6169 48.0367 36.246C47.3507 35.8844 47.0078 35.3328 47.0078 34.5911C47.0078 34.3037 47.0935 34.0163 47.265 33.7289C47.4472 33.4507 47.7312 33.1865 48.1171 32.9362C47.892 32.8528 47.6937 32.7647 47.5222 32.672C47.3614 32.57 47.2168 32.468 47.0881 32.366V32.0323L48.4708 30.8085C47.8491 30.345 47.5383 29.7377 47.5383 28.9867C47.5383 28.5324 47.6616 28.1199 47.9081 27.749C48.1653 27.3689 48.5351 27.0676 49.0174 26.8451C49.4997 26.6226 50.0785 26.5113 50.7537 26.5113C51.2038 26.5113 51.6218 26.5669 52.0077 26.6782H54.9819V27.6517L53.5671 27.7212C53.8244 28.1013 53.953 28.5232 53.953 28.9867C53.953 29.4502 53.8244 29.8674 53.5671 30.2383C53.3207 30.6092 52.9562 30.9058 52.4739 31.1283C52.0024 31.3508 51.4289 31.4621 50.7537 31.4621ZM50.7537 30.3078C51.2467 30.3078 51.6432 30.1966 51.9434 29.9741C52.2542 29.7423 52.4096 29.4178 52.4096 29.0006C52.4096 28.5741 52.2542 28.2497 51.9434 28.0271C51.6432 27.8046 51.2467 27.6934 50.7537 27.6934C50.25 27.6934 49.8426 27.8046 49.5318 28.0271C49.2317 28.2497 49.0817 28.5741 49.0817 29.0006C49.0817 29.4178 49.2317 29.7423 49.5318 29.9741C49.8426 30.1966 50.25 30.3078 50.7537 30.3078ZM48.6155 34.452C48.6155 34.8507 48.8191 35.1474 49.2264 35.3421C49.6336 35.5461 50.1428 35.648 50.7537 35.648C51.3432 35.648 51.8201 35.5368 52.1845 35.3142C52.549 35.101 52.7311 34.8136 52.7311 34.452C52.7311 34.1832 52.6079 33.9514 52.3614 33.7567C52.1149 33.5713 51.6487 33.4554 50.9627 33.409C50.4482 33.3812 49.9927 33.3395 49.5961 33.2839C49.221 33.4601 48.9638 33.65 48.8245 33.854C48.6851 34.058 48.6155 34.2573 48.6155 34.452ZM58.4794 33.7428C57.5148 33.7428 56.7538 33.4832 56.1965 32.964C55.6499 32.4449 55.3766 31.6707 55.3766 30.6416V26.6782H57.0808V30.4886C57.0808 31.8237 57.7131 32.4912 58.9778 32.4912C59.6102 32.4912 60.1299 32.2965 60.5373 31.9071C60.9445 31.5177 61.1482 30.9615 61.1482 30.2383V26.6782H62.8524V33.5759H61.3411L61.2125 32.366C60.9659 32.7925 60.6016 33.1309 60.1193 33.3812C59.6476 33.6222 59.101 33.7428 58.4794 33.7428ZM67.2389 33.7428C66.2313 33.7428 65.4007 33.5296 64.7468 33.1031C64.0931 32.6766 63.7179 32.1111 63.6214 31.4065H65.3417C65.4275 31.7217 65.6311 31.9952 65.9526 32.227C66.2741 32.4495 66.6976 32.5607 67.2227 32.5607C67.7371 32.5607 68.1123 32.468 68.3482 32.2826C68.5839 32.0972 68.7018 31.8839 68.7018 31.6429C68.7018 31.2906 68.5357 31.0542 68.2035 30.9336C67.8819 30.8039 67.4318 30.6879 66.853 30.586C66.4029 30.5025 65.9527 30.3913 65.5024 30.2522C65.063 30.1131 64.6933 29.9185 64.3931 29.6681C64.1038 29.4085 63.9591 29.0608 63.9591 28.6251C63.9591 28.0225 64.227 27.5219 64.7629 27.1232C65.2989 26.7153 66.0492 26.5113 67.0138 26.5113C67.9033 26.5113 68.6215 26.6967 69.1681 27.0676C69.7254 27.4385 70.0522 27.9622 70.1488 28.639H68.5089C68.4553 28.3424 68.2945 28.1106 68.0266 27.9437C67.7694 27.7768 67.421 27.6934 66.9816 27.6934C66.5529 27.6934 66.2206 27.7722 65.9848 27.9298C65.749 28.0782 65.6311 28.2729 65.6311 28.5139C65.6311 28.7549 65.7918 28.945 66.1134 29.0841C66.4457 29.2231 66.8797 29.3483 67.4157 29.4595C67.9516 29.5615 68.4446 29.682 68.8948 29.8211C69.3556 29.9509 69.7254 30.1456 70.004 30.4052C70.2827 30.6648 70.4221 31.0449 70.4221 31.5455C70.4327 32.1759 70.1488 32.6998 69.57 33.117C69.0019 33.5342 68.2249 33.7428 67.2389 33.7428ZM74.3635 33.5759C73.5811 33.5759 72.9594 33.4136 72.4986 33.0892C72.0377 32.7554 71.8073 32.1667 71.8073 31.323V27.9159H70.4408V26.6782H71.8073L72.0163 24.926H73.5115V26.6782H75.7622V27.9159H73.5115V31.323C73.5115 31.7031 73.6025 31.9673 73.7848 32.1157C73.9777 32.2548 74.3046 32.3243 74.7655 32.3243H75.6819V33.5759H74.3635ZM79.48 33.5759V32.519C80.2088 32.0184 80.9054 31.5131 81.5696 31.0032C82.2348 30.4932 82.8236 29.9926 83.3381 29.5013C83.8636 29.0006 84.2766 28.5139 84.576 28.0411C84.8764 27.5589 85.0262 27.0954 85.0262 26.6504C85.0262 26.3537 84.9679 26.0756 84.8493 25.816C84.7318 25.5472 84.5388 25.3339 84.2705 25.1763C84.0033 25.0094 83.6435 24.926 83.1934 24.926C82.5182 24.926 82.0097 25.1114 81.6661 25.4822C81.3345 25.8531 81.1734 26.2981 81.1842 26.8173H79.5283C79.5389 26.1312 79.7051 25.5564 80.0266 25.0928C80.3588 24.6293 80.7983 24.277 81.3445 24.0359C81.9022 23.7949 82.5292 23.6744 83.2255 23.6744C84.2866 23.6744 85.1337 23.934 85.7657 24.4531C86.4088 24.9631 86.7303 25.6769 86.7303 26.5948C86.7303 27.1417 86.5756 27.6841 86.2641 28.2218C85.9647 28.7596 85.5678 29.2787 85.0744 29.7794C84.5921 30.2707 84.0726 30.7343 83.5149 31.1701C82.9583 31.6058 82.4277 31.9998 81.9233 32.3521H87.0679V33.5759H79.48ZM92.3171 33.7428C91.2982 33.7428 90.42 33.5342 89.6804 33.117C88.9509 32.6905 88.3883 32.1018 87.9924 31.3508C87.6065 30.5906 87.4136 29.7099 87.4136 28.7086C87.4136 27.7073 87.6065 26.8312 87.9924 26.0802C88.3883 25.32 88.9509 24.7313 89.6804 24.3141C90.42 23.8876 91.2982 23.6744 92.3171 23.6744C93.3349 23.6744 94.2081 23.8876 94.9376 24.3141C95.6661 24.7313 96.2237 25.32 96.6096 26.0802C97.0055 26.8312 97.2044 27.7073 97.2044 28.7086C97.2044 29.7099 97.0055 30.5906 96.6096 31.3508C96.2237 32.1018 95.6661 32.6905 94.9376 33.117C94.2081 33.5342 93.3349 33.7428 92.3171 33.7428ZM92.3171 32.4217C92.928 32.4217 93.4686 32.2733 93.9408 31.9766C94.4231 31.68 94.7979 31.2535 95.0662 30.6972C95.3335 30.141 95.4681 29.478 95.4681 28.7086C95.4681 27.9391 95.3335 27.2762 95.0662 26.7199C94.7979 26.1637 94.4231 25.7372 93.9408 25.4405C93.4686 25.1439 92.928 24.9955 92.3171 24.9955C91.6951 24.9955 91.1485 25.1439 90.6772 25.4405C90.2049 25.7372 89.8352 26.1637 89.5679 26.7199C89.2996 27.2762 89.166 27.9391 89.166 28.7086C89.166 29.478 89.2996 30.141 89.5679 30.6972C89.8352 31.2535 90.2049 31.68 90.6772 31.9766C91.1485 32.2733 91.6951 32.4217 92.3171 32.4217ZM97.7882 33.5759V32.519C98.5167 32.0184 99.214 31.5131 99.8782 31.0032C100.542 30.4932 101.132 29.9926 101.647 29.5013C102.172 29.0006 102.584 28.5139 102.885 28.0411C103.185 27.5589 103.335 27.0954 103.335 26.6504C103.335 26.3537 103.275 26.0756 103.158 25.816C103.04 25.5472 102.847 25.3339 102.579 25.1763C102.311 25.0094 101.952 24.926 101.502 24.926C100.827 24.926 100.317 25.1114 99.9747 25.4822C99.6421 25.8531 99.4813 26.2981 99.4924 26.8173H97.8365C97.8475 26.1312 98.0133 25.5564 98.3348 25.0928C98.6674 24.6293 99.1065 24.277 99.6531 24.0359C100.211 23.7949 100.838 23.6744 101.534 23.6744C102.595 23.6744 103.442 23.934 104.074 24.4531C104.717 24.9631 105.039 25.6769 105.039 26.5948C105.039 27.1417 104.883 27.6841 104.573 28.2218C104.272 28.7596 103.876 29.2787 103.383 29.7794C102.901 30.2707 102.381 30.7343 101.824 31.1701C101.266 31.6058 100.735 31.9998 100.232 32.3521H105.377V33.5759H97.7882ZM111.173 33.5759V31.629H105.53V30.4608L110.9 23.8412H112.861V30.3496H114.437V31.629H112.861V33.5759H111.173ZM107.379 30.3496H111.27V25.4683L107.379 30.3496Z" fill="white"/>
<path d="M164.708 33.1535L162.049 24.6235H163.652L165.608 31.6811L167.859 24.6235H169.504L171.685 31.6811L173.64 24.6235H175.244L172.543 33.1413H170.799L168.646 26.4609L166.424 33.1413L164.708 33.1535ZM178.247 33.2873C177.563 33.2873 176.953 33.1576 176.419 32.898C175.893 32.6303 175.481 32.2611 175.181 31.7906C174.88 31.3202 174.73 30.7726 174.73 30.1479C174.73 29.5152 174.876 28.9595 175.167 28.4809C175.467 28.0022 175.879 27.6291 176.405 27.3614C176.939 27.0937 177.558 26.9598 178.261 26.9598C178.946 26.9598 179.542 27.0937 180.048 27.3614C180.554 27.621 180.948 27.9698 181.23 28.4078C181.511 28.8459 181.652 29.3286 181.652 29.8559C181.652 29.937 181.647 30.0262 181.638 30.1236C181.638 30.2128 181.633 30.3142 181.623 30.4278H176.194C176.241 31.0119 176.461 31.458 176.855 31.7663C177.258 32.0664 177.722 32.2165 178.247 32.2165C178.669 32.2165 179.021 32.1354 179.302 31.9732C179.593 31.8028 179.809 31.5757 179.949 31.2917H181.441C181.253 31.8596 180.878 32.3341 180.315 32.7154C179.762 33.0967 179.072 33.2873 178.247 33.2873ZM178.247 28.0185C177.75 28.0185 177.31 28.1482 176.925 28.4078C176.54 28.6593 176.306 29.0406 176.222 29.5517H180.16C180.132 29.0812 179.94 28.708 179.584 28.4322C179.227 28.1564 178.782 28.0185 178.247 28.0185ZM185.619 33.2873C184.933 33.2873 184.324 33.1576 183.79 32.898C183.264 32.6303 182.851 32.2611 182.552 31.7906C182.251 31.3202 182.102 30.7726 182.102 30.1479C182.102 29.5152 182.246 28.9595 182.538 28.4809C182.837 28.0022 183.25 27.6291 183.776 27.3614C184.31 27.0937 184.929 26.9598 185.633 26.9598C186.317 26.9598 186.913 27.0937 187.419 27.3614C187.926 27.621 188.32 27.9698 188.601 28.4078C188.882 28.8459 189.023 29.3286 189.023 29.8559C189.023 29.937 189.018 30.0262 189.009 30.1236C189.009 30.2128 189.004 30.3142 188.995 30.4278H183.565C183.611 31.0119 183.832 31.458 184.226 31.7663C184.629 32.0664 185.093 32.2165 185.619 32.2165C186.041 32.2165 186.392 32.1354 186.674 31.9732C186.964 31.8028 187.18 31.5757 187.321 31.2917H188.812C188.624 31.8596 188.249 32.3341 187.686 32.7154C187.133 33.0967 186.444 33.2873 185.619 33.2873ZM185.619 28.0185C185.121 28.0185 184.68 28.1482 184.296 28.4078C183.911 28.6593 183.677 29.0406 183.593 29.5517H187.532C187.504 29.0812 187.311 28.708 186.955 28.4322C186.598 28.1564 186.153 28.0185 185.619 28.0185ZM189.726 33.1413V24.3801H191.217V29.6003L193.89 27.1058H195.677L192.709 29.8437L196.113 33.1413H194.228L191.217 30.0506V33.1413H189.726ZM197.492 33.1413V26.0837L195.903 26.4001V25.4509L198.083 24.6235H199.04V33.1413H197.492Z" fill="white"/>
</g>
<path d="M225 45.7443H16V149.175H225V45.7443Z" fill="white"/>
<path d="M44.1348 61.6065C42.1971 61.6065 40.3031 62.1035 38.692 63.0348C37.0809 63.9659 35.8251 65.2895 35.0837 66.8379C34.3421 68.3864 34.1481 70.0903 34.5261 71.7342C34.9042 73.378 35.8373 74.888 37.2074 76.0732C38.5775 77.2584 40.3232 78.0655 42.2236 78.3925C44.124 78.7195 46.0938 78.5517 47.8839 77.9102C49.674 77.2688 51.2041 76.1827 52.2806 74.789C53.3571 73.3954 53.9317 71.757 53.9317 70.0809C53.929 67.8341 52.8959 65.68 51.0592 64.0912C49.2225 62.5025 46.7322 61.6089 44.1348 61.6065ZM48.436 68.5865L43.1607 73.1496C43.0908 73.2103 43.0077 73.2583 42.9162 73.2911C42.8247 73.324 42.7267 73.3408 42.6276 73.3408C42.5285 73.3408 42.4304 73.324 42.339 73.2911C42.2476 73.2583 42.1644 73.2103 42.0944 73.1496L39.8336 71.194C39.6921 71.0717 39.6128 70.9058 39.6128 70.7328C39.6128 70.5598 39.6921 70.3939 39.8336 70.2716C39.975 70.1492 40.1668 70.0806 40.3668 70.0806C40.5667 70.0806 40.7585 70.1492 40.8999 70.2716L42.6276 71.7668L47.3697 67.6641C47.4397 67.6035 47.5228 67.5555 47.6142 67.5227C47.7058 67.4899 47.8039 67.4731 47.9028 67.4731C48.0019 67.4731 48.0999 67.4899 48.1914 67.5227C48.2829 67.5555 48.3659 67.6035 48.436 67.6641C48.506 67.7247 48.5616 67.7966 48.5995 67.8757C48.6373 67.9549 48.6568 68.0397 48.6568 68.1253C48.6568 68.2109 48.6373 68.2957 48.5995 68.3749C48.5616 68.454 48.506 68.5259 48.436 68.5865Z" fill="#7551DC"/>
<path d="M95.0451 61.6065C93.1079 61.6065 91.2138 62.1035 89.6021 63.0348C87.9914 63.9659 86.7354 65.2895 85.9938 66.8379C85.2523 68.3864 85.0584 70.0903 85.4362 71.7342C85.815 73.378 86.7475 74.888 88.118 76.0732C89.4876 77.2584 91.2339 78.0655 93.134 78.3925C95.0341 78.7195 97.0045 78.5517 98.7941 77.9102C100.585 77.2688 102.114 76.1827 103.191 74.789C104.267 73.3954 104.842 71.757 104.842 70.0809C104.839 67.8341 103.806 65.68 101.969 64.0912C100.132 62.5025 97.6426 61.6089 95.0451 61.6065ZM99.3467 68.5865L94.0715 73.1496C94.0012 73.2103 93.9178 73.2583 93.8263 73.2911C93.7349 73.324 93.6374 73.3408 93.5379 73.3408C93.4385 73.3408 93.341 73.324 93.2496 73.2911C93.1581 73.2583 93.0747 73.2103 93.0044 73.1496L90.7436 71.194C90.6029 71.0717 90.5235 70.9058 90.5235 70.7328C90.5235 70.5598 90.6029 70.3939 90.7436 70.2716C90.8852 70.1492 91.0772 70.0806 91.2771 70.0806C91.4771 70.0806 91.669 70.1492 91.8107 70.2716L93.5379 71.7668L98.2796 67.6641C98.35 67.6035 98.4334 67.5555 98.5248 67.5227C98.6162 67.4899 98.7137 67.4731 98.8132 67.4731C98.9127 67.4731 99.0101 67.4899 99.1016 67.5227C99.193 67.5555 99.2764 67.6035 99.3467 67.6641C99.4161 67.7247 99.4723 67.7966 99.5095 67.8757C99.5477 67.9549 99.5668 68.0397 99.5668 68.1253C99.5668 68.2109 99.5477 68.2957 99.5095 68.3749C99.4723 68.454 99.4161 68.5259 99.3467 68.5865Z" fill="#7551DC"/>
<path d="M145.955 61.6065C144.018 61.6065 142.124 62.1035 140.512 63.0348C138.902 63.9659 137.646 65.2895 136.904 66.8379C136.162 68.3864 135.969 70.0903 136.346 71.7342C136.725 73.378 137.658 74.888 139.028 76.0732C140.398 77.2584 142.144 78.0655 144.044 78.3925C145.944 78.7195 147.915 78.5517 149.704 77.9102C151.495 77.2688 153.024 76.1827 154.101 74.789C155.177 73.3954 155.752 71.757 155.752 70.0809C155.749 67.8341 154.716 65.68 152.879 64.0912C151.043 62.5025 148.553 61.6089 145.955 61.6065ZM150.257 68.5865L144.982 73.1496C144.911 73.2103 144.828 73.2583 144.736 73.2911C144.645 73.324 144.548 73.3408 144.448 73.3408C144.349 73.3408 144.251 73.324 144.16 73.2911C144.068 73.2583 143.985 73.2103 143.915 73.1496L141.654 71.194C141.513 71.0717 141.434 70.9058 141.434 70.7328C141.434 70.5598 141.513 70.3939 141.654 70.2716C141.795 70.1492 141.987 70.0806 142.187 70.0806C142.387 70.0806 142.579 70.1492 142.721 70.2716L144.448 71.7668L149.19 67.6641C149.26 67.6035 149.344 67.5555 149.435 67.5227C149.526 67.4899 149.624 67.4731 149.723 67.4731C149.823 67.4731 149.92 67.4899 150.012 67.5227C150.103 67.5555 150.187 67.6035 150.257 67.6641C150.326 67.7247 150.382 67.7966 150.42 67.8757C150.458 67.9549 150.477 68.0397 150.477 68.1253C150.477 68.2109 150.458 68.2957 150.42 68.3749C150.382 68.454 150.326 68.5259 150.257 68.5865Z" fill="#7551DC"/>
<path d="M196.865 61.6065C194.928 61.6065 193.034 62.1035 191.422 63.0348C189.812 63.9659 188.556 65.2895 187.814 66.8379C187.073 68.3864 186.879 70.0903 187.256 71.7342C187.635 73.378 188.568 74.888 189.938 76.0732C191.308 77.2584 193.054 78.0655 194.954 78.3925C196.854 78.7195 198.825 78.5517 200.614 77.9102C202.405 77.2688 203.934 76.1827 205.011 74.789C206.088 73.3954 206.662 71.757 206.662 70.0809C206.659 67.8341 205.626 65.68 203.79 64.0912C201.953 62.5025 199.463 61.6089 196.865 61.6065ZM201.167 68.5865L195.892 73.1496C195.821 73.2103 195.738 73.2583 195.647 73.2911C195.555 73.324 195.458 73.3408 195.358 73.3408C195.259 73.3408 195.161 73.324 195.07 73.2911C194.978 73.2583 194.895 73.2103 194.825 73.1496L192.564 71.194C192.423 71.0717 192.344 70.9058 192.344 70.7328C192.344 70.5598 192.423 70.3939 192.564 70.2716C192.706 70.1492 192.897 70.0806 193.097 70.0806C193.297 70.0806 193.489 70.1492 193.631 70.2716L195.358 71.7668L200.1 67.6641C200.17 67.6035 200.254 67.5555 200.345 67.5227C200.437 67.4899 200.534 67.4731 200.633 67.4731C200.733 67.4731 200.83 67.4899 200.922 67.5227C201.013 67.5555 201.097 67.6035 201.167 67.6641C201.236 67.7247 201.293 67.7966 201.33 67.8757C201.368 67.9549 201.387 68.0397 201.387 68.1253C201.387 68.2109 201.368 68.2957 201.33 68.3749C201.293 68.454 201.236 68.5259 201.167 68.5865Z" fill="#7551DC"/>
<path d="M51.1685 94.4176H36.0964C33.8766 94.4176 32.0771 95.9742 32.0771 97.8943V110.932C32.0771 112.852 33.8766 114.408 36.0964 114.408H51.1685C53.3883 114.408 55.1877 112.852 55.1877 110.932V97.8943C55.1877 95.9742 53.3883 94.4176 51.1685 94.4176Z" fill="#FCEBD1"/>
<path d="M102.414 94.4176H87.3415C85.1217 94.4176 83.3223 95.9742 83.3223 97.8943V110.932C83.3223 112.852 85.1217 114.408 87.3415 114.408H102.414C104.633 114.408 106.433 112.852 106.433 110.932V97.8943C106.433 95.9742 104.633 94.4176 102.414 94.4176Z" fill="#FCEBD1"/>
<path d="M153.659 94.4176H138.587C136.367 94.4176 134.567 95.9742 134.567 97.8943V110.932C134.567 112.852 136.367 114.408 138.587 114.408H153.659C155.878 114.408 157.678 112.852 157.678 110.932V97.8943C157.678 95.9742 155.878 94.4176 153.659 94.4176Z" fill="#FCEBD1"/>
<path d="M204.904 94.4176H189.832C187.612 94.4176 185.812 95.9742 185.812 97.8943V110.932C185.812 112.852 187.612 114.408 189.832 114.408H204.904C207.124 114.408 208.923 112.852 208.923 110.932V97.8943C208.923 95.9742 207.124 94.4176 204.904 94.4176Z" fill="#FCEBD1"/>
<path d="M51.1685 128.315H36.0964C33.8766 128.315 32.0771 129.872 32.0771 131.792V144.829C32.0771 146.749 33.8766 148.306 36.0964 148.306H51.1685C53.3883 148.306 55.1877 146.749 55.1877 144.829V131.792C55.1877 129.872 53.3883 128.315 51.1685 128.315Z" fill="#FCEBD1"/>
<path d="M102.414 128.315H87.3415C85.1217 128.315 83.3223 129.872 83.3223 131.792V144.829C83.3223 146.749 85.1217 148.306 87.3415 148.306H102.414C104.633 148.306 106.433 146.749 106.433 144.829V131.792C106.433 129.872 104.633 128.315 102.414 128.315Z" fill="#FCEBD1"/>
<path d="M153.659 128.315H138.587C136.367 128.315 134.567 129.872 134.567 131.792V144.829C134.567 146.749 136.367 148.306 138.587 148.306H153.659C155.878 148.306 157.678 146.749 157.678 144.829V131.792C157.678 129.872 155.878 128.315 153.659 128.315Z" fill="#FCEBD1"/>
<path d="M204.904 128.315H189.832C187.612 128.315 185.812 129.872 185.812 131.792V144.829C185.812 146.749 187.612 148.306 189.832 148.306H204.904C207.124 148.306 208.923 146.749 208.923 144.829V131.792C208.923 129.872 207.124 128.315 204.904 128.315Z" fill="#FCEBD1"/>
<defs>
<filter id="filter0_d_2051_34" x="-18.2351" y="9.53674e-07" width="257.907" height="81.9356" filterUnits="userSpaceOnUse" color-interpolation-filters="sRGB">
<feFlood flood-opacity="0" result="BackgroundImageFix"/>
<feColorMatrix in="SourceAlpha" type="matrix" values="0 0 0 0 0 0 0 0 0 0 0 0 0 0 0 0 0 0 127 0" result="hardAlpha"/>
<feOffset dx="-9.78145" dy="11.7377"/>
<feGaussianBlur stdDeviation="12.2268"/>
<feComposite in2="hardAlpha" operator="out"/>
<feColorMatrix type="matrix" values="0 0 0 0 0.384371 0 0 0 0 0.102708 0 0 0 0 0.483333 0 0 0 0.05 0"/>
<feBlend mode="normal" in2="BackgroundImageFix" result="effect1_dropShadow_2051_34"/>
<feBlend mode="normal" in="SourceGraphic" in2="effect1_dropShadow_2051_34" result="shape"/>
</filter>
</defs>
</svg>
