<svg width="192" height="32" viewBox="0 0 192 32" fill="none" xmlns="http://www.w3.org/2000/svg">
<path d="M14.1861 3.90593C14.9029 2.36246 17.0971 2.36246 17.8139 3.90593L20.0643 8.75167C20.3557 9.37917 20.9508 9.81149 21.6376 9.89474L26.9416 10.5376C28.631 10.7423 29.3091 12.8292 28.0627 13.9879L24.1495 17.6255C23.6428 18.0966 23.4155 18.7961 23.5486 19.4751L24.5762 24.7181C24.9035 26.3881 23.1283 27.6779 21.6412 26.8505L16.9724 24.253C16.3678 23.9166 15.6322 23.9166 15.0276 24.253L10.3588 26.8505C8.87166 27.6779 7.09645 26.3881 7.42378 24.7181L8.45143 19.4751C8.58451 18.7961 8.35722 18.0966 7.85048 17.6255L3.93732 13.9879C2.6909 12.8292 3.36897 10.7423 5.05839 10.5376L10.3624 9.89474C11.0492 9.81149 11.6443 9.37917 11.9357 8.75167L14.1861 3.90593Z" fill="#FFCC6A"/>
<path d="M54.1861 3.90593C54.9029 2.36246 57.0971 2.36246 57.8139 3.90593L60.0643 8.75167C60.3557 9.37917 60.9508 9.81149 61.6376 9.89474L66.9416 10.5376C68.631 10.7423 69.3091 12.8292 68.0627 13.9879L64.1495 17.6255C63.6428 18.0966 63.4155 18.7961 63.5486 19.4751L64.5762 24.7181C64.9035 26.3881 63.1283 27.6779 61.6412 26.8505L56.9724 24.253C56.3678 23.9166 55.6322 23.9166 55.0276 24.253L50.3588 26.8505C48.8717 27.6779 47.0965 26.3881 47.4238 24.7181L48.4514 19.4751C48.5845 18.7961 48.3572 18.0966 47.8505 17.6255L43.9373 13.9879C42.6909 12.8292 43.369 10.7423 45.0584 10.5376L50.3624 9.89474C51.0492 9.81149 51.6443 9.37917 51.9357 8.75167L54.1861 3.90593Z" fill="#FFCC6A"/>
<path d="M94.1861 3.90593C94.9029 2.36246 97.0971 2.36246 97.8139 3.90593L100.064 8.75167C100.356 9.37917 100.951 9.81149 101.638 9.89474L106.942 10.5376C108.631 10.7423 109.309 12.8292 108.063 13.9879L104.15 17.6255C103.643 18.0966 103.415 18.7961 103.549 19.4751L104.576 24.7181C104.904 26.3881 103.128 27.6779 101.641 26.8505L96.9724 24.253C96.3678 23.9166 95.6322 23.9166 95.0276 24.253L90.3588 26.8505C88.8717 27.6779 87.0965 26.3881 87.4238 24.7181L88.4514 19.4751C88.5845 18.7961 88.3572 18.0966 87.8505 17.6255L83.9373 13.9879C82.6909 12.8292 83.369 10.7423 85.0584 10.5376L90.3624 9.89474C91.0492 9.81149 91.6443 9.37917 91.9357 8.75167L94.1861 3.90593Z" fill="#FFCC6A"/>
<path d="M134.186 3.90593C134.903 2.36246 137.097 2.36246 137.814 3.90593L140.064 8.75167C140.356 9.37917 140.951 9.81149 141.638 9.89474L146.942 10.5376C148.631 10.7423 149.309 12.8292 148.063 13.9879L144.15 17.6255C143.643 18.0966 143.415 18.7961 143.549 19.4751L144.576 24.7181C144.904 26.3881 143.128 27.6779 141.641 26.8505L136.972 24.253C136.368 23.9166 135.632 23.9166 135.028 24.253L130.359 26.8505C128.872 27.6779 127.096 26.3881 127.424 24.7181L128.451 19.4751C128.585 18.7961 128.357 18.0966 127.85 17.6255L123.937 13.9879C122.691 12.8292 123.369 10.7423 125.058 10.5376L130.362 9.89474C131.049 9.81149 131.644 9.37917 131.936 8.75167L134.186 3.90593Z" fill="#FFCC6A"/>
<path d="M174.186 3.90593C174.903 2.36246 177.097 2.36246 177.814 3.90593L180.064 8.75167C180.356 9.37917 180.951 9.81149 181.638 9.89474L186.942 10.5376C188.631 10.7423 189.309 12.8292 188.063 13.9879L184.15 17.6255C183.643 18.0966 183.415 18.7961 183.549 19.4751L184.576 24.7181C184.904 26.3881 183.128 27.6779 181.641 26.8505L176.972 24.253C176.368 23.9166 175.632 23.9166 175.028 24.253L170.359 26.8505C168.872 27.6779 167.096 26.3881 167.424 24.7181L168.451 19.4751C168.585 18.7961 168.357 18.0966 167.85 17.6255L163.937 13.9879C162.691 12.8292 163.369 10.7423 165.058 10.5376L170.362 9.89474C171.049 9.81149 171.644 9.37917 171.936 8.75167L174.186 3.90593Z" fill="#FFCC6A"/>
</svg>
