<svg width="43" height="43" viewBox="0 0 43 43" fill="none" xmlns="http://www.w3.org/2000/svg">
<circle cx="21.2704" cy="21.2704" r="21.2704" fill="#FFCC6A"/>
<path d="M29.9732 29.6788L23.7779 19.9491L29.8432 13.2774C30.056 13.0375 30.1657 12.7234 30.1485 12.4032C30.1312 12.0829 29.9885 11.7824 29.7512 11.5667C29.5138 11.351 29.201 11.2376 28.8806 11.251C28.5602 11.2643 28.258 11.4035 28.0394 11.6382L22.4261 17.8173L18.5982 11.8038C18.4882 11.6308 18.3363 11.4884 18.1567 11.3897C17.977 11.291 17.7754 11.2392 17.5704 11.2391H12.6954C12.4771 11.2392 12.2628 11.2979 12.0749 11.4092C11.8871 11.5204 11.7325 11.6801 11.6275 11.8715C11.5225 12.0629 11.4708 12.2789 11.4778 12.4972C11.4849 12.7154 11.5504 12.9277 11.6676 13.1119L17.8629 22.8416L11.7935 29.5132C11.6836 29.6313 11.5982 29.7699 11.5423 29.9212C11.4864 30.0725 11.4611 30.2334 11.4679 30.3945C11.4746 30.5557 11.5132 30.7139 11.5816 30.8599C11.6499 31.006 11.7465 31.1371 11.8659 31.2456C11.9852 31.354 12.1249 31.4377 12.2769 31.4918C12.4288 31.5459 12.59 31.5693 12.751 31.5606C12.9121 31.552 13.0698 31.5114 13.215 31.4414C13.3603 31.3713 13.4902 31.2731 13.5972 31.1524L19.2147 24.9734L23.0426 30.9869C23.1526 31.1599 23.3044 31.3023 23.4841 31.401C23.6637 31.4997 23.8654 31.5515 24.0704 31.5516H28.9454C29.1637 31.5515 29.378 31.4927 29.5658 31.3815C29.7537 31.2702 29.9082 31.1106 30.0132 30.9192C30.1183 30.7278 30.17 30.5117 30.1629 30.2935C30.1559 30.0753 30.0904 29.863 29.9732 29.6788ZM24.7397 29.1141L14.9155 13.6766H16.9011L26.7252 29.1141H24.7397Z" fill="#7551DC"/>
</svg>
